<svg xmlns="http://www.w3.org/2000/svg" width="512" height="512" viewBox="0 0 512 512"><path fill="#fff" fill-rule="evenodd" d="M172.444 71.374c-10 4.656-15.326 14.268-14.073 25.4 1.209 10.751 2.412 16.906 3.712 18.988 1.037 1.66 1.064 3.359.137 8.409-.64 3.481-1.738 6.682-2.441 7.114-4.541 2.79-18.052 10.363-22.028 12.348-6.92 3.455-12.193 8.659-14.819 14.625-2.141 4.867-2.311 6.636-2.369 24.742-.048 14.825.408 22.426 1.903 31.706 1.714 10.647 1.802 12.946.685 18-.704 3.187-1.671 8.494-2.148 11.794s-1.84 8.475-3.028 11.5c-4.509 11.485-4.448 21.826.189 31.933 1.743 3.8 2.569 4.703 3.554 3.886.947-.786 1.282-.668 1.282.452 0 1.876-2.722 3.06-3.273 1.423-.882-2.62-3.727 1.524-3.727 5.428 0 2.133-.483 3.878-1.074 3.878s-9.929-2.665-20.75-5.922c-41.631-12.53-41.599-12.523-49.388-11.317C34.834 287.302 34 288.338 34 299.155c0 7.315.324 9.169 1.875 10.72 1.031 1.031 2.329 2.044 2.885 2.25.903.335-4.784 35.233-5.928 36.377-.229.228-3.772.923-7.874 1.544-4.102.622-8.431 1.75-9.621 2.508-4.59 2.924-3.779 12.012 1.278 14.316 3.726 1.698 9.502 1.388 25.957-1.393 41.293-6.98 41.454-7.037 41.396-14.727-.06-8.081-3.947-10.202-14.899-8.131-4.063.768-7.585 1.198-7.828.955-.791-.79 4.404-23.078 5.345-22.931.815.128 32.989 10.301 104.414 33.015 14.279 4.541 24.089 8.186 25 9.29 2.427 2.941 5.521 4.052 11.285 4.052 2.979 0 6.946.49 8.816 1.088 1.869.599 3.975 1.265 4.679 1.48.873.268.157 2.026-2.25 5.524-4.076 5.926-4.304 7.654-1.485 11.239 4.652 5.913 15.136 6.055 43.374.587 17.749-3.437 21.653-3.911 24.697-3 5.754 1.722 11.059 1.276 17.962-1.511 3.532-1.426 20.136-8.458 36.898-15.628 29.621-12.67 30.547-12.991 33-11.426 7.737 4.934 14.721 7.645 19.694 7.646l5.169.001 1.719 5.25c1.396 4.266 22.594 61.197 24.879 66.819.529 1.301-1.722 2.118-13.149 4.771-7.584 1.761-15.893 3.192-18.465 3.181-6.438-.029-8.823 2.954-8.823 11.037 0 4.678.468 6.345 2.441 8.689 2.508 2.981 8.161 5.253 13.07 5.253 4.091 0 94.606-22.869 97.204-24.559 3.346-2.177 4.565-5.26 4.014-10.15-.593-5.263-3.622-8.887-8.669-10.371-2.952-.868-5.749-.524-16.374 2.016-7.047 1.685-13.199 3.064-13.67 3.064-1.026 0-1.713-2.99-2.988-13-.525-4.125-1.842-13.575-2.925-21-2.251-15.424-5.671-40.041-6.622-47.659-.568-4.553-.235-6.022 2.836-12.5 5.428-11.451 7.072-19.408 6.996-33.841-.08-15.139-2.275-24.437-8.545-36.206-4.687-8.797-11.044-16.046-17.845-20.349-8.227-5.207-20.636-7.797-26.423-5.516-1.295.511 1.171.952 7 1.253 7.274.375 10.033.993 14.383 3.225 16.886 8.662 28.572 29.623 29.832 53.51.811 15.379-1.421 26.647-7.789 39.321l-2.884 5.738 6.19 43.986c3.671 26.086 6.645 44.16 7.309 44.415.615.236 6.483-.86 13.039-2.436 15.648-3.762 18.751-3.764 22.497-.018 2.439 2.439 2.923 3.738 2.923 7.845 0 3.623-.519 5.391-1.965 6.7-1.785 1.616-37.453 11.069-83.113 22.028-14.083 3.38-14.748 3.448-19.586 2.011-6.72-1.996-8.642-4.307-8.764-10.543-.112-5.748.819-8.964 2.596-8.964.958 0 .965.267.032 1.2-.678.678-1.2 3.928-1.2 7.477 0 5.651.258 6.446 2.592 7.975 5.81 3.807 10.357 3.148 54.908-7.961 52.298-13.041 50.104-12.438 51.955-14.289 3.265-3.265 1.302-12.28-3.112-14.292-3.487-1.588-4.353-1.498-19.616 2.046-8.332 1.935-14.104 2.832-14.611 2.271-.461-.51-2.013-9.477-3.449-19.927a4787 4787 0 0 0-4.581-32.5 4341 4341 0 0 1-3.61-25.325l-1.64-11.825 3.515-7.175c13.231-27.003 8.478-62.528-11-82.223-7.618-7.703-14.465-10.693-26.077-11.387l-9.45-.565-10.26-17.431c-9.625-16.353-10.207-17.651-9.417-21 .464-1.963 1.205-7.257 1.648-11.764.804-8.189.802-8.197-2.644-13.75L378.702 170h-13.229c-9.373 0-13.525.364-14.245 1.25-.56.688-1.537 5.525-2.173 10.75-2.017 16.596-3.286 25.102-3.686 24.703-.213-.214.275-5.971 1.085-12.795 2.338-19.694 2.762-22.332 3.807-23.658.702-.892 4.944-1.25 14.824-1.25h13.84l4.133 6.085c3.373 4.968 4.028 6.667 3.566 9.25-.312 1.741-.826 6.09-1.144 9.665s-.792 7.525-1.055 8.779c-.339 1.617 2.321 7.058 9.167 18.75 5.304 9.059 9.816 16.471 10.026 16.471 1.09 0-.385-2.872-8.75-17.036-5.023-8.505-9.121-15.914-9.106-16.464.014-.55.58-6.191 1.257-12.536l1.23-11.535-3.637-5.686c-2-3.127-4.502-6.149-5.559-6.715S371.456 167 364.52 167c-17.253 0-16.383-1.045-19.399 23.306-2.886 23.301-3.093 22.799 9.284 22.495l8.095-.198-7.499-.351c-4.124-.192-7.816-.665-8.204-1.051s3.429-.476 8.483-.201l9.19.5 8.411 16.407c7.922 15.454 8.304 16.485 6.573 17.75-1.01.739-2.313 1.329-2.895 1.313-.583-.017-.271-.489.691-1.05s1.75-1.685 1.75-2.498c0-2.584-14.829-30.926-15.717-30.038-.272.272 2.991 7.118 7.252 15.215l7.747 14.72-2.891 2.018c-4.007 2.796-12.399 11.647-12.353 13.027.022.625 1.934-.921 4.25-3.434 2.317-2.514 5.108-5.214 6.203-6 1.094-.787-.706 1.593-4 5.287s-6.523 6.732-7.172 6.75c-.65.018-8.075-2.183-16.5-4.892-8.426-2.708-24.094-7.634-34.819-10.945-29.416-9.083-34.407-10.818-32.889-11.438 1.898-.776-11.342.236-18.03 1.378-4.902.836-8.424.315-5.331-.79.688-.246 1.25-1.336 1.25-2.422s-.45-1.698-1-1.358-1 .029-1.001-.691c0-.999 2.664-1.318 11.25-1.345 6.188-.021 13.051-.395 15.251-.833 3.084-.614 3.656-.535 2.5.345-1.175.895-.633 1.026 2.5.608 9.011-1.202 12.81-1.074 13.062.442.135.811.544 2.216.91 3.123.789 1.959-1.365 3.642-2.439 1.904-.538-.871-2.772-1.003-8.099-.478-7.881.777-7.349 1.63 1.752 2.807 2.852.368 6.452 1.33 8 2.138s5.289 1.523 8.314 1.59 4.688.333 3.695.59-1.632.989-1.42 1.625c.404 1.212 51.775 17.958 52.59 17.143.258-.257.281-.627.052-.821-.341-.288-41.759-13.426-48.288-15.317-1.484-.43-1.035-.917 2.169-2.351 4.693-2.101 6.202-4.415 6.202-9.512 0-8.45-5.587-13.846-17.5-16.902-6.35-1.63-6.799-2.007-18.292-15.373-6.07-7.059-11.764-11.276-18.208-13.487-2.475-.85-6.717-3.622-9.427-6.16s-6.647-5.583-8.75-6.765-3.833-2.853-3.845-3.714c-.042-3.032-3.757-9.609-7.596-13.448-5.184-5.184-12.615-8.596-18.751-8.608-3.809-.008-6.15-.788-10.75-3.582-5.841-3.548-6.813-4.734-4.867-5.937 1.96-1.211 4.771-8.07 6.492-15.842 1.418-6.398 1.61-10.282 1.041-21-.806-15.171-2.961-21.575-8.745-25.986-8.018-6.116-21.217-7.546-30.358-3.289m1.556.644c-5.486 2.56-9.593 6.327-11.972 10.982-2.354 4.606-3.354 10.945-2.213 14.027.74 1.999.926 1.367.968-3.292.13-14.185 11.335-23.818 26.143-22.475 10.051.911 17.409 6.197 20.519 14.74 1.484 4.076 1.587 4.17 1.088 1-.841-5.34-5.368-11.027-11.021-13.845-7.048-3.513-17.352-4.011-23.512-1.137m-1.794 4.55c-1.232.863-2.012 1.937-1.734 2.387s-.235 1.432-1.141 2.182c-2.551 2.111-5.281 8.936-5.344 13.363-.032 2.2-.701 5.125-1.487 6.5s-1.427 3.625-1.425 5c.004 2.18.257 1.994 1.973-1.446 1.083-2.171 2.528-4.298 3.211-4.727 1.631-1.027 4.923-.03 6.491 1.965 1.78 2.264 1.546 3.54-.5 2.723-4.573-1.825-5.74-1.33-6.017 2.554-.202 2.82.373 4.497 2.339 6.834 1.433 1.703 3.18 3.097 3.882 3.097s2.371 2.138 3.71 4.75c2.643 5.159 9.912 10.383 17.169 12.339 5.616 1.513 8.055-.479 10.814-8.835 1.923-5.823 2.211-8.707 2.088-20.924-.198-19.826-2.582-24.921-13.084-27.975-6.274-1.823-13.262-1.444-18.131.985-4.106 2.049-5.3 1.414-1.358-.722 1.561-.846 2.376-1.556 1.811-1.578-.566-.022-2.036.666-3.267 1.528m-10.127 20.015c.048 1.165.285 1.402.604.605.289-.722.253-1.585-.079-1.917s-.568.258-.525 1.312M209 101.5c0 .275.225.5.5.5s.5-.225.5-.5-.225-.5-.5-.5-.5.225-.5.5m-37 2c0 .275.225.5.5.5s.5-.225.5-.5-.225-.5-.5-.5-.5.225-.5.5m-9.921 8.083c.048 1.165.285 1.402.604.605.289-.722.253-1.585-.079-1.917s-.568.258-.525 1.312m.953 2.967c-.018.577.436 1.518 1.008 2.09.978.978.743 2.949-1.565 13.105-.348 1.528-2.5 3.246-6.743 5.382-3.427 1.727-8.042 4.38-10.255 5.897-2.212 1.518-5.587 3.415-7.5 4.216-1.912.801-4.948 2.698-6.747 4.214-3.439 2.9-8.863 11.246-7.921 12.188.303.304 1.45-1.21 2.549-3.363 2.426-4.756 8.416-10.334 13.149-12.246 1.921-.776 4.843-2.407 6.493-3.625 1.65-1.219 6.256-3.886 10.235-5.929 6.311-3.238 7.365-4.177 8.245-7.346.555-1.998 1.011-4.646 1.014-5.883.005-2.036 1.877-3.045 3.198-1.724.867.866-1.229 10.804-2.789 13.225-1.365 2.118-17.403 11-17.403 9.638 0-.349-.67-.078-1.489.602s-1.296 1.548-1.059 1.931c.236.382-1.457 1.209-3.761 1.836-5.648 1.538-10.972 6.18-13.668 11.917-1.796 3.821-2.152 6.045-1.842 11.53.212 3.737.145 6.795-.148 6.796-1.555.002-.951 18.365.921 27.999 2.726 14.033 2.76 28.177.078 33.436-1.082 2.123-1.747 4.216-1.478 4.652.789 1.277 6.527-1.134 5.798-2.435-.399-.714-.132-.677.701.097 1.82 1.689 3.288 1.582 2.608-.19-1.142-2.976 13.186-20.961 21.699-27.239 3.223-2.376 6.936-4.321 8.25-4.321 2.859 0 3.043-1.099.561-3.345-2.024-1.832-3.64-2.222-2.664-.644.344.557-1.72.087-4.587-1.043-7.353-2.898-8.426-3.565-10.28-6.395-.923-1.409-2.247-2.277-3.02-1.981-1.617.621-7.62-6.243-7.62-8.713 0-.916-.698-1.933-1.552-2.261-.955-.366-1.297-.183-.89.476.364.589-.779.326-2.541-.585s-2.947-1.912-2.634-2.225 1.163-.167 1.89.323c.727.491.503.138-.497-.785-1.043-.961-1.402-1.935-.842-2.282 2.076-1.282 8.434 2.682 14.86 9.264 5.823 5.965 7.732 7.239 14.501 9.683 6.747 2.436 10.634 5.25 9.213 6.672-.232.232.534.494 1.702.582s3.961 1.454 6.207 3.035c5.334 3.757 12.386 6.414 27.083 10.208 9.462 2.442 12.449 3.639 14.121 5.661 1.436 1.737 3.698 2.853 7 3.457 5.925 1.083 8.805 4.019 7.982 8.135-.521 2.601-.405 2.728 1.533 1.69 1.84-.984 2.018-1.711 1.455-5.95-.352-2.656-.245-5.073.238-5.371 1.282-.792 3.171 3.939 3.171 7.941 0 1.899.42 3.453.933 3.453 1.763 0 2.266-4.216 1.03-8.633-.682-2.434-.957-4.706-.613-5.05 1.146-1.147 4.802 8.622 4.101 10.96-.628 2.096-.566 2.127 1.09.539 1.569-1.505 1.619-2.173.469-6.279-1.273-4.549-1.011-6.274.786-5.163 1.333.824 3.545 9.266 2.76 10.536-.393.636-.081.845.773.517 1.067-.409 1.237-1.364.668-3.738-1.055-4.394-4.359-11.16-5.531-11.326-5.892-.832-20.798-5.005-24.387-6.826-4.752-2.411-12.316-7.964-22.52-16.533-3.268-2.744-8.56-6.004-11.761-7.246-3.619-1.403-5.641-2.725-5.345-3.495.261-.682.13-1.132-.291-1.001s-2.314-1.521-4.207-3.67-5.605-4.912-8.25-6.137c-2.645-1.226-4.757-2.617-4.692-3.092s-2.724-1.652-6.197-2.617l-6.316-1.753 6.443.331c3.766.194 6.604.818 6.833 1.504.215.644 1.076 1.172 1.914 1.172 1.063 0 1.303-.53.794-1.75-.402-.963-1.121-3.716-1.599-6.119s-1.812-5.895-2.964-7.759c-2.155-3.486-9.309-8.372-12.259-8.372-2.09 0-2.177-1.865-.124-2.653 2.215-.85 9.764 2.281 12.486 5.178 3.229 3.437 1.823 3.091-4.16-1.025-2.799-1.925-5.825-3.48-6.726-3.456s.162.973 2.362 2.109c5.104 2.634 11.032 8.302 12.572 12.021.658 1.59 1.395 2.693 1.636 2.451.242-.242-.269-1.809-1.134-3.482-1.937-3.747-1.998-4.74-.199-3.246 1.899 1.575 3.865 9.074 3.46 13.194-.279 2.838-.03 3.357 1.485 3.099 1.17-.199 4.086 2.035 8.158 6.25 3.486 3.608 6.76 6.56 7.275 6.56s2.227 1.109 3.804 2.465c1.578 1.355 3.129 2.043 3.447 1.528.685-1.108 11.215 7.28 12.02 9.574.554 1.582 2.447 2.097 2.509.683.018-.412 1.268-2.672 2.776-5.022 5.608-8.733 6.73-19.197 3.147-29.352-.768-2.176-.998-3.711-.511-3.41.486.3 1.097-.019 1.357-.71s1.375.769 2.478 3.244c2.872 6.443 3.675 9.399 2.327 8.566-.672-.415-1.107.124-1.107 1.375 0 1.132.45 2.059 1 2.059 1.288 0 1.315 7.726.028 8.167-.535.183-1.15 2.469-1.365 5.08-.468 5.646-4.82 13.014-7.158 12.117-1.697-.652-2.144 2.123-.505 3.136.55.34 1 .09 1-.556q0-1.175 2.438.424c2.285 1.497 2.772 1.442 7.75-.876 5.056-2.353 10.453-3.346 9.471-1.742-.253.412 1.982.75 4.966.75h5.425l-4.037-1.714c-2.22-.943-4.615-1.492-5.322-1.221s-3.824-1.325-6.927-3.548c-5.749-4.116-5.752-4.123-4.878-10.327.063-.445 2.252.978 4.864 3.162 4.914 4.108 8.625 6.218 18.573 10.561 3.833 1.673 5.574 2.944 5.096 3.719-.438.707-.298.911.35.511.592-.366 3.474 1.718 6.404 4.631 5.458 5.428 8.314 6.845 21.534 10.69 5.446 1.583 7.07 2.455 6.643 3.566-.411 1.071.173 1.47 2.15 1.47 2.064 0 2.569-.379 2.107-1.582-.334-.87-.607-1.796-.607-2.059 0-.262-.562-.153-1.25.243s-.135-.503 1.228-1.998c1.502-1.648 3.175-2.536 4.25-2.255.975.255 1.772.33 1.772.166 0-.446-10.7-11.968-17.275-18.602-4.383-4.422-7.085-6.239-11.205-7.538-2.987-.942-5.156-2.156-4.82-2.698.351-.568.094-.668-.605-.236-.752.465-3.421-1.285-7.013-4.595-3.189-2.94-7.284-6.246-9.099-7.346-2.365-1.433-3.658-3.227-4.559-6.327-2.948-10.138-11.361-16.906-21.976-17.679-4.076-.296-7.418-1.417-12.275-4.115-3.67-2.039-7.004-4.196-7.408-4.793s-.741.515-.75 2.473c-.008 1.957-.727 4.432-1.597 5.5-1.559 1.914-1.571 1.913-.886-.059 1.623-4.67 1.359-5.709-.508-2l-2.014 4 .495-3.25c1.084-7.116 1.697-9.25 2.658-9.25.552 0 .816-.562.586-1.25-.249-.746-1.683-1.12-3.557-.927-6.798.698-23.078-11.327-21.825-16.12.321-1.224-.266-2.094-1.806-2.68-1.254-.477-3.229-2.139-4.389-3.695-1.16-1.555-2.123-2.356-2.14-1.778M208 122.5c0 .275.225.5.5.5s.5-.225.5-.5-.225-.5-.5-.5-.5.225-.5.5m-1 3c0 .275.225.5.5.5s.5-.225.5-.5-.225-.5-.5-.5-.5.225-.5.5m-33.716 6.685c.332.927.207 1.827-.278 2-2.411.861 6.813 19.815 9.643 19.815.871 0 1.328-.555 1.03-1.25-5.269-12.315-12.712-27.04-10.395-20.565M205 131.5c0 .275.225.5.5.5s.5-.225.5-.5-.225-.5-.5-.5-.5.225-.5.5m-43.5 4.5c-1.65 1.093-2.487 1.99-1.861 1.993 1.093.007 6.388-3.898 5.361-3.953-.275-.015-1.85.867-3.5 1.96m13.053 1.468c.769 3.839 5.108 13.006 6.834 14.438.736.611-.145-1.93-1.958-5.647s-3.785-7.884-4.383-9.259c-1.05-2.414-1.067-2.397-.493.468M203 135.5c0 .275.225.5.5.5s.5-.225.5-.5-.225-.5-.5-.5-.5.225-.5.5m-2.333 2.167c-1.198 1.197-.702 3.106.974 3.749 1.354.519 1.426.37.414-.849-.675-.814-.937-1.949-.582-2.523.721-1.168.219-1.403-.806-.377M157 138.5c0 .275.225.5.5.5s.5-.225.5-.5-.225-.5-.5-.5-.5.225-.5.5m-2 1c0 .275.225.5.5.5s.5-.225.5-.5-.225-.5-.5-.5-.5.225-.5.5m-2 1c0 .275.225.5.5.5s.5-.225.5-.5-.225-.5-.5-.5-.5.225-.5.5m-3 1.5c-.901.582-1.025.975-.309.985.655.008 1.469-.435 1.809-.985.767-1.242.421-1.242-1.5 0m55.5 2c.34.55.843 1 1.118 1s.222-.45-.118-1-.843-1-1.118-1-.222.45.118 1m7 4c.34.55 1.068 1 1.618 1s.722-.45.382-1-1.068-1-1.618-1-.722.45-.382 1m5.5.5c0 .275.225.5.5.5s.5-.225.5-.5-.225-.5-.5-.5-.5.225-.5.5m4 .5c.825.533 1.95.969 2.5.969s.325-.436-.5-.969-1.95-.969-2.5-.969-.325.436.5.969m6 1.5c0 .275.225.5.5.5s.5-.225.5-.5-.225-.5-.5-.5-.5.225-.5.5m2 1c0 .275.225.5.5.5s.5-.225.5-.5-.225-.5-.5-.5-.5.225-.5.5m-62.5 1.349 2 .881-2 .465c-1.34.312-.019 1.028 4 2.171 3.3.938 8.385 2.642 11.3 3.786s5.615 1.765 6 1.379c1.258-1.261-4.716-5.429-10.066-7.021-6.127-1.825-14.368-3.043-11.234-1.661m2.655 1.639c.358.358 3.282 1.329 6.498 2.158 3.216.828 6.899 2.183 8.184 3.01s2.564 1.276 2.843.998c.641-.642-4.111-3.068-8.68-4.43-5.564-1.66-9.552-2.442-8.845-1.736m29.43 1.306c-4.44 1.541-7.757 4.368-6.545 5.579.897.897 15.959-4.881 15.959-6.123.001-1.704-3.525-1.501-9.414.544m6.748-.127a.95.95 0 0 0 1.334 0c.366-.367.066-.667-.667-.667s-1.033.3-.667.667m-7.963 1.773c-1.721.75-3.456 1.89-3.855 2.535-.543.88-.261.9 1.13.08 1.02-.601 3.655-1.727 5.855-2.503 2.219-.783 3.109-1.425 2-1.442-1.1-.018-3.408.581-5.13 1.33m38.63.06c0 .275.225.5.5.5s.5-.225.5-.5-.225-.5-.5-.5-.5.225-.5.5m-20.421 7.5c.365 1.375 1.045 3.175 1.512 4 .754 1.333.848 1.333.843 0-.003-.825-.683-2.625-1.511-4l-1.506-2.5zm-94.5.583c.048 1.165.285 1.402.604.605.289-.722.253-1.585-.079-1.917s-.568.258-.525 1.312M169 166.5c0 .275.225.5.5.5s.5-.225.5-.5-.225-.5-.5-.5-.5.225-.5.5m22 2.417c0 .504.512 1.087 1.139 1.296.662.221 1.437 4.123 1.852 9.333.686 8.596.72 8.694.856 2.454.151-6.911-1.315-14-2.894-14-.524 0-.953.412-.953.917m-41.311 2.777c-.915 1.481 1.607 2.324 6.643 2.22 4.089-.084 4.111-.103 1.168-1.016-1.65-.511-3.766-.745-4.702-.52s-1.866-.083-2.067-.685c-.264-.792-.552-.792-1.042.001m41.706 6.555c.058 4.262.443 7.749.855 7.75.951.001.798-9.679-.205-12.999-.476-1.575-.716.368-.65 5.249m34.855-5.758c-2.137.929-3.25 2.108-3.25 3.445 0 1.982.088 1.99 3.58.324 1.969-.938 3.079-1.874 2.466-2.078-.612-.204-1.784.186-2.604.866s-1.774.954-2.12.608c-.704-.704 5.806-3.656 8.063-3.656.796 0 1.649.563 1.895 1.25.245.688.832.888 1.304.446 1.091-1.023-1.461-2.673-4.084-2.642-1.1.014-3.463.66-5.25 1.437m18.75.009c0 .275.225.5.5.5s.5-.225.5-.5-.225-.5-.5-.5-.5.225-.5.5m107.584 1.365c-.294.475-.755 3.513-1.025 6.75l-.49 5.885.897-4.85c1.497-8.095.775-7.674 12.753-7.438l10.781.213-10.582.32-10.582.319-1.835 14.218c-1.734 13.429-4.078 23.933-3.061 13.718l.448-4.5-1.096 4.298c-.852 3.339-.811 4.566.181 5.5.996.937 1.378.927 1.735-.048.268-.73 2.213-1.25 4.675-1.25 2.32 0 4.795.563 5.502 1.25 1.038 1.01 1.22.771.95-1.25-.24-1.792-.947-2.5-2.495-2.5-1.187 0-2.465-.303-2.839-.673s-.156-5.77.484-12c.845-8.221 1.608-11.67 2.781-12.577 1.062-.822 4.72-1.192 10.675-1.082 8.732.162 8.843.192 3.059.832l-6 .664 6.823.168c6.01.148 6.783-.041 6.487-1.582-.186-.963-1.006-1.761-1.824-1.774-.817-.013-1.423-.801-1.347-1.75.125-1.549-1.127-1.726-12.191-1.726-6.782 0-12.57.389-12.864.865m-191.251.802a.95.95 0 0 0 1.334 0c.366-.367.066-.667-.667-.667s-1.033.3-.667.667m-39.303 3.883c.027 2.586.163 2.722 1.104 1.104.769-1.324.761-2.159-.03-2.95-.805-.805-1.096-.305-1.074 1.846M176 177.5c0 .275.225.5.5.5s.5-.225.5-.5-.225-.5-.5-.5-.5.225-.5.5m183.405 3.655c-.443.715-.275.883.44.44 1.153-.712 1.548-1.595.714-1.595-.243 0-.762.52-1.154 1.155m3.297 1.519c-.366.591-.963 4.281-1.327 8.2-.564 6.073-.432 7.126.898 7.126.858 0 1.725-.494 1.926-1.098.201-.603 3.276-1.329 6.834-1.613l6.467-.515 1.363 3.363 1.363 3.363.781-3.351c.43-1.842 1.09-6.23 1.467-9.75l.685-6.399-3.329.1c-3.034.09-3.108.161-.83.795 1.737.483 2.478 1.369 2.429 2.9-.266 8.203-.542 10.205-1.404 10.205-.536 0-.761-1.35-.5-3l.95-6 .475-3h-8.392c-5.641 0-8.523-.394-8.792-1.201-.275-.825-.608-.864-1.064-.125m5.548.015c.962.252 2.538.252 3.5 0 .962-.251.175-.457-1.75-.457s-2.712.206-1.75.457M133 183.5c0 .275.225.5.5.5s.5-.225.5-.5-.225-.5-.5-.5-.5.225-.5.5m-12 2.5c0 .733.3 1.033.667.667a.95.95 0 0 0 0-1.334c-.367-.366-.667-.066-.667.667m62.5 0c.34.55.816 1 1.059 1s.441-.45.441-1-.477-1-1.059-1-.781.45-.441 1m78.5-.5c0 .275.225.5.5.5s.5-.225.5-.5-.225-.5-.5-.5-.5.225-.5.5m100.632 2.59c-.348 1.738-.579 4.341-.515 5.785s.52.194 1.014-2.778c.961-5.794.552-8.262-.499-3.007m-98.299-1.423a.95.95 0 0 0 1.334 0c.366-.367.066-.667-.667-.667s-1.033.3-.667.667M121 188.5c0 .275.225.5.5.5s.5-.225.5-.5-.225-.5-.5-.5-.5.225-.5.5m229.195 2c.02 1.65.244 2.204.498 1.231s.237-2.323-.037-3-.481.119-.461 1.769m-79.112-1.197c.23.166 1.767 1.093 3.417 2.059l3 1.757-2.361-2.06c-1.298-1.132-2.836-2.059-3.416-2.059s-.869.136-.64.303M257 191.55c0 .852.672 2.85 1.494 4.439l1.495 2.89-4.544.682c-4.32.647-4.442.753-2.469 2.135 1.614 1.13 2.682 1.213 4.8.373l2.724-1.081-3 .536c-2.234.4-2.617.278-1.5-.478 2.117-1.433 3.902-1.286 5.652.463 2.739 2.74 3.271.522 1.026-4.283-1.215-2.599-2.566-5.288-3.002-5.976-1.105-1.739-2.676-1.563-2.676.3m101-.55c0 .733.3 1.033.667.667a.95.95 0 0 0 0-1.334c-.367-.366-.667-.066-.667.667m-99.96.282c-.072 1.413 2.975 8.036 3.469 7.542.266-.266-.397-2.247-1.473-4.403-1.076-2.157-1.974-3.569-1.996-3.139M281.5 197c2.148 2.2 4.131 4 4.406 4s-1.258-1.8-3.406-4-4.131-4-4.406-4 1.258 1.8 3.406 4m67.5-2c0 .733.3 1.033.667.667a.95.95 0 0 0 0-1.334c-.367-.366-.667-.066-.667.667m-180.833 1.001c.24.719 1.425 1.674 2.634 2.121 2.899 1.072 2.852.078-.051-1.098-1.58-.64-.76-.739 2.75-.333 2.75.319 5.675.949 6.5 1.401.902.494-.094.645-2.5.38l-4-.441 3.929 1.006c2.418.619 4.285.649 4.857.077 1.406-1.406-2.296-2.98-8.815-3.746-4.504-.53-5.646-.393-5.304.633m204.646.682c.721.289 1.584.253 1.916-.079s-.258-.568-1.312-.525c-1.165.048-1.402.285-.604.604M230 197.5c0 .275.225.5.5.5s.5-.225.5-.5-.225-.5-.5-.5-.5.225-.5.5m139.813 2.183c.721.289 1.584.253 1.916-.079s-.258-.568-1.312-.525c-1.165.048-1.402.285-.604.604m4.705.346c.632 1.023-.473 1.156-5.361.645-5.427-.567-6.155-.438-6.142 1.091.009.954 4.621 10.51 10.25 21.235 9.683 18.449 10.397 19.51 13.235 19.679 1.832.11 2.221-.029 1-.357-1.1-.296-2.545-.979-3.211-1.52-1.656-1.343-20.555-37.87-19.922-38.503.279-.278 2.304 3.028 4.501 7.348 11.239 22.095 16.173 30.843 17.342 30.744.709-.059 3.259-.446 5.667-.859 3.113-.534 4.178-.43 3.691.359-.418.675.12 1.109 1.373 1.109 1.132 0 2.053-.562 2.047-1.25-.02-1.962-22.576-40.113-23.996-40.586-.821-.274-.989.032-.474.865M139.7 205.25c-2.298 3.295-3.221 5.399-2.479 5.651 1.398.473 8.779-7.539 8.779-9.53 0-2.879-2.78-1.167-6.3 3.879M262 200.5c0 .275.225.5.5.5s.5-.225.5-.5-.225-.5-.5-.5-.5.225-.5.5m-140 1c0 .275.225.5.5.5s.5-.225.5-.5-.225-.5-.5-.5-.5.225-.5.5m20.176 1.75c-.63 1.238-1.925 3.375-2.877 4.75-1.701 2.457-1.697 2.471.235.817 2.467-2.112 5.885-7.817 4.683-7.817-.493 0-1.411 1.012-2.041 2.25M159 202.5c0 .275.225.5.5.5s.5-.225.5-.5-.225-.5-.5-.5-.5.225-.5.5m127-.122c0 .207.788.995 1.75 1.75 1.586 1.243 1.621 1.208.378-.378-1.307-1.666-2.128-2.195-2.128-1.372m98.679 16.372c8.205 14.316 13.531 22.489 12.191 18.706-.951-2.684-20.416-35.456-21.06-35.456-.401 0 3.59 7.537 8.869 16.75m-156.274-14.595c-.443.715-.275.883.44.44.635-.392 1.155-.911 1.155-1.154 0-.834-.883-.439-1.595.714M123 207c0 .733.3 1.033.667.667a.95.95 0 0 0 0-1.334c-.367-.366-.667-.066-.667.667m119-.723c0 .191 1.463 1.418 3.25 2.726 2.011 1.472 2.71 1.714 1.832.634-1.331-1.64-5.082-4.12-5.082-3.36m7-.027c0 1.92 4.822 9.309 5.851 8.966.666-.222 1.144-.024 1.062.44s-.097 2.571-.031 4.683l.118 3.839 6.002-.339c3.301-.187 6.001-.001 6 .411s2.361.716 5.248.674l5.25-.076-3.5-1.348c-1.925-.741-4.81-1.382-6.412-1.424-3.458-.09-11.891-4.776-11.049-6.139.323-.523-.111-1.219-.965-1.547s-2.907-2.438-4.563-4.69-3.011-3.804-3.011-3.45m3 .25c0 .275.225.5.5.5s.5-.225.5-.5-.225-.5-.5-.5-.5.225-.5.5M145.5 208c.34.55 1.068 1 1.618 1s.722-.45.382-1-1.068-1-1.618-1-.722.45-.382 1m82.5.436c-2.232.818-4.339.971-5.815.423-3.202-1.188-7.178-1.14-5.276.064.775.49 2.009.662 2.742.381s1.584.144 1.891.945 2.899 1.977 5.758 2.613c2.86.637 8.247 1.824 11.97 2.638 8.318 1.819 11.318 3.69 12.088 7.538.469 2.347 1.118 2.962 3.125 2.962 2.255 0 2.401-.213 1.325-1.935-.664-1.065-1.518-1.744-1.896-1.51-.379.234-1.976-2.146-3.55-5.288-4.755-9.491-12.366-12.497-22.362-8.831m67.427 4.307c1.61 1.78 3.148 3.016 3.417 2.747s.302-.603.073-.74-1.767-1.373-3.417-2.746l-3-2.497zm-127.459.778c-.807.837-4.326 3.609-7.818 6.16s-7.971 6.81-9.951 9.462c-2.123 2.844-3.878 4.376-4.275 3.734-1.346-2.178-1.648.807-.98 9.707 1.043 13.911 7.134 23.8 18.003 29.232 3.266 1.631 5.663 3.24 5.328 3.575s.415.609 1.665.609c1.663 0 2.111-.425 1.667-1.582-.334-.87-.607-1.796-.607-2.059 0-.262-.429-.212-.952.112-1.728 1.067-4.303-9.796-4.793-20.221-.393-8.368-.224-10.25.924-10.25.791 0 1.954-1.859 2.659-4.25.69-2.338 1.52-4.925 1.845-5.75.333-.846.204-1.142-.296-.679-.488.451-1.68 2.926-2.648 5.5-1.547 4.108-1.697 4.258-1.236 1.231.579-3.793 2.98-8.052 4.54-8.052.977 0 .938 1.029-.575 15.074-.421 3.905-.234 9.385.461 13.5 1.182 7.003 2.587 10.259 11.839 27.426 8.31 15.42 17.309 41.151 15.18 43.403-1.111 1.175.724 4.597 2.465 4.597.739 0 2.049-1.012 2.913-2.25s1.593-1.667 1.622-.955c.028.713-1.099 2.446-2.505 3.853-1.406 1.406-1.996 2.37-1.311 2.141.686-.228 2.088-1.543 3.118-2.922 1.548-2.074 1.674-2.94.727-5.018-1.674-3.673 1.005-9.638 5.006-11.148 2.88-1.088 4.102-2.701 2.045-2.701-2.307 0-6.239-19.293-8.56-42-.872-8.525-2.684-20.305-4.026-26.178-2.568-11.227-3.132-19.278-1.426-20.332 1.539-.951.006-2.712-1.769-2.031-1.853.711-11.273-1.901-16.217-4.496-4.358-2.288-10.369-7.254-7.616-6.292 1.322.462 1.691.307 1.191-.501-1.012-1.637-3.891-1.458-5.637.351M124 214.5c0 .275.225.5.5.5s.5-.225.5-.5-.225-.5-.5-.5-.5.225-.5.5m33.306 2.092-2.806 2.591 3.25-2.159c2.977-1.979 3.947-3.024 2.806-3.024-.245 0-1.707 1.166-3.25 2.592m26.694.239c.825.51 2.625 1.228 4 1.596 1.737.465 2.042.386 1-.258-.825-.51-2.625-1.228-4-1.596-1.737-.465-2.042-.386-1 .258m53.818.387c.533.533 1.805.793 2.826.576 1.375-.291 1.123-.543-.97-.969-1.825-.373-2.482-.233-1.856.393M125.232 220c0 1.925.206 2.713.457 1.75.252-.963.252-2.537 0-3.5-.251-.963-.457-.175-.457 1.75M178 217.393c0 .216.698.661 1.552.989.89.341 1.291.173.941-.393-.587-.951-2.493-1.406-2.493-.596m129.333.274a.95.95 0 0 0 1.334 0c.366-.367.066-.667-.667-.667s-1.033.3-.667.667m2.75.636c.23.166 1.767 1.093 3.417 2.059l3 1.757-2.361-2.06c-1.298-1.132-2.836-2.059-3.416-2.059s-.869.136-.64.303M182 219.5c0 .275.225.5.5.5s.5-.225.5-.5-.225-.5-.5-.5-.5.225-.5.5m9.333.167a.95.95 0 0 0 1.334 0c.366-.367.066-.667-.667-.667s-1.033.3-.667.667m98.072.488c-.443.715-.275.883.44.44 1.153-.712 1.548-1.595.714-1.595-.243 0-.762.52-1.154 1.155m2.456.812-2.361 1.966 4.295.034c5.793.045 9.205 3.345 9.205 8.904 0 2.216-.551 4.2-1.25 4.501-.687.297-.125.435 1.25.308s3.006-.548 3.624-.936c1.221-.767 1.228-8.557.009-10.528-.413-.669-.347-1.216.147-1.216 1.423 0 3.22 4.769 3.22 8.547 0 1.964-.503 3.453-1.167 3.453-.641 0-.959.207-.706.46.253.254 1.466.198 2.695-.124 1.634-.427 2.074-1.088 1.639-2.46-.329-1.035-.117-1.876.472-1.876.587 0 1.067-.477 1.067-1.059s-.433-.791-.963-.464c-.551.341-.871-.708-.75-2.454.193-2.764.336-2.884 1.539-1.285.803 1.066 1.136 3.243.845 5.512-.544 4.242.77 5.112 1.761 1.165 1.505-5.995-1.592-9.766-10.202-12.426-8.1-2.502-11.387-2.507-14.369-.022m-146.325 6.773c-3.673 4.322-7.624 9.411-8.779 11.309-2.728 4.484-1.195 2.922 4.465-4.549 2.501-3.3 6.221-7.715 8.269-9.81s3.498-4.035 3.223-4.309c-.274-.275-3.504 3.037-7.178 7.359M188 221.5c0 .275.225.5.5.5s.5-.225.5-.5-.225-.5-.5-.5-.5.225-.5.5m130.566 4c.387 1.1 1.042 3.575 1.454 5.5.737 3.44.751 3.448.83.5.043-1.65-.611-4.125-1.455-5.5-1.004-1.638-1.29-1.81-.829-.5m-117.843 1.452c-.281 1.074-.027 2.113.565 2.311s1.17 2.131 1.286 4.298c.115 2.166 1.208 8.584 2.428 14.262s1.969 11.574 1.663 13.104-.147 3.191.353 3.691c1.269 1.269 3.149 18.869 2.354 22.038-.494 1.968-.314 2.491.737 2.142.765-.255 1.555-1.312 1.756-2.349.498-2.568 5.162-8.551 6.177-7.923.451.279 1.145-.02 1.543-.664.452-.731.291-.903-.43-.457-.635.392-1.141.349-1.123-.096.043-1.104 2.943-4.87 3.511-4.559 1.458.798 1.695-.013.312-1.065-2.169-1.651-4.695-9.905-3.185-10.408.774-.258.801-1.524.091-4.322-.674-2.652-.673-4.368.002-5.206 1.179-1.464 2.818-8.58 1.738-7.55-.403.385-1.122 2.185-1.597 4-.804 3.071-.837 3.002-.474-.988.403-4.433 2.145-7.592 3.666-6.651.479.295.597 3.778.263 7.739-.822 9.748.834 16.873 6.754 29.061 5.01 10.311 10.172 28.196 11.482 39.781.59 5.207.48 5.693-1.224 5.445-1.547-.226-1.996-1.512-2.595-7.44-.398-3.942-1.154-8.625-1.679-10.407-.727-2.467-.794-1.809-.282 2.761.37 3.3.675 8.233.679 10.963.005 4.291-.332 5.135-2.494 6.235-1.933.984-2.089 1.276-.684 1.287.998.008 2.715-.466 3.814-1.054 1.424-.763 2.374-.758 3.307.017.72.598 1.971.833 2.78.522 2.13-.817 7.798 4.827 7.713 7.681-.086 2.864-1.737 7.09-1.895 4.849-.067-.947-.632-.579-1.535 1-1.713 2.996-1.956 2.095-.373-1.379.938-2.06.757-3.072-1.081-6.046-2.428-3.929-3.748-4.029-11.278-.859-2.827 1.19-4.343 2.798-6.25 6.624-1.385 2.779-2.518 5.864-2.518 6.856 0 1.9 1.943 2.409 3.55.929 1.184-1.09 15.394-4.277 16.373-3.672 1.01.624 7.077-3.202 7.077-4.463 0-1.181 4.856-3.416 6.75-3.107.688.113 1.25-.292 1.25-.898s.47-.813 1.044-.458 1.718.086 2.542-.599c1.135-.942 1.78-.962 2.656-.086.637.637 1.855 1.126 2.708 1.088 1.099-.05.968-.321-.45-.93-1.814-.78-1.761-.866.576-.93 1.603-.043 3.49.956 5 2.65 1.333 1.496 1.636 2.115.674 1.377-1.213-.93-1.75-.988-1.75-.188 0 2.084 3.118 2.405 6.715.69 1.943-.927 3.263-1.955 2.933-2.284-.33-.33-1.296-.022-2.148.685s-1.786 1.047-2.077.757c-.936-.937 6.298-4.801 7.863-4.201.831.319 1.809.1 2.172-.488.363-.587 2.843-1.068 5.512-1.068 4.205 0 5.202.416 7.478 3.12l2.625 3.12 6.214-2.762c9.32-4.144 23.713-11.429 23.713-12.002 0-.278-2.587.795-5.75 2.384s-8 3.901-10.75 5.138-6.671 3.094-8.714 4.127l-3.713 1.879-3.071-3.002c-2.197-2.148-4.041-3.002-6.477-3.002-1.874 0-3.682-.445-4.018-.989-.375-.606-1.558-.368-3.059.615-2.446 1.602-2.448 1.6-2.448-2.103 0-2.039-.788-4.7-1.75-5.914-1.456-1.835-2.335-2.085-5.225-1.488-1.912.395-3.894.46-4.405.144s-.627-.085-.258.512-.175 1.679-1.209 2.405-2.82 2.863-3.968 4.752c-2.247 3.697-4.706 4.757-5.604 2.415-.307-.799-.165-1.21.314-.914.48.297 1.43-.805 2.11-2.448.681-1.643 1.633-2.987 2.116-2.987s.879-.45.879-1c0-3.528-7.33 2.631-10.414 8.75-1.855 3.683-3.586 4.257-3.586 1.191 0-1.317.421-1.799 1.17-1.336.785.485.961.179.536-.929-.391-1.019-.169-1.561.58-1.414.668.131 1.113-.289.99-.934s1.128-2.619 2.779-4.387c3.302-3.535 3.11-5.157-.35-2.976-5.663 3.57-7.637 4.436-8.39 3.681-.448-.449.448-1.903 1.991-3.231 2.989-2.573 5.306-3.238 4.061-1.165-.504.839-.191.796.952-.132 1.602-1.299 1.598-1.461-.058-2.718-.969-.735-2.569-1.351-3.556-1.368-2.502-.045-7.024 4.693-6.295 6.594.324.845-.141 2.512-1.033 3.705-1.272 1.7-1.488 1.773-1 .337.343-1.007.623-2.972.623-4.365 0-1.649 1.306-3.729 3.741-5.96 2.35-2.152 3.333-3.69 2.644-4.135-1.973-1.274-2.391-7.366-2.536-37.04-.102-20.71.189-29.606.994-30.411.97-.97 3.85-1.92 4.303-1.419.08.089.418 15.06.75 33.268l.604 33.105 3.412 2.895c5.138 4.358 6.927 4.756 12.671 2.813 3.176-1.075 6.131-1.457 7.878-1.018 4.285 1.075 8.385 5.783 9.138 10.493.639 3.998.76 4.106 4.577 4.106 2.956 0 4.523.652 6.376 2.65l2.456 2.651 14.246-6.776c7.835-3.727 16.137-7.001 18.448-7.275 3.687-.438 4.576-.126 7.25 2.548 3.023 3.023 3.909 5.202 2.115 5.202-.513 0-1.218-.9-1.567-2.001-.35-1.101-1.617-2.512-2.818-3.136l-2.182-1.134 2.125 2.385c1.169 1.312 2.638 3.382 3.265 4.599.694 1.345 1.72 1.99 2.62 1.645.813-.312 1.231-.969.928-1.459s.642-1.434 2.101-2.099c2.433-1.108 2.594-1.541 1.958-5.254-1.859-10.855-2.285-18.863-1.47-27.615 1.062-11.396 5.425-26.355 7.459-25.575 1.393.535 2.977-1.964 1.72-2.713-.708-.422-35.06-11.508-68.706-22.172-9.9-3.138-18.331-6.215-18.735-6.838-.536-.827-.739-.811-.75.058-.023 1.819 1.402 2.432 16.485 7.092 21.368 6.601 64.629 20.316 67.355 21.352 1.332.507 2.179 1.165 1.881 1.462-.298.298-11.048-2.833-23.889-6.958-60.167-19.328-57.471-18.621-69.024-18.084-6.903.321-9.66.166-8.323-.467 1.824-.864 1.766-.954-.667-1.018-1.466-.038-2.843.459-3.058 1.106-.216.647-2.166 1.762-4.334 2.478-2.7.892-2.996 1.129-.941.753 2.067-.378 2.683-.225 1.982.49-.56.572-4.82 1.464-9.467 1.984-11.064 1.238-15.015-.565-15.015-6.851 0-1.264-1.023-1.999-3.399-2.445-4.29-.805-8.601-4.142-8.601-6.658 0-1.06-.477-1.927-1.059-1.927s-.734.526-.336 1.17c.48.776.187.964-.87.559-.876-.337-3.196-.912-5.155-1.28s-3.315-1.069-3.012-1.559c.302-.489-.099-.89-.892-.89-.794 0-1.672.878-1.953 1.952M125.148 229c-.094 1.925-.836 5.975-1.648 9s-1.482 6.885-1.488 8.578-1.179 5.949-2.605 9.458c-1.772 4.362-2.704 8.769-2.945 13.923l-.353 7.541.84-7c.461-3.85 2.012-10.091 3.445-13.869s2.606-8.129 2.606-9.669.703-5.544 1.562-8.898 1.381-7.552 1.16-9.331l-.402-3.233zm145.602-1.338c.688.278 1.813.278 2.5 0 .688-.277.125-.504-1.25-.504s-1.937.227-1.25.504m-134.626 3.706c-1.779 1.894-1.951 2.43-.72 2.249 2.145-.315 3.914-2.162 3.439-3.589-.225-.674-1.345-.123-2.719 1.34m.281.787c-.443.715-.275.883.44.44.635-.392 1.155-.911 1.155-1.154 0-.834-.883-.439-1.595.714m49.208-.337c-.697 1.127 3.142 4.76 4.06 3.843.363-.364.109-.661-.565-.661s-.979-.399-.678-.887c.301-.487-.082-1.409-.852-2.048-.801-.665-1.642-.771-1.965-.247M236 231.5c0 .275.225.5.5.5s.5-.225.5-.5-.225-.5-.5-.5-.5.225-.5.5m11 0c0 .275.225.5.5.5s.5-.225.5-.5-.225-.5-.5-.5-.5.225-.5.5m-60.5 1.5c.34.55.843 1 1.118 1s.222-.45-.118-1-.843-1-1.118-1-.222.45.118 1m50.5.5c0 .275.225.5.5.5s.5-.225.5-.5-.225-.5-.5-.5-.5.225-.5.5m68.564 1.207c-.542 1.425-.428 1.54.56.56.684-.679.991-1.486.683-1.793-.308-.308-.867.247-1.243 1.233m-79.544.817c.696.838 1.471 1.318 1.723 1.067.693-.694-.716-2.591-1.924-2.591-.664 0-.588.574.201 1.524M248 235c0 .733.3 1.033.667.667a.95.95 0 0 0 0-1.334c-.367-.366-.667-.066-.667.667m-114 .5c0 .275.225.5.5.5s.5-.225.5-.5-.225-.5-.5-.5-.5.225-.5.5m184.564 1.207c-.542 1.425-.428 1.54.56.56.684-.679.991-1.486.683-1.793-.308-.308-.867.247-1.243 1.233m-187.455.662c-1.447 1.743-.102 2.863 1.93 1.607 1.038-.641 1.139-1.198.36-1.977-.778-.778-1.423-.674-2.29.37m.296.786c-.443.715-.275.883.44.44.635-.392 1.155-.911 1.155-1.154 0-.834-.883-.439-1.595.714m8.061 2.095c-.985 3.311-9.784 20.765-10.239 20.31-.214-.214.099-1.3.695-2.414.725-1.356.748-2.232.069-2.652-.566-.349-1.287.738-1.632 2.461-.796 3.978-1.884 4.656-1.775 1.105.078-2.522 3.37-8.755 3.451-6.533.063 1.705 2.893-3.95 2.93-5.852.032-1.678-.307-1.634-4.215.548-3.7 2.065-4.231 2.786-4.103 5.57.092 2.011-.243 2.956-.905 2.548-.578-.358-.792-.231-.475.282s-.274 3.395-1.313 6.405c-3.569 10.34-1.645 20.633 5.341 28.57 4.057 4.609 12.047 9.402 15.672 9.402 1.14 0 2.033.658 2.033 1.5 0 1.125 1.188 1.496 4.75 1.485 2.613-.009 5.332-.385 6.043-.836.735-.466-1.208-.699-4.5-.539l-5.793.281 6.789-.945c9.867-1.374 15.707-4.76 21.468-12.446q2.246-2.997 1.623-1c-.556 1.774-.436 1.746 1.055-.252 1.625-2.176 1.319-4.832-.432-3.75-.949.587-2.534-3.273-2.155-5.248.132-.687-.455-1.25-1.304-1.25s-1.544.402-1.544.894c0 .516-1.796.492-4.25-.057-12.119-2.711-22.295-14.083-25.761-28.788-.955-4.053-.99-5.549-.137-5.833 1.366-.455 1.562-5.216.215-5.216-.513 0-1.233 1.012-1.601 2.25m153.867-1.583a.95.95 0 0 0 1.334 0c.366-.367.066-.667-.667-.667s-1.033.3-.667.667M164 239.5c0 .275.225.5.5.5s.5-.225.5-.5-.225-.5-.5-.5-.5.225-.5.5m57 2.5c0 .733.3 1.033.667.667a.95.95 0 0 0 0-1.334c-.367-.366-.667-.066-.667.667m169.75-.338c.688.278 1.813.278 2.5 0 .688-.277.125-.504-1.25-.504s-1.937.227-1.25.504M242 242.5c0 .275.225.5.5.5s.5-.225.5-.5-.225-.5-.5-.5-.5.225-.5.5m-113.667 1.167a.95.95 0 0 0 1.334 0c.366-.367.066-.667-.667-.667s-1.033.3-.667.667M231 243.5c0 .275.225.5.5.5s.5-.225.5-.5-.225-.5-.5-.5-.5.225-.5.5m6.75.162c.688.278 1.813.278 2.5 0 .688-.277.125-.504-1.25-.504s-1.937.227-1.25.504m167.849.164c-1.67.708-1.492.976 1.457 2.197 9.668 4.005 20.805 20.836 25.063 37.878 2.96 11.844 2.329 31.738-1.398 44.095-1.41 4.672-2.428 8.63-2.263 8.796s4.158-.257 8.872-.939l8.57-1.239 2.651-5.906c10.17-22.662 5.103-56.087-11.167-73.66-7.338-7.926-13.889-11.285-22.817-11.7-3.887-.181-7.922.034-8.968.478m-263.514 2.275c-.082 2.504 1.833 9.317 2.445 8.7.164-.166-.3-2.776-1.031-5.801-.798-3.304-1.363-4.461-1.414-2.899m24.26-.558c-.326.849-.369 1.767-.096 2.04.274.273.737-.422 1.03-1.543.624-2.383-.069-2.751-.934-.497m247.939-.522c8.503 1.346 14.181 4.253 20.054 10.27 10.641 10.898 16.655 27.598 16.64 46.209-.008 10.639-1.747 20.049-4.917 26.61-1.067 2.209-1.441 3.85-.831 3.647 1.853-.618 5.567-11.97 6.754-20.642 2.806-20.494-4.001-43.913-16.451-56.599-6.478-6.6-13.195-9.849-21.019-10.166l-6.014-.244zm-31.009 2.633c-8.954 3.17-18.285 14.256-22.684 26.948-8.513 24.562-3.392 55.168 12.118 72.419 8.897 9.896 22.944 13.23 33.733 8.007 9.961-4.822 18.055-16.131 22.208-31.028 2.557-9.174 2.558-33 .001-41.5-8.258-27.45-26.563-41.507-45.376-34.846m33.675 5.096c7.684 7.692 12.747 17.047 16.167 29.872 3.106 11.646 2.957 29.608-.35 42.273-1.455 5.575-1.922 8.669-1.147 7.61 5.086-6.955 6.611-37.61 2.578-51.796-3.325-11.696-8.473-21.066-15.569-28.34-3.418-3.503-6.712-6.369-7.319-6.369s1.931 3.037 5.64 6.75m-34.467-3.458c-15.18 7.262-24.513 26.3-24.612 50.208-.07 16.791 3.39 29.107 11.68 41.576 6.81 10.245 14.875 14.924 25.721 14.924 14.656 0 26.404-11.645 32.285-32 2.325-8.046 2.648-30.514.561-39-3.588-14.588-13.067-28.956-22.908-34.723-6.458-3.784-16.01-4.198-22.727-.985M128 248.5c0 .275.225.5.5.5s.5-.225.5-.5-.225-.5-.5-.5-.5.225-.5.5m259.332.409c-4.936 1.254-11.878 5.719-15.298 9.84-4.719 5.685-9.7 16.364-11.585 24.836-2.052 9.224-1.559 27.693.986 36.915 3.979 14.42 13.157 27.722 22.065 31.978 2.2 1.051 6.813 2.101 10.252 2.333 5.274.356 7.105.004 11.714-2.251 9.723-4.756 16.858-14.901 20.683-29.406 2.863-10.854 2.863-28.795.001-39.454-6.4-23.838-23.082-38.79-38.818-34.791M126 249.5c0 .275.225.5.5.5s.5-.225.5-.5-.225-.5-.5-.5-.5.225-.5.5m4 .5c0 .733.3 1.033.667.667a.95.95 0 0 0 0-1.334c-.367-.366-.667-.066-.667.667m81.633 8.386c-3.389 2.901-3.64 3.398-2.028 4.016 1.572.603 1.625.854.367 1.728-1.287.894-1.283.971.028.613.825-.225 1.5-1.047 1.5-1.826s.525-1.417 1.167-1.417c.641 0 1.449-.282 1.794-.627.63-.63 1.813-5.906 1.309-5.835-.149.02-2.01 1.527-4.137 3.348M127 256.5c0 .275.225.5.5.5s.5-.225.5-.5-.225-.5-.5-.5-.5.225-.5.5m18.059-.215c-.075 1.005 2.524 5.149 6.347 10.116 2.85 3.704 10.83 9.599 12.993 9.599.555 0-1.336-1.478-4.201-3.285-4.488-2.829-9.438-8.293-13.889-15.332-.655-1.035-1.218-1.53-1.25-1.098M255 256.5c0 .275.225.5.5.5s.5-.225.5-.5-.225-.5-.5-.5-.5.225-.5.5m-43.595 3.655-1.905 2.155 2.75-1.77c2.836-1.825 3.372-2.54 1.905-2.54-.465 0-1.702.97-2.75 2.155m172.095.716c-12.715 5.808-20.622 24.014-19.14 44.071 1.333 18.047 9.163 32.793 20.158 37.962 22.554 10.601 42.972-22.208 34.481-55.408-5.525-21.603-21.032-33.233-35.499-26.625m2 .62c-5.622 1.972-13.769 10.938-16.45 18.106-2.231 5.961-4.609 20.415-3.723 22.622.283.704.566-.069.629-1.719.262-6.903 3.009-18.555 5.644-23.935 3.431-7.008 9.82-12.863 15.89-14.562 16.211-4.539 30.98 15.362 30.796 41.497-.177 25.018-13.348 42.323-29.3 38.497-9.047-2.171-16.927-11.994-20.44-25.48-1.697-6.516-2.918-8.713-1.914-3.444 2.86 15.002 13.342 28.733 23.207 30.4 11.681 1.973 21.932-7.08 27.712-24.473 2.775-8.35 2.58-24.389-.406-33.5-1.262-3.85-3.379-8.868-4.704-11.151-4.568-7.87-14.273-14.463-21.057-14.305-1.036.024-3.684.675-5.884 1.447M128 263c0 .733.3 1.033.667.667a.95.95 0 0 0 0-1.334c-.367-.366-.667-.066-.667.667m-2 .5c0 .275.225.5.5.5s.5-.225.5-.5-.225-.5-.5-.5-.5.225-.5.5m42 1c0 .275.225.5.5.5s.5-.225.5-.5-.225-.5-.5-.5-.5.225-.5.5m87.195 2c.02 1.65.244 2.204.498 1.231s.237-2.323-.037-3-.481.119-.461 1.769m128.952-.344c-5.555 2.75-10.415 9.401-13.218 18.088-1.884 5.839-2.112 8.322-1.698 18.5.537 13.232 2.626 20.291 8.145 27.527 3.232 4.237 8.98 8.767 11.022 8.685.606-.025-.531-.907-2.527-1.962-10.409-5.501-16.594-21.393-15.644-40.199.56-11.079 3.345-19.209 8.558-24.978 4.312-4.773 6.122-5.792 12.087-6.8 4.263-.72 4.352-.791 1.128-.899-1.925-.064-5.459.853-7.853 2.038M127 265.5c0 .275.225.5.5.5s.5-.225.5-.5-.225-.5-.5-.5-.5.225-.5.5m272.5 1.92c6.717 4.031 11.251 11.638 13.877 23.277 2.022 8.967 2.049 15.146.106 24.383-2.369 11.262-7.048 18.741-13.983 22.347-1.65.859-2.293 1.563-1.43 1.567 2.6.01 9.317-6.452 12.185-11.722 3.37-6.192 5.716-15.954 5.713-23.772-.007-15.754-7.256-32.495-16.037-37.036-4.517-2.335-4.814-1.675-.431.956m-214.013 5.067c.163 3.646.562 6.895.886 7.219.325.325.438-2.411.253-6.08-.186-3.669-.584-6.918-.886-7.22s-.416 2.435-.253 6.081m199.8-4.4c-4.804 2.378-9.262 8.43-11.979 16.264-2.772 7.989-2.494 25.096.551 33.951 4.406 12.813 13.351 20.687 21.72 19.117 11.475-2.153 20.366-23.483 17.435-41.829-2.214-13.863-8.015-24.325-15.326-27.645-5.361-2.434-7.241-2.412-12.401.142m-26.663 1.452c-.965 2.514-.681 3.163.498 1.136.584-1.004.851-2.036.593-2.293-.257-.258-.749.263-1.091 1.157m-121.941 5.368c.504 5.091.37 6.244-.654 5.611-.818-.506-1.141-.353-.884.418.223.668.844 1.186 1.38 1.152 1.358-.086 1.805-9.693.552-11.834-.739-1.26-.849.05-.394 4.653m-49.269 1.213c.06 4.628.439 6.485 1.26 6.172.761-.29.968-1.742.588-4.12-1.244-7.781-1.933-8.546-1.848-2.052m47.665-.537c.048 1.165.285 1.402.604.605.289-.722.253-1.585-.079-1.917s-.568.258-.525 1.312m-12.162.608c-.046.17-.194 1.299-.33 2.509-.283 2.534-4.52 8.949-8.186 12.393-2.227 2.092-2.428 2.136-1.769.383s.553-1.822-.945-.604c-1.738 1.414-2.417 4.697-.759 3.672 1.033-.638 1.148-.296 3.647 10.796 1.367 6.066 2.236 8.021 3.845 8.643 1.144.443 3.205 2.021 4.58 3.508 3.141 3.397 9.252 6.589 10.791 5.638 2.676-1.653-2.738-29.188-7.764-39.486-1.035-2.121-1.659-4.438-1.386-5.149.272-.71.015-1.589-.573-1.952-.587-.363-1.105-.521-1.151-.351M356 277c0 .733.3 1.033.667.667a.95.95 0 0 0 0-1.334c-.367-.366-.667-.066-.667.667m-239 3c0 .733.3 1.033.667.667a.95.95 0 0 0 0-1.334c-.367-.366-.667-.066-.667.667m98.807 1.75c-1.908 2.222-3.07 4.25-2.434 4.25.27 0 1.452-1.35 2.627-3 2.33-3.272 2.21-4.048-.193-1.25m139.272-.167c.048 1.165.285 1.402.604.605.289-.722.253-1.585-.079-1.917s-.568.258-.525 1.312m-99.736 6.917c.003 4.4.179 6.076.39 3.724s.209-5.952-.006-8-.388-.124-.384 4.276m-28.343-6c0 .275.225.5.5.5s.5-.225.5-.5-.225-.5-.5-.5-.5.225-.5.5m-39 2c0 .275.225.5.5.5s.5-.225.5-.5-.225-.5-.5-.5-.5.225-.5.5m-67 1c0 .275.225.5.5.5s.5-.225.5-.5-.225-.5-.5-.5-.5.225-.5.5m233.195 2c.02 1.65.244 2.204.498 1.231s.237-2.323-.037-3-.481.119-.461 1.769m-231.403 1c.57 1.1 2.537 3.349 4.372 4.998l3.336 2.998-3.497-3.998-4.373-4.998c-.481-.55-.408-.1.162 1m91.613-.345c-.443.715-.275.883.44.44.635-.392 1.155-.911 1.155-1.154 0-.834-.883-.439-1.595.714m-177.911 1.851c-.998 1.104-1.518 2.304-1.155 2.667.364.363.661.15.661-.474s1.237-1.806 2.75-2.627c1.688-.916 2.134-1.507 1.155-1.532-.877-.022-2.412.863-3.411 1.966M59 289c.825.533 2.175.945 3 .914.989-.036.819-.347-.5-.914-2.749-1.181-4.328-1.181-2.5 0m118.628 1.752c-.783 1.514-2.482 3.652-3.776 4.75L171.5 297.5l1.972-2.5c1.084-1.375-.058-.587-2.538 1.75s-4.969 4.25-5.531 4.25-1.894.676-2.962 1.502c-1.912 1.481-1.911 1.494.059.925l2-.578-2 1.293c-4.872 3.151-30.552.565-29.762-2.997.136-.613-.47-.801-1.414-.439-.929.357-1.396.22-1.067-.313.322-.521-.729-1.701-2.336-2.623-3.098-1.778-4.144-.656-1.171 1.256 1.634 1.051 1.629 1.087-.082.55-1.007-.317-2.271-.576-2.809-.576-.537 0-.699-.45-.359-1s-.028-1-.818-1c-1.118 0-1.32 1.032-.912 4.65.412 3.654.245 4.477-.778 3.845-.84-.519-1.058-.411-.614.307.377.611 1.298.876 2.047.589.748-.288 5.121.62 9.718 2.016s9.932 2.96 11.857 3.475c2.179.584 2.745.998 1.5 1.098l-2 .161 2 .859c1.1.473 4.25.82 7 .773l5-.087-5-.686-5-.686 5.185-.157c2.852-.086 11.068-1.104 18.259-2.26 7.191-1.157 13.746-1.846 14.565-1.532 2.504.961 1.761 3.635-1.009 3.635-1.496 0-2.5.572-2.5 1.423 0 1.217.435 1.207 2.987-.067 1.643-.819 3.52-1.161 4.17-.759.834.515.963.166.439-1.183-.409-1.053-.823-2.362-.92-2.91s-.758-1.457-1.47-2.019c-.711-.562-1.434-2.364-1.606-4.003-.232-2.209-.897-3.069-2.567-3.316-1.426-.211-2.009.064-1.585.75.405.655-.243 1.103-1.639 1.132-1.27.026-4.743.259-7.717.518l-5.409.471 2.424-1.907c3.099-2.437 9.599-4.242 12.582-3.493 1.374.345 2.311.13 2.311-.529 0-.609-.438-1.108-.974-1.108-1.32 0-3.862-5.191-3.305-6.75.834-2.337-.663-1.262-2.093 1.502m-127.089-.688c.445.718-.483.85-2.858.404-1.934-.363-4.341-.198-5.349.366-1.662.93-1.565 1.127 1.05 2.121 1.585.603 3.835.83 5 .505 1.369-.382 1.675-.281.864.286-1.478 1.034 27.033 9.817 28.641 8.824 1.048-.648 19.42 4.456 18.685 5.191-.225.225-4.317-.782-9.094-2.239s-8.938-2.396-9.248-2.086-.258.564.115.564c.374 0 8.371 2.265 17.771 5.034 9.978 2.939 17.986 4.785 19.238 4.435 1.768-.494 1.882-.398.646.546-1.193.912-.886 1.022 1.5.536 2.32-.473 2.66-.364 1.5.479-1.155.841-.782.951 1.626.478 2.151-.421 3.611-.128 4.679.94 1.99 1.99 3.695 1.987 3.695-.007 0-.857-.45-1.281-1-.941s-1 .179-1-.358.53-1.152 1.177-1.368c.69-.23.845-.929.375-1.69-.596-.964-.987-.998-1.522-.133-.898 1.453-6.03.314-6.03-1.338 0-.663-9.433-3.932-21.75-7.538-23.109-6.765-27.887-7.981-22.25-5.665 5.687 2.336 2.18 1.768-8-1.297-5.809-1.749-8.723-3.034-7.5-3.309 1.1-.246.046-.422-2.341-.391-3.016.04-4.729-.472-5.61-1.678-1.353-1.849-4.119-2.466-3.01-.671M55 290.5c0 .275.225.5.5.5s.5-.225.5-.5-.225-.5-.5-.5-.5.225-.5.5m10.5.5c1.1.473 2.675.859 3.5.859.945 0 .761-.317-.5-.859-1.1-.473-2.675-.859-3.5-.859-.945 0-.761.317.5.859m7 2c1.1.473 2.675.859 3.5.859.945 0 .761-.317-.5-.859-1.1-.473-2.675-.859-3.5-.859-.945 0-.761.317.5.859m-8.167.667a.95.95 0 0 0 1.334 0c.366-.367.066-.667-.667-.667s-1.033.3-.667.667M353 293.5c0 .275.225.5.5.5s.5-.225.5-.5-.225-.5-.5-.5-.5.225-.5.5m-315 2.559c0 1.132.45 1.781 1 1.441.614-.38.949 1.044.868 3.691l-.131 4.309L39 302l-.737-3.5-.131 3.628c-.085 2.325.475 4.12 1.56 5 1.401 1.136 1.552 1.139.875.015-.607-1.008-.335-1.208 1.058-.778 1.031.319 12.225 3.707 24.875 7.531s37.85 11.669 56 17.435 40.425 12.801 49.5 15.633 17.75 5.555 19.279 6.051l2.779.901-.663-5.208c-.365-2.864-1.011-5.883-1.436-6.708s-4.527-2.567-9.116-3.87c-9.638-2.739-76.728-22.662-110.065-32.686-12.498-3.758-22.548-7.007-22.335-7.22s8.134 1.916 17.601 4.732c9.468 2.815 17.386 4.947 17.597 4.736C86.154 307.18 41.977 294 39.747 294c-1.097 0-1.747.766-1.747 2.059m14.333-1.392a.95.95 0 0 0 1.334 0c.366-.367.066-.667-.667-.667s-1.033.3-.667.667M68.5 295c1.1.473 2.675.859 3.5.859.945 0 .761-.317-.5-.859-1.1-.473-2.675-.859-3.5-.859-.945 0-.761.317.5.859m15 1.153c8.169 2.659 32.796 9.847 33.738 9.847.419 0 .762-.765.762-1.7 0-1.213-.308-1.392-1.076-.624s-6.278-.455-19.25-4.273c-17.736-5.221-26.161-7.152-14.174-3.25m-28.167-.486a.95.95 0 0 0 1.334 0c.366-.367.066-.667-.667-.667s-1.033.3-.667.667M118 296c0 .733.3 1.033.667.667a.95.95 0 0 0 0-1.334c-.367-.366-.667-.066-.667.667m-73.5 1c1.1.473 2.675.859 3.5.859.945 0 .761-.317-.5-.859-1.1-.473-2.675-.859-3.5-.859-.945 0-.761.317.5.859m15 0c1.1.473 2.675.859 3.5.859.945 0 .761-.317-.5-.859-1.1-.473-2.675-.859-3.5-.859-.945 0-.761.317.5.859m105.242.914c-4.109 2.635-4.679 3.562-1.055 1.72 1.752-.891 3.466-2.073 3.809-2.627.801-1.297.562-1.218-2.754.907M353.31 301.5c.005 3.3.192 4.529.415 2.732s.218-4.497-.01-6c-.229-1.503-.411-.032-.405 3.268m-219.869-3.055c1.068.855 2.38 1.555 2.917 1.555 1.27 0 .703-.462-2.358-1.92-2.357-1.122-2.389-1.102-.559.365M69.5 300c2.75 1.015 5.675 1.845 6.5 1.845s-.75-.83-3.5-1.845-5.675-1.845-6.5-1.845.75.83 3.5 1.845m163.579-.417c.048 1.165.285 1.402.604.605.289-.722.253-1.585-.079-1.917s-.568.258-.525 1.312M82.5 300c1.1.473 2.675.859 3.5.859.945 0 .761-.317-.5-.859-1.1-.473-2.675-.859-3.5-.859-.945 0-.761.317.5.859m55.5.5c0 .275.225.5.5.5s.5-.225.5-.5-.225-.5-.5-.5-.5.225-.5.5m41 0c0 .275.225.5.5.5s.5-.225.5-.5-.225-.5-.5-.5-.5.225-.5.5m32 0c0 .275.225.5.5.5s.5-.225.5-.5-.225-.5-.5-.5-.5.225-.5.5m-122.667 1.167a.95.95 0 0 0 1.334 0c.366-.367.066-.667-.667-.667s-1.033.3-.667.667M134 301.5c0 .275.225.5.5.5s.5-.225.5-.5-.225-.5-.5-.5-.5.225-.5.5m-42.187 1.183c.721.289 1.584.253 1.916-.079s-.258-.568-1.312-.525c-1.165.048-1.402.285-.604.604M136 302.5c0 .275.225.5.5.5s.5-.225.5-.5-.225-.5-.5-.5-.5.225-.5.5m-40.667 1.167a.95.95 0 0 0 1.334 0c.366-.367.066-.667-.667-.667s-1.033.3-.667.667M101 305.5c1.925.741 4.175 1.348 5 1.348s-.075-.607-2-1.348-4.175-1.348-5-1.348.075.607 2 1.348m45-1c0 .275.225.5.5.5s.5-.225.5-.5-.225-.5-.5-.5-.5.225-.5.5m66.015 1.083c.009 1.054.472 2.592 1.031 3.417.741 1.095.834.691.344-1.5-.823-3.677-1.395-4.475-1.375-1.917M366 307c0 .733.3 1.033.667.667a.95.95 0 0 0 0-1.334c-.367-.366-.667-.066-.667.667m-256.5 1c1.1.473 2.675.859 3.5.859.945 0 .761-.317-.5-.859-1.1-.473-2.675-.859-3.5-.859-.945 0-.761.317.5.859m14.5-.5c0 .275.225.5.5.5s.5-.225.5-.5-.225-.5-.5-.5-.5.225-.5.5M36.5 309c.34.55.843 1 1.118 1s.222-.45-.118-1-.843-1-1.118-1-.222.45.118 1m5.833-.333a.95.95 0 0 0 1.334 0c.366-.367.066-.667-.667-.667s-1.033.3-.667.667M95 311.027c4.675 1.55 9.175 2.811 10 2.802s-2.55-1.317-7.5-2.907-9.45-2.851-10-2.802 2.825 1.357 7.5 2.907M99.5 309c1.1.473 2.675.859 3.5.859.945 0 .761-.317-.5-.859-1.1-.473-2.675-.859-3.5-.859-.945 0-.761.317.5.859m28 0c1.1.473 2.675.859 3.5.859.945 0 .761-.317-.5-.859-1.1-.473-2.675-.859-3.5-.859-.945 0-.761.317.5.859m226.145 2c.791 4.313 1.36 5.126 1.34 1.917-.009-1.33-.458-3.092-.999-3.917-.692-1.055-.793-.462-.341 2m-238.312-1.333a.95.95 0 0 0 1.334 0c.366-.367.066-.667-.667-.667s-1.033.3-.667.667m141.667.181c0 .505.9 1.154 2 1.442 1.1.287 2 .356 2 .152 0-.205-.9-.853-2-1.442-1.105-.591-2-.659-2-.152m-217.125 1.054c1.148.727.933 3.407-1.307 16.234-1.475 8.45-3.111 17.004-3.635 19.008-1.015 3.881-1.519 4.148-10.195 5.4-2.62.378-5.02 1.103-5.334 1.611-.333.539.554.643 2.124.249 1.482-.372 5.196-1.178 8.252-1.79l5.557-1.114 1.214-6c3.115-15.389 5.62-31.611 5.093-32.984-.32-.834-1.158-1.509-1.863-1.501-.972.012-.949.226.094.887m65.458-.235a.95.95 0 0 0 1.334 0c.366-.367.066-.667-.667-.667s-1.033.3-.667.667M109.5 312c1.1.473 2.675.859 3.5.859.945 0 .761-.317-.5-.859-1.1-.473-2.675-.859-3.5-.859-.945 0-.761.317.5.859m141.254.118c-.951.532-2.255 1.95-2.898 3.151-1.604 2.997-2.858 8.85-1.749 8.165.491-.304.893-1.685.893-3.07 0-1.473 1.264-3.782 3.045-5.563 3.253-3.252 3.518-4.255.709-2.683M44.621 313.75c-.716 2.436-3.274 15.456-4.567 23.25-2.414 14.541-2.55 13.009 1.151 12.93 2.581-.055 2.874-.235 1.35-.832-1.456-.569-.401-1.065 4.19-1.968l6.136-1.207 1.672-7.712c.92-4.241 2.282-10.404 3.026-13.695s1.031-6.274.637-6.627c-.394-.354-3.082-1.411-5.974-2.349s-5.002-2.119-4.691-2.623c.312-.504-.104-.917-.925-.917-.82 0-1.723.788-2.005 1.75m86.792-.384c-1.731 4.51 2.602 8.717 7.172 6.963 1.255-.482 1.522-.311.954.608-.573.927-.261 1.109 1.138.665 1.06-.336 2.804.051 3.875.862 2.994 2.263 3.595 1.854 3.258-2.214-.241-2.918-.696-3.685-2.049-3.459-2.577.432-10.005-1.749-11.99-3.52-1.562-1.394-1.79-1.385-2.358.095m9.92-.699a.95.95 0 0 0 1.334 0c.366-.367.066-.667-.667-.667s-1.033.3-.667.667M50 313.5c0 .275.225.5.5.5s.5-.225.5-.5-.225-.5-.5-.5-.5.225-.5.5m10.5.5c2.749 1.181 4.328 1.181 2.5 0-.825-.533-2.175-.945-3-.914-.989.036-.819.347.5.914m154.084.359c.347.902 1.332 1.641 2.19 1.641s1.372-.127 1.143-.283a91 91 0 0 1-2.19-1.641c-1.543-1.183-1.691-1.146-1.143.283m-161.251.308a.95.95 0 0 0 1.334 0c.366-.367.066-.667-.667-.667s-1.033.3-.667.667M114 316.496c4.125 1.356 7.95 2.442 8.5 2.412 1.574-.085-8.813-3.615-12.596-4.28-1.872-.329-.029.511 4.096 1.868m59-1.996c0 .275.225.5.5.5s.5-.225.5-.5-.225-.5-.5-.5-.5.225-.5.5m4.594.348c-.746 1.207-20.877 3.549-23.928 2.783-2.513-.631-4.561.698-2.776 1.801.507.313.673 1.523.368 2.688-.509 1.948-.24 2.077 3.344 1.601 2.144-.284 5.698-1.011 7.898-1.615s6.81-1.139 10.245-1.189 6.498-.502 6.809-1.004.087-.913-.495-.913-1.059-.675-1.059-1.5.45-1.5 1-1.5 1-.45 1-1c0-1.218-1.681-1.325-2.406-.152M263.5 315c.34.55.843 1 1.118 1s.222-.45-.118-1-.843-1-1.118-1-.222.45.118 1m13.25-.338c.688.278 1.813.278 2.5 0 .688-.277.125-.504-1.25-.504s-1.937.227-1.25.504m7.034.843c2.021.878 3.833 2.69 4.711 4.711.886 2.039 1.442 2.591 1.466 1.457.021-1.005-1.276-3.142-2.884-4.75s-3.745-2.905-4.75-2.884c-1.134.024-.582.58 1.457 1.466m-240.025 7.532c-3.179 16.819-3.957 21.87-3.553 23.081.226.678.974-2.109 1.663-6.193a762 762 0 0 1 2.764-15.208c.832-4.28 1.335-8.313 1.119-8.962-.217-.649-1.114 2.628-1.993 7.282m14.264-6.22 2.244 1.818-2.88 12.929c-1.735 7.79-3.577 13.626-4.633 14.682-1.472 1.472-1.509 1.754-.229 1.754 1.994 0 2.754-2.172 6.101-17.446 2.735-12.482 2.755-12.802.895-14.162-2.816-2.059-4.112-1.691-1.498.425M165 315.5c0 .275.225.5.5.5s.5-.225.5-.5-.225-.5-.5-.5-.5.225-.5.5m20 1.418c0 1.055-.264 2.607-.587 3.449-.424 1.104.342 1.776 2.75 2.413 3.952 1.046 4.382.4 2.84-4.271-1.287-3.9-5.003-5.082-5.003-1.591m89-1.418c0 .275.225.5.5.5s.5-.225.5-.5-.225-.5-.5-.5-.5.225-.5.5m-204.667 1.167a.95.95 0 0 0 1.334 0c.366-.367.066-.667-.667-.667s-1.033.3-.667.667m53 0a.95.95 0 0 0 1.334 0c.366-.367.066-.667-.667-.667s-1.033.3-.667.667m146.681.747c.648.648 1.324.648 1.972 0 .647-.647.309-.985-.986-.985s-1.633.338-.986.985m-196.931-.044c.23.203 8.517 2.931 18.417 6.062s34.354 10.874 54.341 17.206 36.517 11.337 36.732 11.123-17.714-6.135-39.842-13.156c-22.127-7.021-46.5-14.755-54.163-17.185-12.736-4.041-16.618-5.056-15.485-4.05M191 317.5c0 .275.225.5.5.5s.5-.225.5-.5-.225-.5-.5-.5-.5.225-.5.5m48 .5c0 .733.3 1.033.667.667a.95.95 0 0 0 0-1.334c-.367-.366-.667-.066-.667.667m-175.89 3.25c-1.506 4.682-5.11 21.381-5.11 23.677 0 1.683.51 1.872 3.75 1.39 8.06-1.197 10.957-2.262 4.612-1.695-3.376.302-6.386.148-6.689-.341-.693-1.122 4.085-23.439 5.272-24.626.504-.504 4.218.234 8.72 1.733 4.313 1.437 8.29 2.578 8.838 2.537 1.305-.099-15.541-5.925-17.13-5.925-.67 0-1.688 1.462-2.263 3.25m145.345-.795c-2.71 2.709-3.272 7.294-1 8.166 1.18.453.976 1.281-1.083 4.394-3.088 4.665-5.078 5.561-7.496 3.373-1.711-1.549-1.879-1.544-2.501.077-.366.955-.217 2.029.332 2.386.991.644 2.485 11.125 2.338 16.399-.091 3.248.347 3.305 4.955.647 3.226-1.861 2.736-1.928-1.75-.238-3.138 1.182-.866-.36 4.5-3.056 2.887-1.45 5.25-2.248 5.25-1.773s-1.012 1.353-2.25 1.95c-1.238.596-1.737 1.115-1.111 1.152.627.038 2.202-.823 3.5-1.912 1.806-1.514 2.057-2.181 1.069-2.835-1.673-1.107-.284-7.696 2.681-12.722 2.4-4.066 2.602-4.885.959-3.869-.634.392-1.776-.143-2.543-1.191-.765-1.047-1.698-1.757-2.073-1.578s-.835-.133-1.021-.693c-.187-.56 1.486-2.227 3.718-3.703 3.334-2.207 4.326-2.463 5.564-1.435 1.237 1.027 1.507.961 1.507-.372 0-.892-.527-1.622-1.171-1.622s-2.004-.754-3.022-1.675c-1.721-1.557-2.092-1.559-5.291-.034-2.396 1.143-3.729 2.638-4.388 4.925-.81 2.806-.961 2.928-1.038.839-.051-1.386 1.074-3.661 2.597-5.25 3.301-3.445 2.181-3.764-1.232-.35m13.61-.776c.73 1.198 2.476 2.695 3.881 3.326s2.104.769 1.554.307c-.55-.463-2.297-1.96-3.881-3.327-2.643-2.279-2.772-2.304-1.554-.306M355 319c0 .733.3 1.033.667.667a.95.95 0 0 0 0-1.334c-.367-.366-.667-.066-.667.667m-222.508 3.104c4.945 1.596 9.4 2.765 9.9 2.599.983-.328-16.493-5.769-17.988-5.601-.497.056 3.142 1.407 8.088 3.002M136 319.5c0 .275.225.5.5.5s.5-.225.5-.5-.225-.5-.5-.5-.5.225-.5.5m10 .5c0 .733.3 1.033.667.667a.95.95 0 0 0 0-1.334c-.367-.366-.667-.066-.667.667m46.079.583c.048 1.165.285 1.402.604.605.289-.722.253-1.585-.079-1.917s-.568.258-.525 1.312m63.326-.428c-.443.715-.275.883.44.44.635-.392 1.155-.911 1.155-1.154 0-.834-.883-.439-1.595.714m16 0c-.443.715-.275.883.44.44.635-.392 1.155-.911 1.155-1.154 0-.834-.883-.439-1.595.714m-90.313 1.234c-1.398 1.685-1.092 1.897 5.184 3.594 2.626.71 5.015 1.68 5.309 2.154.806 1.305-1.209 1.055-8.477-1.053-10.204-2.958-13.487-3.506-12.621-2.105.507.821-.001 1.098-1.625.888-1.299-.168-2.994.088-3.767.568-1.014.631-1.182.515-.605-.419.628-1.015-.037-1.137-3.095-.565-3.862.721-5.115 1.261-4.312 1.859 1.838 1.368 32.923 10.69 35.647 10.69 1.6 0 1.677-2.698.093-3.226-.69-.23-.845-.929-.375-1.69.652-1.055.982-1.044 1.764.059.678.958.793.621.388-1.143-.315-1.375-.586-3.85-.602-5.5-.02-2.107-.289-2.589-.904-1.618-1.224 1.933-7.635.611-9.425-1.944-1.185-1.692-1.562-1.772-2.577-.549M253 321.5c0 .275.225.5.5.5s.5-.225.5-.5-.225-.5-.5-.5-.5.225-.5.5m4.029 1.461c-.809.512-1.211 1.191-.893 1.509s1.148-.108 1.844-.946c1.443-1.738 1.166-1.902-.951-.563m98.554-.095c-.431.697-.513 1.537-.183 1.867.895.895 1.871-.421 1.387-1.871-.338-1.016-.574-1.016-1.204.004m-27.382 3.432c-5.447 2.748-6.223 3.48-5.737 5.413.399 1.59.18 2.089-.758 1.73-.726-.279-10.247 3.793-21.157 9.048s-20.036 9.357-20.277 9.116c-.242-.242 8.598-4.826 19.645-10.188s19.929-9.904 19.74-10.094-9.527 4.095-20.751 9.52l-20.406 9.863-6.186 7.378c-3.402 4.058-6.037 7.526-5.855 7.708.719.719 57.541-26.278 57.541-27.338 0-.289-.788-.104-1.75.41-3.329 1.779-48.502 23.136-48.934 23.136-.239 0-.18-.412.131-.915s.063-1.082-.55-1.286c-.675-.225-.405-.951.681-1.836 1.613-1.313 1.729-1.284 1.141.287-.361.962-.442 1.75-.18 1.75.505 0 37.863-17.637 45.461-21.463 11.819-5.952 21.376-9.547 22.13-8.326.556.898.949.747 1.449-.556.389-1.015.133-2.302-.593-2.972-.991-.916-1.12-.901-.574.067.388.688.229 1.25-.353 1.25s-1.059-.675-1.059-1.5c0-2.357-4.351-1.814-11.522 1.437-3.563 1.616-6.478 2.748-6.478 2.517 0-1.006 10.86-5.883 14.5-6.512l4-.692-3.5-.065c-2.054-.038-6.102 1.248-9.799 3.113m-237.756.276c3.819 1.334 7.419 2.393 8 2.352.58-.041-2.07-1.166-5.89-2.5s-7.419-2.393-8-2.352c-.58.041 2.07 1.166 5.89 2.5M215 326.5c-1.864 1.375-3.052 2.5-2.641 2.5s2.403-1.125 4.426-2.5 3.212-2.5 2.641-2.5c-.57 0-2.562 1.125-4.426 2.5m-71-1.255c.747.785 32.084 10.005 32.521 9.567.207-.207-5.788-2.251-13.322-4.543-14.736-4.482-19.991-5.858-19.199-5.024m31.333.422a.95.95 0 0 0 1.334 0c.366-.367.066-.667-.667-.667s-1.033.3-.667.667M196 325.5c0 .275.225.5.5.5s.5-.225.5-.5-.225-.5-.5-.5-.5.225-.5.5m23.085 1.306c-3.777 2.036-4.996 4.927-1.984 4.705 1.03-.076 3.04-1.234 4.467-2.575 1.426-1.34 2.782-2.323 3.013-2.186s.443-.087.472-.5c.105-1.499-2.63-1.244-5.968.556m47.539-.267c-.965 2.514-.681 3.163.498 1.136.584-1.004.851-2.036.593-2.293-.257-.258-.749.263-1.091 1.157m-87.811.144c.721.289 1.584.253 1.916-.079s-.258-.568-1.312-.525c-1.165.048-1.402.285-.604.604M164 327.5c0 .275.225.5.5.5s.5-.225.5-.5-.225-.5-.5-.5-.5.225-.5.5m18.333.167a.95.95 0 0 0 1.334 0c.366-.367.066-.667-.667-.667s-1.033.3-.667.667m55 0a.95.95 0 0 0 1.334 0c.366-.367.066-.667-.667-.667s-1.033.3-.667.667m-70.52 1.016c.721.289 1.584.253 1.916-.079s-.258-.568-1.312-.525c-1.165.048-1.402.285-.604.604M186.5 329c1.1.473 2.675.859 3.5.859.945 0 .761-.317-.5-.859-1.1-.473-2.675-.859-3.5-.859-.945 0-.761.317.5.859m36.481 4.023c-2.313 2.762-4.756 6.888-5.43 9.169-.673 2.28-1.48 3.731-1.794 3.224-.791-1.28 1.691-8.148 3.908-10.809 1.009-1.212.621-.964-.862.551-3.239 3.309-5.893 10.979-4.015 11.605.667.222 1.212 1.041 1.212 1.82 0 1.858 2.009 1.8 4.777-.14 1.279-.895 2.223-2.607 2.223-4.032 0-1.361.672-4.084 1.493-6.049s1.264-3.946.984-4.399c-.28-.454.017-1.15.661-1.548.731-.452.903-.291.457.43-1.517 2.455.379 1 2.405-1.845 2.088-2.933 2.092-3 .161-3-1.146 0-3.739 2.107-6.18 5.023m131.519-4.067c-1.975.82-56.258 25.451-80.5 36.528-11.455 5.234-19 10.367-19 12.924 0 .559 1.332-.542 2.959-2.446s2.978-2.984 3-2.399c.052 1.358-5.42 6.643-6.136 5.927-.296-.296-1.116.158-1.823 1.01s-1.002 1.831-.657 2.176c.346.346 7.025-.634 14.843-2.178 12.244-2.417 14.813-2.646 18.529-1.652 6.391 1.71 8.417 1.463 15.942-1.943 3.764-1.704 17.399-7.82 30.301-13.591C359.323 351.071 367 347.3 367 346.098c0-1.411-9.1-18.104-9.832-18.035-.367.035-1.568.437-2.668.893m-254.167.711a.95.95 0 0 0 1.334 0c.366-.367.066-.667-.667-.667s-1.033.3-.667.667m69.754-.287c.875.935 17.193 5.693 18.282 5.33.516-.172-2.618-1.327-6.965-2.566l-9.904-2.823c-1.1-.313-1.736-.287-1.413.059m-66.754 1.287a.95.95 0 0 0 1.334 0c.366-.367.066-.667-.667-.667s-1.033.3-.667.667m132.913 1.325c-1.79 1.091-3.14 2.367-3 2.835s-1.209 2.088-2.996 3.601-3.25 3.248-3.25 3.857 1.463-.286 3.25-1.989 5-4.267 7.14-5.697 3.264-2.631 2.5-2.669c-.784-.04-.518-.445.61-.93q1.995-.858.5-.926c-.825-.037-2.964.826-4.754 1.918m10.958-.037c1.379 2.209 2.351 1.934 1.451-.412-.326-.849-1.06-1.543-1.632-1.543-.658 0-.592.717.181 1.955m63.296 18.139c-24.2 11.037-45.075 20.494-46.389 21.015-1.313.521-2.153 1.182-1.866 1.47.288.287 20.423-8.511 44.745-19.552 45.029-20.441 50.277-22.926 48.51-22.974-.55-.016-20.8 9.003-45 20.041M106 331.266c.746.839 55.121 17.946 55.58 17.487.217-.217-11.412-4.131-25.843-8.699-28.795-9.114-30.468-9.608-29.737-8.788m187 .234c0 .275.225.5.5.5s.5-.225.5-.5-.225-.5-.5-.5-.5.225-.5.5m2.59.645c.494.8-.159.979-2.168.595-2.585-.494-10.422 2.364-10.422 3.801 0 .275 1.844-.441 4.097-1.59 6.557-3.346 5.432-1.702-1.388 2.028-4.234 2.316-5.732 2.807-4.709 1.545 1.407-1.737 1.361-1.778-.75-.653-2.452 1.307-2.822 3.192-1.215 6.195 1.092 2.041 4.424 2.618 5.458.945.35-.566-.051-.734-.941-.393-.854.328-1.552.328-1.552 0 0-.875 16.119-8.832 16.705-8.246.274.274-2.585 2.08-6.353 4.014-3.769 1.934-6.503 3.538-6.077 3.565 1.577.1 14.725-7.011 14.725-7.964 0-1.317-3.723-4.987-5.059-4.987-.582 0-.741.515-.351 1.145M340 331.5c0 .275.225.5.5.5s.5-.225.5-.5-.225-.5-.5-.5-.5.225-.5.5m20.5 6.5c1.939 3.85 4.014 7 4.611 7s.105-1.462-1.092-3.25-2.886-4.937-3.75-7c-.865-2.062-1.96-3.75-2.433-3.75-.474 0 .725 3.15 2.664 7M237 332.5c0 .275.225.5.5.5s.5-.225.5-.5-.225-.5-.5-.5-.5.225-.5.5m-2.595 1.655c-.443.715-.275.883.44.44.635-.392 1.155-.911 1.155-1.154 0-.834-.883-.439-1.595.714M271 333.5c0 .275.225.5.5.5s.5-.225.5-.5-.225-.5-.5-.5-.5.225-.5.5m63 .5c-.825.533-1.05.969-.5.969s1.675-.436 2.5-.969 1.05-.969.5-.969-1.675.436-2.5.969m101.5-.273c-1.65.235-3.436.851-3.969 1.369-.955.928 1.657.62 9.469-1.117 3.34-.743 3.363-.776.5-.729-1.65.027-4.35.242-6 .477M298 334.5c0 .275.225.5.5.5s.5-.225.5-.5-.225-.5-.5-.5-.5.225-.5.5m-113.818 2.854c3.675 1.18 7.013 2.483 7.417 2.896.991 1.012 2.401.95 2.401-.104 0-.842-13.554-5.253-15.5-5.045-.55.058 2.007 1.072 5.682 2.253m6.151-1.687a.95.95 0 0 0 1.334 0c.366-.367.066-.667-.667-.667s-1.033.3-.667.667M224 335.5c0 .275.225.5.5.5s.5-.225.5-.5-.225-.5-.5-.5-.5.225-.5.5m7 0c0 .275.225.5.5.5s.5-.225.5-.5-.225-.5-.5-.5-.5.225-.5.5m28.5 1.367c-4.856 2.213-12.181 9.944-27.942 29.492-9.552 11.848-11.738 15.131-10.928 16.416.557.883 1.656 1.797 2.441 2.03.786.234.53-.265-.569-1.109-1.985-1.522-1.982-1.556.446-4.864 3.483-4.745 19.398-24.121 26.296-32.013 7.836-8.965 16.159-12.884 20.756-9.773 1.118.756.814.856-1.197.389-3.987-.924-9.577 1.315-14.415 5.775-3.896 3.592-31.479 36.811-32.189 38.767-.669 1.844 14.322 2.946 20.781 1.527 2.002-.439 6.605-5.208 16.945-17.554 12.608-15.053 16.847-19.665 14.432-15.7-2.107 3.458-27.876 33.343-29.257 33.93-1.437.61-1.431.687.06.75.913.038 4.556-3.418 8.094-7.68a4310 4310 0 0 1 15.09-18.034c5.234-6.218 8.65-11.159 8.641-12.5-.012-1.678-.231-1.876-.903-.815-.671 1.061-1.397.402-2.985-2.71-2.427-4.757-2.57-5.55-.847-4.674.688.35.188-.299-1.111-1.441-2.891-2.543-6.381-2.605-11.639-.209m68.5-.367c0 .275.225.5.5.5s.5-.225.5-.5-.225-.5-.5-.5-.5.225-.5.5m-105 1c0 .275.225.5.5.5s.5-.225.5-.5-.225-.5-.5-.5-.5.225-.5.5m211.513 1.839c-3.644.855-5.09 1.703-5.368 3.147-.759 3.942 10.565 94.57 11.998 96.014q.992.997 2.224-.667c.678-.917 2.933-1.986 5.012-2.376 2.08-.39 4.014-1.317 4.298-2.059.285-.742-2.004-19.023-5.087-40.624s-5.89-42.199-6.238-45.774c-1.084-11.149.442-6.088 2.116 7.02.877 6.864 2.952 21.705 4.611 32.98 5.014 34.067 5.416 37.278 5.419 43.25.002 5.403.634 6.964 1.954 4.827.482-.78-3.695-32.096-11.281-84.569-1.93-13.348-1.666-13.042-9.658-11.169M222 339.892c0 .674-.399.979-.887.678-.487-.301-1.442.122-2.122.941-.75.904-.828 1.489-.197 1.489.572 0 1.266-.562 1.544-1.25.277-.687.578-.125.669 1.25.159 2.406.198 2.389 1.046-.45.484-1.622.671-3.16.414-3.416-.257-.257-.467.084-.467.758m168.333-.225a.95.95 0 0 0 1.334 0c.366-.367.066-.667-.667-.667s-1.033.3-.667.667M273 340.5c0 .275.225.5.5.5s.5-.225.5-.5-.225-.5-.5-.5-.5.225-.5.5m159.5.5c-1.818.781-1.773.857.5.83 1.375-.016 3.625-.39 5-.83 2.438-.781 2.425-.801-.5-.83-1.65-.016-3.9.357-5 .83m-152.936 1.293c.376.986.935 1.541 1.243 1.233s.001-1.114-.683-1.793c-.988-.98-1.102-.865-.56.56M274 342.5c0 .275.225.5.5.5s.5-.225.5-.5-.225-.5-.5-.5-.5.225-.5.5m-198.263 1.222c1.844.23 3.888 1.332 4.75 2.563.832 1.188 1.513 1.642 1.513 1.009 0-2.218-3.172-4.293-6.321-4.134l-3.179.16zm341.763 6.671-7 7.189 4.736-.61c2.604-.335 5.079-.988 5.5-1.45.42-.462-.024-.558-.986-.213s-2.444.362-3.291.037c-1.201-.461-.599-1.548 2.722-4.918 4.319-4.382 5.891-4.362 5.704.072-.073 1.739-.169 1.699-.735-.306-.637-2.26-.719-2.233-4.15 1.4-1.925 2.039-2.825 3.476-2 3.194 5.403-1.848 6.229-1.968 5.505-.795-.581.938-.254.943 1.469.021 1.61-.862 2.056-1.776 1.634-3.35-.319-1.19-.587-3.402-.594-4.914s-.351-2.704-.764-2.648-3.9 3.337-7.75 7.291m12.5-7.047c0 2.148 4.588 41.01 7.545 63.91 1.9 14.716 3.455 27.455 3.455 28.309s.38 1.318.845 1.031.487-3.126.05-6.309c-1.877-13.678-6.031-46.351-8.351-65.685-1.378-11.494-2.74-21.131-3.025-21.417-.286-.285-.519-.213-.519.161m-355.211 3.502c.803.51-1.459 1.292-6 2.075-4.009.692-8.369 1.508-9.688 1.813-1.868.433-2.213.246-1.558-.84.691-1.147.565-1.172-.707-.143-1.542 1.248-16.27 4.586-24.836 5.629-3.245.395-3.803.306-2-.318 2.864-.991.639-1.342-2.75-.434-2.267.608-3.203 3.37-1.142 3.37.683 0 .868.96.481 2.5-.531 2.119-.281 2.498 1.642 2.485 1.486-.01 1.842-.287 1.032-.801-1.407-.894 45.991-9.408 48.026-8.627.926.356 1.311-.515 1.311-2.962 0-1.906-.329-3.263-.731-3.014-.402.248-1.013-.006-1.359-.565-.345-.559-1.164-1.009-1.819-1.001-.844.011-.816.254.098.833m165.175.608c.664.801.911 2.039.548 2.75-.363.712.048.42.914-.647 2.125-2.621 1.981-3.559-.548-3.559-1.745 0-1.908.259-.914 1.456M353 350.955c-5.775 2.657-21.587 9.857-35.137 16l-24.637 11.17-6.106-1.261c-5.476-1.131-7.345-1.022-18.126 1.055-6.612 1.274-12.227 2.648-12.478 3.055-.251.406 5.043-.373 11.764-1.731 11.085-2.24 12.829-2.354 18.774-1.233l6.555 1.237 23.945-10.747c13.17-5.911 28.896-12.97 34.946-15.687 10.207-4.585 14.315-6.905 11.95-6.751-.522.034-5.675 2.236-11.45 4.893M219 347.5c0 .275.225.5.5.5s.5-.225.5-.5-.225-.5-.5-.5-.5.225-.5.5m9 .968c-6.147 1.762-26 11.212-26 12.377 0 1.402 3.086 2.322 4.377 1.304 1.032-.813 12.183-2.05 22.307-2.474 3.129-.131 4.965-.923 7.276-3.137 1.736-1.663 2.853-3.582 2.548-4.376-.298-.779-.03-2.033.597-2.789 1.421-1.712.906-1.7-7.031.171-3.534.833-11.12 3.779-16.856 6.546s-10.652 4.81-10.922 4.539c-.812-.812 20.049-10.272 25.574-11.598 2.821-.677 5.13-1.411 5.13-1.631 0-.644-2.188-.31-7 1.068m-181.25.194c.688.278 1.813.278 2.5 0 .688-.277.125-.504-1.25-.504s-1.937.227-1.25.504m117.75 1.365c1.1.491 8.664 2.968 16.809 5.504 8.665 2.699 15.042 5.22 15.371 6.077.972 2.535 6.007 4.392 11.904 4.392 7.395 0 13.207 1.766 13.996 4.253.418 1.316.947 1.62 1.632.935.558-.558.737-1.461.4-2.007-1.179-1.908-10.017-4.181-16.255-4.181-5.597 0-6.673-.338-9.796-3.081-2.583-2.267-7.542-4.374-18.785-7.98-14.154-4.54-20.094-6.061-15.276-3.912m30.66 1.164c-.22 3.701-1.185 4.02-6.589 2.178-2.574-.876-4.883-1.39-5.132-1.142-.248.249 2.254 1.272 5.561 2.273s6.267 1.567 6.577 1.256.379-2.069.154-3.91c-.343-2.794-.437-2.902-.571-.655M364 353.146c-12.761 5.884-66.549 28.722-69.181 29.373-1.519.376-5.056-.027-8.162-.93-3.015-.877-6.083-1.372-6.819-1.102-5.133 1.888-40.71 7.839-47.338 7.918-13.113.156-17.556-3.993-12.484-11.657l2.149-3.248-2.577 3c-7.032 8.184.817 14.473 16.322 13.078 4.175-.375 16.14-2.373 26.59-4.44 17.709-3.501 19.306-3.663 23.5-2.383 2.475.755 6.075 1.172 8 .927s13.625-4.814 26-10.154l36.194-15.618c7.532-3.25 13.955-5.91 14.274-5.91s2.864 1.571 5.654 3.49c5.473 3.765 13.274 6.51 18.5 6.51 1.793 0 3.62.563 4.06 1.25.441.688 5.898 14.75 12.127 31.25 16.833 44.585 15.738 41.353 14.452 42.639-1.699 1.699-29.053 7.825-32.648 7.312-3.1-.442-3.099-.44.292.621 2.864.896 5.803.482 18.5-2.609 8.302-2.021 15.484-4.039 15.96-4.484s-2.725-10.178-7.118-21.644c-4.392-11.459-10.843-28.544-14.338-37.966l-6.353-17.131-5.528-.585c-7.908-.838-14.19-3.244-18.82-7.207-2.214-1.895-4.179-3.413-4.367-3.372s-3.266 1.423-6.841 3.072M40 352.5c0 .275.225.5.5.5s.5-.225.5-.5-.225-.5-.5-.5-.5.225-.5.5m195.174 1.814c-2.494 2.656-2.943 4.569-.619 2.641 1.519-1.261 3.871-4.955 3.154-4.955-.198 0-1.339 1.042-2.535 2.314m-220.128.131c-.66.795-1.001 2.482-.759 3.75.398 2.08.454 2.041.577-.395.075-1.485.923-3.159 1.886-3.72s1.243-1.033.622-1.05c-.62-.016-1.667.62-2.326 1.415m19.767-.762c.721.289 1.584.253 1.916-.079s-.258-.568-1.312-.525c-1.165.048-1.402.285-.604.604M80.732 355c-.942 1.1-1.283 2-.757 2s1.436-.9 2.025-2 .93-2 .757-2c-.172 0-1.083.9-2.025 2m195.673.25-1.905 2.25 2.25-1.905c2.114-1.79 2.705-2.595 1.905-2.595-.19 0-1.202 1.012-2.25 2.25m-207.655.412c.688.278 1.813.278 2.5 0 .688-.277.125-.504-1.25-.504s-1.937.227-1.25.504m-51.366 1.78c-.877 2.286.012 5.056 1.632 5.084.816.015 2.015.36 2.665.767 1.659 1.04 2.238-.387 1.234-3.043-.468-1.238-1.653-2.282-2.633-2.32-1.561-.062-1.534-.177.218-.93 1.898-.816 1.884-.863-.281-.93-1.255-.038-2.531.579-2.835 1.372m46.366-.78c.688.278 1.813.278 2.5 0 .688-.277.125-.504-1.25-.504s-1.937.227-1.25.504m-6 1c.688.278 1.813.278 2.5 0 .688-.277.125-.504-1.25-.504s-1.937.227-1.25.504m12.25.464C59.416 360.258 24.36 366 21.927 366c-1.462 0-3.841-.931-5.287-2.069-1.697-1.335-2.435-1.56-2.08-.635.704 1.833 4.795 3.704 8.101 3.704 4.36 0 54.264-8.678 55.256-9.609.64-.601-2.932-.269-7.917.735m355 .291c0 .779-.515 1.588-1.143 1.797-.847.283-.831.967.064 2.639.665 1.242 1.028 2.795.807 3.452s-.977-.546-1.681-2.674c-1.064-3.213-1.049-4.031.086-4.826 1.114-.78 1.09-.882-.133-.548-2.384.65-2.255 2.936.497 8.788 1.52 3.232 2.332 4.3 1.994 2.621-.396-1.962-.224-2.619.559-2.135.661.408.9 2 .577 3.834-.341 1.931.029 4.095.962 5.635 1.397 2.306 1.466 1.735.895-7.343-.34-5.414-.861-10.477-1.158-11.25-.701-1.827-2.326-1.82-2.326.01m-370.667.25a.95.95 0 0 0 1.334 0c.366-.367.066-.667-.667-.667s-1.033.3-.667.667m175 0a.95.95 0 0 0 1.334 0c.366-.367.066-.667-.667-.667s-1.033.3-.667.667m196.919 3.833c.011 2.2.216 2.982.455 1.738s.23-3.044-.02-4-.446.062-.435 2.262M18 360.5c0 .275.225.5.5.5s.5-.225.5-.5-.225-.5-.5-.5-.5.225-.5.5m22.75.162c.688.278 1.813.278 2.5 0 .688-.277.125-.504-1.25-.504s-1.937.227-1.25.504m365.75.239c-2.276.504-2.916 1.138-2.653 2.631.353 2.007 22.19 59.68 26.208 69.218 1.828 4.34 2.644 5.25 4.707 5.25 2.437 0 2.478-.123 1.761-5.25-.403-2.887-1.773-12.9-3.043-22.25-2.216-16.317-2.581-17.673-9.08-33.75L417.628 360l-4.064.118c-2.235.065-5.414.417-7.064.783m-371.75.761c.688.278 1.813.278 2.5 0 .688-.277.125-.504-1.25-.504s-1.937.227-1.25.504M230 362c-.825.533-3.187.976-5.25.985-2.062.008-3.75.465-3.75 1.015 0 .865 1.393 1.215 3.638.915.351-.047 1.002.502 1.446 1.221.444.718.944 1.094 1.112.835.167-.259 1.395-1.709 2.728-3.221 2.547-2.889 2.568-3.36.076-1.75m178 0-2.5.801h2.5c1.375 0 3.625-.361 5-.801l2.5-.801H413c-1.375 0-3.625.361-5 .801m-376 .5c0 .275.225.5.5.5s.5-.225.5-.5-.225-.5-.5-.5-.5.225-.5.5m384.928 1.75c12.056 30.868 12.077 30.937 14.025 45.75 1.049 7.975 2.223 16.873 2.609 19.772.386 2.9 1.086 5.51 1.555 5.8s.64-.732.379-2.272c-.813-4.806-3.386-24.513-4.022-30.8-.334-3.3-.996-6.9-1.472-8s-3.484-8.861-6.684-17.247-6.144-15.248-6.543-15.25c-.399-.001-.33 1.009.153 2.247m-11.492 1.25c6.53 17.874 24.751 64.917 25.987 67.093 1.502 2.647 1.591 2.683.986.407-.365-1.375-2.831-8.125-5.481-15s-8.255-21.5-12.457-32.5-8.118-20.45-8.703-21c-.74-.697-.841-.393-.332 1m-179.623 20.183c.721.289 1.584.253 1.916-.079s-.258-.568-1.312-.525c-1.165.048-1.402.285-.604.604M473 431.201c-6.875 1.662-13.277 3.707-14.226 4.544-2.403 2.118-19.497 6.053-23.929 5.508-3.447-.424-28.868 4.907-31.677 6.643-.928.574-.981 1.467-.207 3.502.572 1.503 1.039 4.278 1.039 6.167 0 2.174.483 3.435 1.317 3.435 1.89 0 84.738-20.841 87.433-21.994 3.146-1.346 3.163-7.253.027-9.449-2.967-2.079-5.117-1.9-19.777 1.644m0 1.299c-6.875 1.821-11.686 3.354-10.692 3.406.995.052 7.186-1.264 13.759-2.923 13.718-3.463 16.933-3.262 16.933 1.058 0 1.838-.611 2.994-1.75 3.31-.962.268-20.2 5.082-42.75 10.698s-41.45 10.653-42 11.193c-.658.647-.316.784 1 .402 1.1-.319 20.225-5.146 42.5-10.725 22.275-5.58 41.288-10.56 42.25-11.067 2.437-1.284 2.314-6.48-.184-7.817-2.827-1.513-5.217-1.204-19.066 2.465m-15 5.5c-.901.582-1.025.975-.309.985.655.008 1.469-.435 1.809-.985.767-1.242.421-1.242-1.5 0m-4.187 1.683c.721.289 1.584.253 1.916-.079s-.258-.568-1.312-.525c-1.165.048-1.402.285-.604.604m-4 1c.721.289 1.584.253 1.916-.079s-.258-.568-1.312-.525c-1.165.048-1.402.285-.604.604M442 441.972c-1.375.425-4.355.552-6.622.282-4.035-.48-32.177 5.646-29.711 6.468.604.202 6.439-.976 12.966-2.618 7.438-1.87 14.293-2.962 18.367-2.926 3.575.033 7.625-.416 9-.996 2.08-.878 2.164-1.049.5-1.019-1.1.02-3.125.384-4.5.809m-52.257 6.618c-.409.409-.743 2.941-.743 5.628 0 4.628.182 4.96 3.468 6.333 1.907.797 4.607 1.449 6 1.449 2.37 0 2.532-.318 2.532-4.977 0-4.091-.41-5.245-2.302-6.485-2.815-1.845-7.943-2.96-8.955-1.948m2.257.966c0 .23 1.575 1.075 3.5 1.88 3.068 1.282 3.5 1.9 3.5 5.013 0 3.825-.946 4.283-5.372 2.6-1.938-.737-2.59-1.807-2.897-4.75l-.395-3.799-.168 3.628c-.199 4.293 1.473 6.011 6.054 6.222 3.117.143 3.294-.041 3.596-3.732.175-2.135-.08-4.28-.567-4.767-.975-.975-7.251-2.961-7.251-2.295m12.596 3.944c.83 4.961 1.409 5.759 1.389 1.917-.009-1.604-.475-3.592-1.037-4.417-.733-1.075-.832-.366-.352 2.5"/></svg>
