<svg xmlns="http://www.w3.org/2000/svg" width="512" height="512" viewBox="0 0 512 512"><path fill="#fff" fill-rule="evenodd" d="M234.5 12.623c-9.006 2.285-13.398 5.296-16.449 11.276-3.12 6.117-3.401 11.709-1.009 20.101 1.963 6.886 2.632 16.939 1.404 21.072-.257.865-2.375 2.618-4.707 3.897s-6.718 3.988-9.747 6.021-7.157 4.239-9.171 4.904c-9.469 3.125-16.199 11.878-17.447 22.689-.406 3.514-1.905 8.261-3.693 11.689-2.274 4.362-3.19 7.781-3.75 14-.407 4.525-1.233 9.8-1.836 11.721-.602 1.922-1.095 5.818-1.095 8.658 0 4.925.229 5.37 4.961 9.624 6.127 5.509 9.772 7.276 19.024 9.222 3.981.837 7.637 1.769 8.126 2.072 1.613.997.938 3.45-3.361 12.207-4.054 8.258-4.249 9.072-4.234 17.69.013 7.674.418 9.898 2.688 14.769 1.47 3.155 3.839 7.266 5.266 9.136 1.426 1.87 4.589 9.35 7.027 16.621 2.439 7.271 4.979 13.877 5.645 14.679.808.974 2.757 1.376 5.866 1.211 3.981-.211 5.26.239 8.824 3.103 2.292 1.842 4.168 3.777 4.168 4.299s-2.487 3.635-5.527 6.918c-9.33 10.078-10.69 13.759-11.565 31.298-.69 13.829-3.105 27.456-5.682 32.061-.463.826-2.336 2.276-4.163 3.221-2.276 1.177-4.303 3.606-6.442 7.719-1.717 3.301-3.908 7.113-4.871 8.473-2.372 3.35-2.218 8.147.351 10.904 1.155 1.24 1.942 2.396 1.75 2.57-.193.173-2.795.832-5.783 1.462-2.987.631-6.025 1.639-6.75 2.241-1.626 1.349-1.755 10.012-.173 11.594.859.859.548 1.284-1.25 1.707-5.951 1.399-49.814 10.81-53.395 11.457-9.634 1.74-12.366 6.634-13.598 24.356-.945 13.6-.829 13.948 5.598 16.872 4.759 2.164 9.567 2.286 14.924.377l3.924-1.398 46.076 18.004c25.342 9.901 52.687 20.563 60.768 23.691l14.692 5.689.308 5 .308 5 5.882 2.939c6.927 3.461 13.097 3.76 19.132.929 3.185-1.495 4.045-2.475 4.281-4.875l.295-3.005 39.525-14.416 39.525-14.417 4.68 1.678c6.376 2.285 11.902 2.098 17.218-.583l4.462-2.25-.178-9.774c-.212-11.678-2.129-18.202-6.594-22.441-4.245-4.03-6.835-4.699-12.537-3.237-4.412 1.13-4.961 1.048-8.367-1.264-2.005-1.36-6.385-3.498-9.735-4.751-3.349-1.252-6.086-2.784-6.083-3.405.003-.62-2.465-28.353-5.484-61.628s-6.074-67.025-6.788-75l-1.298-14.5 7.532-15.5 7.532-15.5V219c0-11.986.118-12.697 2.873-17.297 2.427-4.053 2.798-5.571 2.393-9.783-.512-5.327-3.671-9.92-6.824-9.92-2.396 0-2.962-3.184-1.824-10.254.821-5.099 1.598-6.675 4.842-9.823 4.635-4.499 6.677-8.696 7.537-15.493.485-3.832.283-5.367-.823-6.286-1.167-.968-1.252-1.908-.419-4.625.847-2.758.727-3.897-.627-5.964-3.538-5.4-12.628-2.481-12.628 4.056 0 1.873-.533 2.389-2.465 2.389-1.356 0-3.997 1.345-5.869 2.988l-3.403 2.988-6.953-1.765c-3.911-.994-10.101-3.668-14.148-6.113-4.499-2.719-8.831-4.532-11.562-4.84-4.095-.461-4.511-.799-6.674-5.416-1.268-2.708-4.429-6.91-7.023-9.336-3.778-3.534-4.934-5.424-5.807-9.492-2.386-11.129-8.22-17.858-17.85-20.591-6.99-1.984-17.225-8.28-17.237-10.603-.005-.958.916-1.818 2.141-2 5.759-.857 10.504-16.144 10.995-35.422.391-15.36-.191-16.807-8.358-20.798-5.192-2.537-15.034-4.056-19.287-2.977m-.911 3.466C224.559 18.275 219 24.865 219 33.386c0 4.225.206 4.614 2.441 4.614 1.343 0 2.762.52 3.154 1.155.452.73.274.882-.484.413-1.605-.991-4.111 1.205-4.111 3.604 0 3.254 2.91 7.828 4.98 7.828 1.411 0 2.105.935 2.582 3.481 1.475 7.862 16.608 16.694 23.845 13.916.876-.336 2.758-4.206 4.256-8.75 2.217-6.728 2.732-10.282 2.958-20.406.15-6.743.524-12.667.832-13.166.939-1.518-4.215-6.763-8.199-8.346-5.158-2.049-12.975-2.775-17.665-1.64m-11.065 44.673c-.798 7.944-2.266 14.909-2.422 11.488-.056-1.237-.449-2.25-.873-2.25s-4.285 2.057-8.58 4.571c-5.359 3.138-7.636 5.019-7.26 6 .411 1.071-.33 1.429-2.96 1.429-10.638 0-20.824 12.66-19.114 23.754.318 2.06.851 5.546 1.184 7.746l.605 4-1.932-3.453-1.933-3.452-2.711 5.35c-1.926 3.801-2.959 7.842-3.566 13.953-.471 4.731-1.329 10.174-1.909 12.095-2.004 6.648-1.382 9.798 2.697 13.655 4.337 4.101 11.997 7.928 17.75 8.868l4 .654-3-2.078c-1.65-1.144-2.5-2.082-1.89-2.085 1.564-.01 8.134 4.547 13.034 9.039 3.022 2.771 5.387 3.986 8.738 4.489 5.809.871 9.796-.438 4.775-1.568-5.814-1.309-6.152-2.991-.466-2.317 6.14.727 8.221-1.151 2.371-2.14-2.171-.366-4.478-1.306-5.127-2.088-1.407-1.696-.674-1.755 4.383-.351 2.83.786 4.189.753 5.25-.128 2.306-1.913 1.694-2.644-2.706-3.235-2.275-.305-4.863-1.328-5.75-2.273-1.49-1.589-1.473-1.67.225-1.075 1.011.354 3.599.926 5.75 1.27 3.521.563 3.913.412 3.913-1.502 0-1.355-.635-2.132-1.75-2.14-.963-.007-3.676-1.113-6.03-2.459l-4.28-2.447-4.666 2.959c-4.64 2.943-7.702 3.987-5.637 1.922.716-.716-1.488-3.63-7.115-9.411-6.29-6.462-9.164-8.675-12.587-9.689l-4.435-1.313 3.823-.34 3.822-.339-1.727-2.686-1.728-2.685 2.349 2c1.291 1.1 3.275 3.041 4.408 4.313 2.714 3.049 4.712 2.183 8.424-3.652 3.09-4.857 5.628-12.041 6.483-18.351.436-3.215.22-3.73-1.677-4-1.829-.26-1.452-.736 2.36-2.977 2.495-1.467 5.158-3.83 5.919-5.25.76-1.421 1.767-2.583 2.239-2.583.471 0 .158 1.35-.695 3-1.084 2.097-1.196 3-.371 3 .7 0 .446.812-.621 1.991-1.75 1.934-1.698 2.149 1.773 7.376 4.557 6.864 9.889 9.656 18.285 9.577 3.264-.031 7.497-.594 9.408-1.25 4.973-1.709 6.225-4.73 5.675-13.694-.536-8.731 1.082-6.281 1.935 2.929.661 7.152-.742 9.762-6.974 12.969-6.912 3.557-16.599 3.471-22.868-.204-4.224-2.475-8.864-7.475-9.925-10.694-.272-.825-1.273 1.988-2.224 6.251-1.138 5.1-2.904 9.496-5.162 12.851-1.887 2.804-3.42 5.616-3.408 6.248.038 1.857 5.342 10.899 6.977 11.893 1.04.633 2.958.095 6.25-1.751 4.16-2.332 4.75-3.071 4.75-5.943 0-7.126 7.389-11.16 12-6.549 2.399 2.399 2.506 4.544.47 9.417-1.372 3.285-1.372 3.884 0 5.844 1.739 2.482 2.02 6.318.53 7.239-.55.34-1 1.69-1 3s-.45 2.66-1 3-1 1.308-1 2.151c0 .844-.919 2.701-2.041 4.128-1.862 2.368-1.896 2.677-.386 3.522.91.509 6.216 1.111 11.791 1.337 7.953.323 11.213.029 15.136-1.363 5.809-2.062 6.193-3.014 6.382-15.804.096-6.503.683-9.353 3.091-15 2.942-6.9 4.33-18.394 2.05-16.985-1.545.954-8.602-1.307-11.178-3.583-2.045-1.806-2.089-1.978-.345-1.348 1.1.398 4.475.926 7.5 1.174 5.128.421 5.701.24 8.469-2.672 2.57-2.704 3.019-4.027 3.341-9.841.235-4.266-.171-8.28-1.115-11.002-1.293-3.73-1.296-4.128-.024-3.072 6.476 5.374 6.247 20.472-.427 28.086-1.37 1.563-1.254 2.07 1.208 5.298 1.497 1.963 5.085 5.138 7.972 7.055 2.886 1.916 6.207 4.781 7.379 6.366 1.448 1.959 4.784 3.93 10.414 6.155 7.875 3.111 9.047 3.29 23.783 3.63 13.074.302 16.074.667 19.167 2.33l3.667 1.972.63-3.267c2.518-13.036 3.094-14.209 5.536-11.267 1.078 1.299 6 2.204 6 1.103 0-1.52-5.855-6.603-7.606-6.603-2.501 0-9.379 7.117-9.424 9.753-.029 1.656-.084 1.655-1.055-.011-.563-.967-.755-2.191-.428-2.721.327-.529-.661-1.246-2.196-1.592-9.07-2.046-11.542-2.988-18.791-7.158-9.236-5.313-17.448-7.019-17.566-3.648-.036 1.032-.709-.514-1.496-3.437-1.926-7.159-6.393-13.366-12.436-17.282-4.967-3.218-6.378-4.646-3.502-3.542 2.199.843 1.907-3.867-.581-9.362-3.509-7.751-9.834-13.012-15.619-12.989-3.325.013-10.895 2.211-15.097 4.384-2.843 1.47-2.976 1.452-2.507-.339.508-1.945 3.189-3.337 9.295-4.827l3.491-.851-5.491-3.701-5.491-3.701-1.468 3.262c-1.848 4.107-1.92 4.208-2.566 3.561-.52-.52.861-7.882 2.071-11.034.439-1.144-.187-1.749-2.286-2.21-4.903-1.077-14.877-8.247-16.64-11.962-.886-1.867-1.611-3.89-1.611-4.494 0-.605-.404-1.099-.899-1.099-.494 0-1.204 3.043-1.577 6.762m10.658 18.454c1.124 3.353 3.811 7.125 4.548 6.387.552-.552-3.449-8.311-4.676-9.069-.579-.359-.528.728.128 2.682m-28.83 3.777c-3.509 1.416-3.816 3-.39 2.018 4.131-1.185 9.482.48 12.132 3.773l2.184 2.716-.658-2.75c-.362-1.513-.454-2.75-.204-2.75 2.483 0 15.858 3.47 19.381 5.028 4.544 2.01 5.967 2.018 4.735.024-1.567-2.535-8.876-4.946-21.032-6.937-14.529-2.379-13.251-2.29-16.148-1.122m-17.19 10.55c-.639 1.403-1.144 3.092-1.123 3.754.022.662.704-.328 1.515-2.198 1.709-3.938 1.348-5.373-.392-1.556m5.338 18.618c-2.28 1.253-5.445 4.88-5.478 6.276-.012.515 1.216-.203 2.728-1.597s3.863-3.277 5.223-4.187c2.771-1.853.738-2.258-2.473-.492m78.5 12.644c0 1.475 5.688 8.863 8.152 10.589 1.261.883 3.88 1.56 5.821 1.504l3.527-.102-3.5-1.098c-1.929-.604-5.857-3.497-8.75-6.442-2.887-2.94-5.25-4.943-5.25-4.451m-62 4.004c0 1.401 2.42 3.883 4.498 4.615 1.582.557 1.387.065-.937-2.36-3.121-3.258-3.561-3.536-3.561-2.255m143.2 2.391c-1.588 1.588-1.476 6.852.192 9.05 1.907 2.512 2.283 2.274 4.567-2.89 1.556-3.519 1.78-4.97.924-6-1.395-1.681-4.086-1.757-5.683-.16m1.133 2.467a.95.95 0 0 0 1.334 0c.366-.367.066-.667-.667-.667s-1.033.3-.667.667M237 136.5c-5.783 3.096-3.063 3.113 3.5.022 2.998-1.413 4.199-2.371 3-2.394-1.1-.021-4.025 1.047-6.5 2.372m17.543.976c3.116 2.939 3.578 3.904 2.991 6.244-1.033 4.115-2.404 5.28-6.215 5.28-2.037 0-3.185.407-2.819 1 .34.55 1.941 1 3.559 1 2.449 0 2.941.407 2.941 2.435 0 1.339-.524 3.702-1.165 5.25-1.57 3.794-2.708 15.588-1.375 14.255.55-.55 1.295-3.799 1.656-7.22.964-9.146 1.903-13.835 3.479-17.371 2.319-5.203 1.803-8.837-1.672-11.76-4.561-3.838-5.649-3.139-1.38.887m11.457-1.08c0 1.524-1.312 6.046-2.915 10.05-2.383 5.953-2.965 9.029-3.194 16.889-.154 5.285.033 9.922.415 10.304s.694 1.993.694 3.58.977 4.774 2.171 7.083c3.408 6.589 3.829 7.581 3.829 9.024 0 .744 1.138 1.871 2.528 2.505s2.829 1.943 3.196 2.91c.368.968 3 4.512 5.848 7.876 2.849 3.365 5.686 6.965 6.303 8 1.291 2.163-.253 3.806 12.777-13.602 10.41-13.907 13.183-15.595 29.203-17.779L339 181.58l.036-4.04c.019-2.222.649-6.609 1.4-9.749l1.365-5.709-4.151-1.957c-3.433-1.619-6.914-2.027-20.15-2.358-15.971-.401-16.016-.408-24.826-4.236-5.32-2.311-9.452-4.789-10.402-6.239-.867-1.323-3.645-3.796-6.174-5.496s-5.836-4.233-7.348-5.63l-2.75-2.54zm-60-.577c0 1.208 1.897 2.617 2.591 1.924.251-.252-.229-1.027-1.067-1.723-.95-.789-1.524-.865-1.524-.201m40.771 4.21c-.645 6.714-2.812 8.963-8.676 9.001-3.748.025-4.256.228-2.757 1.1 1.011.587 3.374.889 5.25.67 3.319-.387 3.412-.301 3.398 3.151-.023 6.002-.986 7.985-4.353 8.961l-3.133.908 3.25.09c3.067.085 3.252.301 3.28 3.84.025 3.06.22 3.424 1.061 1.98.567-.974.748-2.661.403-3.75-.465-1.465-.156-2.001 1.189-2.059.999-.043 1.299-.291.666-.55-1.501-.615-.693-11.518 1.233-16.641 1.584-4.213 1.882-10.325.543-11.152-.481-.298-1.09 1.705-1.354 4.451m-26.597.721c-.493.963-1.174 3.877-1.513 6.477-.535 4.104-.345 4.872 1.447 5.831 1.135.607 2.154.955 2.265.773s1.245-2.928 2.519-6.103c1.863-4.641 2.077-6.061 1.09-7.25-1.666-2.007-4.714-1.864-5.808.272M291.5 140c-1.41.606-.23.859 4 .859s5.41-.253 4-.859c-1.1-.473-2.9-.859-4-.859s-2.9.386-4 .859m-69.732 3.168c.582.582 1.647.86 2.369.62.749-.25.295-.703-1.057-1.057-1.663-.435-2.054-.305-1.312.437m134.864 1.464c-2.433 2.433-2.604 2.921-1.132 3.214 2.238.446 4.792-2.108 4.346-4.346-.293-1.472-.781-1.301-3.214 1.132m-184.478 1.895c.354 1.802 5.455 6.198 6.259 5.393.245-.245-1.141-1.955-3.079-3.8-2.479-2.358-3.423-2.831-3.18-1.593m154.846.86c0 .212 1.326.581 2.947.819 1.621.237 2.72.064 2.441-.387-.495-.802-5.388-1.194-5.388-.432m-1.539 2.549c.361.585 2.28 1.064 4.265 1.064 4.413 0 4.032-.507-1.074-1.431-2.621-.474-3.639-.357-3.191.367m21.539.216c0 2.508 8.624 3.824 10.8 1.648 2.009-2.009 1.421-2.298-4.806-2.363-3.297-.034-5.994.288-5.994.715m-6.595 2.003c-.443.715-.275.883.44.44 1.153-.712 1.548-1.595.714-1.595-.243 0-.762.52-1.154 1.155m5.595 2.208c0 2.333 6.385 4.049 9.201 2.474 2.188-1.225 2.082-1.313-2.201-1.838-2.475-.303-5.062-.903-5.75-1.334-.79-.495-1.25-.238-1.25.698M226 156c0 .733.3 1.033.667.667a.95.95 0 0 0 0-1.334c-.367-.366-.667-.066-.667.667m119 1.983c0 1.481 2.618 3.017 5.141 3.017 4.465 0 4.056-1.5-.712-2.606-2.436-.565-4.429-.75-4.429-.411m-.899 8.53c-1.598 6.348-1.449 15.487.254 15.487.942 0 1.553-2.057 2.005-6.75.357-3.713.912-7.924 1.234-9.359.402-1.794.12-2.787-.903-3.179-1.097-.421-1.779.581-2.59 3.801m-141.563 9.248c-.676 1.762 1.75 4.239 4.153 4.239 2.154 0 1.482-2.656-1.098-4.347-2.211-1.449-2.461-1.44-3.055.108m8.462 1.75c0 .281-.676 4.713-1.503 9.849-2.708 16.831-.384 22.81 17.544 45.14 9.531 11.872 12.375 16.14 13.635 20.466 1.511 5.189 1.405 7.935-2.076 54-5.018 66.398-5.359 70.469-8.708 104.034-1.618 16.225-3.413 30.954-3.988 32.73-1.21 3.737-.583 5.27 2.155 5.27 1.944 0 2.288-.766 2.018-4.5-.08-1.1.769-9.977 1.887-19.726 5.184-45.239 13.781-162.352 12.488-170.121-.99-5.944-3.288-9.904-11.985-20.653-19.455-24.044-22.015-30.345-19.066-46.927.824-4.634 1.27-8.797.99-9.25-.55-.89-3.391-1.152-3.391-.312m40.5 1.65c-4.915 1.862-9.22 1.94-30 .541-2.381-.16-3.063.239-3.305 1.936-.271 1.899.399 2.258 6 3.217 13.158 2.252 14.83 2.346 21.39 1.204 8.91-1.552 12.415-3.411 12.415-6.585 0-2.834.139-2.828-6.5-.313m-53.456 5.589c-3.467 6.996-3.961 18.832-1.103 26.409 2.339 6.202 5.035 9.491 5.092 6.213.018-1.029.814.387 1.768 3.149s2.836 6.586 4.179 8.5c1.479 2.108 1.768 2.938.731 2.107-2.297-1.843-2.183-.943 1.126 8.906 2.685 7.991 2.906 8.316 4.113 6.06.701-1.31 3.092-4.353 5.312-6.762 4.722-5.123 4.872-4.525-4.222-16.805-8.895-12.01-11.603-22.493-9.123-35.317.784-4.058.676-4.369-1.994-5.75-1.553-.803-2.981-1.46-3.174-1.46s-1.41 2.137-2.705 4.75m53.083-3.673c-1.306.522-6.031 1.334-10.5 1.804l-8.127.853 6.307.133c6.494.137 14.811-1.44 15.769-2.99.674-1.09-.378-1.03-3.449.2m3.373 5.279c-5.405 2.708-20.38 3.351-29.989 1.288-3.844-.825-7.211-1.277-7.484-1.005-.272.273-.662 3.808-.867 7.857-.319 6.327.003 8.181 2.291 13.183 2.528 5.527 13.034 20.338 14.405 20.306.354-.008 2.444-.664 4.644-1.456 2.2-.793 6.193-1.461 8.872-1.485 4.216-.038 4.705-.246 3.628-1.544-1.431-1.724-5.98-1.94-10.939-.517-2.577.739-3.142.698-2.279-.165.631-.631 3.619-1.353 6.639-1.603l5.491-.455-2.354-4.63c-4.265-8.389-10.605-15.975-15.217-18.207-4.871-2.358-5.386-2.929-2.091-2.32 1.238.229 0-.717-2.75-2.102-4.689-2.361-4.782-2.48-1.5-1.902 5.497.967 12.904 5.447 16.735 10.122 1.928 2.353 3.952 4.279 4.497 4.279s3.145-1.804 5.779-4.009 6.427-4.694 8.429-5.53c4.538-1.897 3.76-3.451-1.749-3.493-3.902-.029-4.057-.133-2.25-1.5 1.068-.807 2.713-1.468 3.657-1.468 1.213 0 1.564-.576 1.2-1.967-.884-3.38-2.569-3.796-6.798-1.677m78-.69c-12.935 1.581-22.5 4.352-22.5 6.519 0 1.086.175 1.058 4.419-.716 5.098-2.13 21.458-4.456 31.39-4.463 5.283-.004 8.084-.37 7.691-1.006-.581-.939-14.265-1.157-21-.334m-3.5 3.841c-8.951 1.226-18.027 3.928-17.978 5.352.012.352.82 1.678 1.795 2.944 1.535 1.995 2.144 2.162 4.55 1.247 2.619-.995 23.792-3.69 33.633-4.28 4.606-.276 5.026-.942 3.484-5.52-.547-1.624-12.642-1.502-25.484.257m-25.05 8.743c-6.906 8.801-20.063 27.903-19.776 28.712.179.505 4.047-4.343 8.595-10.772s9.879-13.827 11.846-16.44c3.974-5.278 3.369-6.641-.665-1.5m41.55-1.545c-9.77.9-26.874 3.339-27.41 3.909-.325.344 1.21.377 3.41.074 2.2-.304 10.637-1.129 18.75-1.834s14.75-1.635 14.75-2.068c0-.779-1.764-.794-9.5-.081m-46.175 12.411c-15.062 20.774-14.889 20.459-13.191 24.044l1.456 3.074 11.04-15.867c13.687-19.673 12.715-17.83 11.066-20.977l-1.392-2.658zm-40.879-8.603c-2.72 1.382-6.421 3.862-8.225 5.511l-3.279 2.999 5.029 9.328c2.766 5.131 5.029 10.098 5.029 11.039 0 1.374 2.39 7.098 3.512 8.411.141.166 2.399-1.057 5.018-2.718 2.618-1.66 6.945-3.744 9.615-4.631S280 228.425 280 227.92c0-1.289-2.809-1.075-7.5.571-3.541 1.243-3.774 1.235-2.026-.067 1.086-.81 3.664-1.742 5.731-2.073 2.742-.438 4.28-1.428 5.695-3.663l1.939-3.062-2.807-4.08c-1.544-2.244-4.804-6.322-7.244-9.063-2.441-2.741-4.727-5.77-5.081-6.733-.902-2.451-4.454-2.187-10.261.763m75.533.445c-7.437.941-14.668 1.998-16.07 2.35-1.814.455-5.267 4.46-11.979 13.893-11.587 16.283-14.889 21.173-14.539 21.524.482.481 27.588-3.371 28.229-4.012 1.315-1.315-.671-5.713-2.58-5.713-3.002 0-3.358-1.745-1.024-5.022 2.754-3.868 7.263-6.177 11.298-5.787 3.088.299 3.176.439 2.871 4.533-.172 2.322.094 4.952.592 5.843.765 1.367 1.378 1.019 3.918-2.224 2.92-3.726 17.106-23.568 18.656-26.093.987-1.609-1.889-1.503-19.372.708m14.614 12.187c-.4.905-.809 5.258-.91 9.673-.173 7.581-.475 8.588-5.433 18.084-4.823 9.237-6.398 14.158-4.5 14.059 1.125-.06 10.992-21.781 12.277-27.027 1.214-4.959-.045-17.937-1.434-14.789m-94.384 4.069c.525 1.69 7.314 5.029 9.377 4.612.933-.188-.79-1.501-4.082-3.112-3.438-1.682-5.536-2.276-5.295-1.5M328 221c0 .733.3 1.033.667.667a.95.95 0 0 0 0-1.334c-.367-.366-.667-.066-.667.667m11.568 4.531c-2.162 3.018-4.686 6.171-5.608 7.006-1.541 1.394-1.554 1.962-.154 6.99.838 3.01 1.828 5.473 2.201 5.473s2.318-3.495 4.323-7.767c3.551-7.569 5.834-17.255 4.056-17.211-.487.011-2.655 2.491-4.818 5.509m-17.4-3.234c-.785.947-.428 3.398 1.322 9.07 4.646 15.056 6.503 26.416 9.014 55.133 1.394 15.95 3.858 43.85 5.475 62 1.618 18.15 3.719 42.562 4.671 54.249.952 11.686 2.018 21.714 2.37 22.283s1.391.747 2.31.395c1.962-.753 2.058-3.447.637-17.927-1.55-15.798-4.584-48.94-9.457-103.325-2.48-27.679-4.785-51.529-5.121-53s-1.887-6.95-3.446-12.175-3.327-11.412-3.928-13.75c-1.14-4.438-2.041-5.129-3.847-2.953M317 226.5c0 .275.225.5.5.5s.5-.225.5-.5-.225-.5-.5-.5-.5.225-.5.5m-76 2.223c-.825.31-2.542.95-3.816 1.421-2.297.85-2.279.904 2.198 6.606 8.774 11.177 9.719 15.653 8.285 39.25l-.759 12.5 3.555-6c5.459-9.214 10.462-19.582 11.107-23.021 1-5.328-6.459-28.517-9.87-30.685-1.369-.871-8.451-.918-10.7-.071m33.624 5.275c-2.681 1.047-6.647 3.132-8.813 4.633-3.362 2.33-3.841 3.104-3.276 5.299.363 1.413 1.206 5.205 1.871 8.426 1.095 5.297 1.731 6.286 6.652 10.35 2.993 2.471 6.452 6.135 7.687 8.143 2.558 4.16 2.914 5.943.844 4.225-1.725-1.432-1.715-1.449-4.903 8.426-4.123 12.774-4.272 15.965-1.168 24.96 2.575 7.461 2.671 8.445 2.17 22.422-.288 8.04-.851 15.925-1.252 17.522-.717 2.861-.677 2.894 2.668 2.228 1.868-.373 3.554-1.142 3.748-1.71.193-.569 1.013-1.571 1.822-2.228 4.566-3.71 5.029-4.594 5.646-10.785.352-3.525 2.715-13.159 5.252-21.409 3.646-11.86 4.715-16.989 5.107-24.5l.496-9.5-2.551 3c-1.404 1.65-2.568 2.693-2.588 2.318s1.258-4.2 2.84-8.5c4.471-12.153 4.737-15.327 1.806-21.544-1.367-2.901-2.997-7.186-3.623-9.524-.997-3.73-1.482-4.25-3.963-4.25-3.532 0-7.437-2.995-9.082-6.966-1.464-3.534-1.119-3.485-7.39-1.036m38.126-.336c.688.278 1.813.278 2.5 0 .688-.277.125-.504-1.25-.504s-1.937.227-1.25.504m-7.5 1.027c.962.252 2.538.252 3.5 0 .962-.251.175-.457-1.75-.457s-2.712.206-1.75.457m-5.981 1.004c.973.254 2.323.237 3-.037s-.119-.481-1.769-.461-2.204.244-1.231.498m-77.187 4.866c-3.1 3.531-3.111 3.583-1.383 6.508 2.224 3.766 10.069 11.498 10.861 10.706.331-.331.071-1.595-.579-2.808-.816-1.525-.836-1.994-.066-1.518 1.633 1.01 5.085 8.146 5.085 10.513 0 1.122-.647 2.04-1.437 2.04-2.008 0-11.797 11.787-14.604 17.584-1.919 3.965-2.371 6.683-2.575 15.478q-.576 24.867-9.018 41.012c-1.393 2.665-2.244 5.314-1.891 5.886 1.111 1.797 4.085 1.137 6.511-1.445 1.283-1.366 3.755-2.751 5.492-3.077 2.818-.529 3.345-1.202 4.899-6.265.957-3.12 3.952-10.398 6.656-16.173 4.723-10.088 4.958-11.011 5.979-23.5.585-7.15 1.316-19.3 1.624-27 .536-13.358.454-14.196-1.787-18.281-2.572-4.688-8.967-13.121-9.995-13.181-.356-.021-2.053 1.564-3.772 3.521m86.591-.743-10.827 1.548.652 3.568c.359 1.963 1.807 6.158 3.217 9.324 2.247 5.046 2.464 6.464 1.759 11.5-.443 3.159-.884 10.919-.98 17.244-.208 13.644-.599 15.984-5.057 30.202-4.065 12.963-6.437 22.844-6.437 26.81 0 1.588 1.35 4.888 3 7.333s3 4.88 3 5.413c0 .532 1.344 2.658 2.986 4.724 2.007 2.526 3.144 3.308 3.469 2.387.267-.753 4.105-16.444 8.531-34.869 4.425-18.425 9.662-39.485 11.636-46.8 3.975-14.725 3.983-16.095.174-31.45-1.194-4.812-2.649-8.69-3.233-8.616s-5.935.83-11.89 1.682m-93.603 10.053c-1.212 2.265-.494 3.131 2.597 3.131 2.641 0 2.853-.731.941-3.25-1.685-2.22-2.297-2.199-3.538.119m54.797 5.631c2.88 5.517 4.136 6.936 7.833 8.846 5.388 2.784 7.056 1.885 2.207-1.19-2.466-1.564-6.204-4.826-8.306-7.25l-3.823-4.406zm-17.062 6.5c-1.011 2.632-2.855 12.284-2.428 12.71.905.905 3.758-8.61 3.394-11.315-.248-1.837-.601-2.347-.966-1.395m10.286 3.802c-.7 2.034-2.74 6.173-4.533 9.198s-5.343 9.55-7.888 14.5l-4.627 9-2.517 35.393c-2.824 39.695-3.326 35.343 4.681 40.63 4.712 3.112 6.042 5.632 5.237 9.926-.817 4.355-2.72 6.016-8.944 7.808-4.176 1.203-5.051 1.867-5.31 4.029-.3 2.496.156 2.736 12.5 6.589 38.439 12.001 38.678 12.062 40.56 10.379 2.325-2.078 2.227-3.327-.969-12.35l-2.718-7.675-16.324-5.162C254.427 382.434 254 382.114 254 374.401c0-2.875.574-3.807 3.354-5.447 3.504-2.068 4.647-4.249 8.623-16.454 1.254-3.85 3.389-8.07 4.744-9.377 2.423-2.336 2.459-2.607 2.1-16-.302-11.228-.711-14.238-2.33-17.123-3.326-5.93-2.767-17.32 1.428-29.1l3.419-9.6-4.29-3.9c-6.295-5.722-6.521-5.768-7.957-1.598m27.924 3.889c.011 4.119.298 5.373.985 4.309 1.276-1.974 1.276-8.712 0-9.5-.623-.385-.994 1.569-.985 5.191m34.747 13.919c-1.429 5.666-12.693 51.98-18.147 74.615-1.168 4.848-1.169 5.9-.009 6.863 1.041.864 1.484.81 1.845-.225.261-.75 4.792-18.913 10.068-40.363 8.255-33.558 9.481-39.613 8.787-43.39l-.806-4.391zm-101.078 6.75c-1.94 2.961-4.937 13.11-4.506 15.264.177.888 1.745-2.715 3.483-8.005 1.739-5.29 3.028-9.619 2.865-9.619s-.992 1.062-1.842 2.36m61.131 5.14c-.895 2.797-2.594 11.235-3.221 16l-.526 4 1.41-3c1.938-4.123 3.729-12.891 3.317-16.235-.292-2.374-.431-2.482-.98-.765m35.36 37.275c-4.514 18.549-8.201 34.204-8.191 34.79s1.591 1.816 3.516 2.734 3.5 2.272 3.5 3.011c0 .738 1.125 2.398 2.5 3.69 1.714 1.61 2.5 3.416 2.5 5.74 0 4.895-1.597 7.194-6.505 9.365l-4.334 1.917-2.013 8.739c-4.221 18.326-4.679 17.38 10.765 22.249 13.685 4.315 18.087 4.518 18.087.836 0-1.066-1.121-14.405-2.491-29.642a18130 18130 0 0 1-5.437-62.058c-1.621-18.894-3.113-34.521-3.318-34.725-.204-.204-4.065 14.805-8.579 33.354m-91.676-4.338c-2.08 4.669-3.768 9.743-3.75 11.276.042 3.54 2.584 14.273 3.966 16.742.88 1.573 1.15 1.077 1.654-3.038 1.113-9.078 2.783-32.599 2.345-33.036-.238-.238-2.134 3.387-4.215 8.056m-20.324 12.079c-.688 1.508-1.044 2.948-.793 3.199.678.679 2.804-3.656 2.395-4.884-.194-.582-.915.176-1.602 1.685m-6.746.952c-1.45 2.213-1.549 3.242-.613 6.337l1.117 3.695-1.822-2.384-1.822-2.384-1.052 3.018c-.935 2.683-.716 3.426 1.971 6.686 1.662 2.017 2.797 3.892 2.522 4.167s-1.901-1.201-3.615-3.279c-1.728-2.097-3.12-3.122-3.127-2.302-.006.813 2.806 4.256 6.25 7.652s8.119 8.189 10.389 10.651c3.387 3.674 5.15 4.706 9.832 5.753 6.795 1.521 7.502.93 7.526-6.297.01-3.318-.356-4.604-1.235-4.333-7.284 2.244-9.471.682-2.5-1.786 3.796-1.344 3.949-1.513 1.434-1.583-1.548-.043-3.726.408-4.839 1.004-1.715.918-1.97.805-1.672-.742.193-1.004 1.692-2.468 3.33-3.253 1.677-.804 2.422-1.613 1.705-1.852-.699-.233-2.367.293-3.705 1.17-3.221 2.11-3.77 2.012-2.963-.531.431-1.358.299-1.894-.364-1.484-2.267 1.402-2.329-1.776-.07-3.621 2.032-1.66 2.091-1.855.394-1.289-3.481 1.161-4.003 1.062-3.861-.731.09-1.133-.571-1.75-1.873-1.75-1.759 0-1.839-.209-.638-1.664 1.253-1.519 1.01-1.606-2.806-.999-6.159.978-8.968-2.393-6.241-7.488 1.646-3.076.315-3.383-1.652-.381m74.77 2.469c-.781 2.19-.878 3.784-.267 4.395 1.118 1.118 2.452-3.169 1.868-6.003-.274-1.332-.71-.895-1.601 1.608m-61.163 1.519c-1.731 2.086-.531 3.348 2.69 2.829 5.135-.828 5.629-1.152 4.264-2.797-1.577-1.901-5.388-1.918-6.954-.032m69.554 2.855c-1.043.762-1.601 1.862-1.242 2.443.863 1.396 7.843-.674 7.349-2.179-.545-1.658-3.997-1.807-6.107-.264m-16.097 1.7c-.404.654.169 2.381 1.272 3.839 1.583 2.09 2.793 2.624 5.725 2.527 2.417-.08 3.244.177 2.364.734-2.256 1.43-5.445.999-8.107-1.095l-2.522-1.984-.599 2.234c-1.376 5.134-.756 6.784 3.124 8.325 9.519 3.781 12.02 5.142 15.811 8.605 2.233 2.04 5.3 4.181 6.815 4.757 3.981 1.513 14.205 1.323 15.823-.295 2.025-2.025 5.457-3.669 6.17-2.956 3.338 3.339-4.304 8.247-12.869 8.264-4.486.009-14.86-2.163-23-4.816-2.743-.894-2.793-.985-.583-1.064 3.869-.138 2.026-.891-4.921-2.009-3.55-.572-7.722-1.977-9.272-3.123-3.152-2.331-6.043-2.253-6.51.176-.247 1.278 2.72 2.452 14.488 5.735 27.741 7.739 27.395 7.683 36.019 5.811 4.17-.905 7.686-1.764 7.813-1.91.128-.147.531-1.663.897-3.371.633-2.96.38-3.274-5.456-6.751-6.108-3.638-6.838-3.741-13.467-1.907-1.722.477-1.814.337-.678-1.033.724-.871 2.295-1.775 3.493-2.008 1.518-.295 1.211-.465-1.014-.56-1.755-.075-3.474.321-3.819.88-.974 1.576-2.481.123-1.776-1.712q.628-1.635-.544-.909c-.644.398-1.6.457-2.126.132-1.331-.823-.133-3.527 1.563-3.527.766 0 1.393-.498 1.393-1.107 0-.655-.714-.82-1.75-.404-.962.387-2.312.933-3 1.214-.687.281-1.25-.16-1.25-.979 0-.82.993-1.75 2.206-2.068 1.214-.317 1.888-.895 1.499-1.285s-1.832-.106-3.205.629c-3.002 1.607-4.323.701-2.393-1.642 1.267-1.536 1.132-1.625-1.483-.973-2.429.605-2.777.456-2.236-.955.526-1.37.234-1.536-1.623-.922-1.246.412-3.822.804-5.724.871-2.692.094-3.72-.397-4.636-2.217-.799-1.587-1.414-1.957-1.912-1.151M218 351c0 .55.873 1 1.941 1s2.219-.45 2.559-1c.351-.567-.49-1-1.941-1-1.407 0-2.559.45-2.559 1m71.5 2c-.351.567.49 1 1.941 1 1.407 0 2.559-.45 2.559-1s-.873-1-1.941-1-2.219.45-2.559 1m-65.5.5c0 .275.225.5.5.5s.5-.225.5-.5-.225-.5-.5-.5-.5.225-.5.5m-2 3.5c-1.219.788-1.09.972.691.985 1.205.008 2.469-.435 2.809-.985.787-1.273-1.53-1.273-3.5 0m74.813 5.683c.721.289 1.584.253 1.916-.079s-.258-.568-1.312-.525c-1.165.048-1.402.285-.604.604M265 365.858c0 1.456 2.864 2.879 8.203 4.075 2.451.55 5.321 1.306 6.377 1.68 1.388.493 1.635.37.893-.443-.565-.618-3.49-1.988-6.5-3.045s-6.261-2.239-7.223-2.629c-1.02-.414-1.75-.263-1.75.362m-72.75 4.03c-3.437.804-6.25 1.785-6.25 2.18 0 1.493 3.43 1.945 6.661.879 1.846-.609 3.915-.905 4.598-.657s-.261.857-2.096 1.352c-3.24.874-3.022 1.011 7.5 4.701C221.059 384.795 229 386.5 229 384c0-.55-1.718-1-3.818-1-7.454 0-13.645-2.638-17.644-7.519-5.37-6.554-7.636-7.383-15.288-5.593M200 371.5c0 .275.225.5.5.5s.5-.225.5-.5-.225-.5-.5-.5-.5.225-.5.5m.01 2.392c-1.556.434-2.056.961-1.334 1.408 1.138.703 6.324-.752 6.324-1.775 0-.658-1.774-.528-4.99.367M184 376.917c0 2.894.145 2.965 18.251 9 18.782 6.26 25.053 7.34 26.142 4.501 1.378-3.591.69-4.418-3.674-4.418-2.573 0-11.439-2.394-22.219-6-9.866-3.3-18.064-6-18.219-6-.154 0-.281 1.313-.281 2.917m57-2.117c0 .44.517 1.317 1.149 1.949.865.865.735 1.779-.523 3.7-2.036 3.106-.853 3.276 4.874.698 3.815-1.717 3.901-1.853 1.86-2.95-1.85-.994-2.231-.849-2.817 1.077-.71 2.333-.979 1.989-1.975-2.524-.539-2.447-2.568-3.988-2.568-1.95m16.743 2.634c.555 2.906 1.938 3.487 23.757 9.994 20.79 6.199 20.828 6.203 30.783 3.167 7.922-2.417 8.518-2.789 8.926-5.567.487-3.314.579-3.31-9.209-.391-9.542 2.845-19.618 1.102-53.116-9.19-1.263-.388-1.512.046-1.141 1.987m-54.993-.772c.688.278 1.813.278 2.5 0 .688-.277.125-.504-1.25-.504s-1.937.227-1.25.504M318.5 380c-.34.55-.168 1 .382 1s1.278-.45 1.618-1 .168-1-.382-1-1.278.45-1.618 1m-69.915 1.75c-.412.413-2.369 1.206-4.348 1.763-2.699.759-3.787 1.714-4.349 3.814-.729 2.725-.662 2.783 2.431 2.11 6.538-1.422 7.681-2.227 7.681-5.412 0-3.181-.196-3.496-1.415-2.275m-61.773 3.094c-.171.396-9.537 2.647-20.812 5.004-26.968 5.636-25.557 5.093-19.022 7.319l5.478 1.866 23.022-5.126c12.662-2.819 23.124-5.216 23.248-5.326s-2.435-1.157-5.688-2.327c-3.252-1.171-6.054-1.805-6.226-1.41m-6.509 10.444c-12.208 2.791-22.007 5.381-21.776 5.756s2.49 1.261 5.019 1.969c4.282 1.199 5.974.985 24.649-3.113 20.318-4.459 23.148-5.713 19.276-8.545-2.443-1.786-1.657-1.9-27.168 3.933M213 393.464c0 .312 4.742 13.919 5.502 15.786.686 1.685 5.498 2.557 5.498.996 0-.895-4.674-13.909-5.44-15.149-.441-.714-5.56-2.218-5.56-1.633m79.076 1.412c.042.343 1.283 3.549 2.758 7.124 2.045 4.957 3.214 6.576 4.924 6.82 2.74.39 2.808-1.272.337-8.295-1.494-4.245-2.216-5.07-4.923-5.624-1.745-.356-3.138-.368-3.096-.025m14.097 6.489c-1.379 7.483-1.484 10.635-.356 10.635.763 0 4.224-12.992 4.196-15.75-.007-.687-.61-1.25-1.34-1.25-.841 0-1.757 2.332-2.5 6.365m-172.59-4.499c-1.015 1.642 2.95 3.811 14.417 7.889 34.463 12.253 64.169 22.409 64.521 22.058.22-.22.162-1.281-.128-2.357-.421-1.563-8.088-4.619-38.21-15.229-20.726-7.3-38.219-13.262-38.874-13.25s-1.432.413-1.726.889m89.976 1.319c.381 1.202 1.294 3.565 2.028 5.25 1.083 2.488 1.342 2.665 1.374.94.021-1.169.32-3.531.664-5.25.576-2.881.415-3.125-2.067-3.125-2.314 0-2.595.308-1.999 2.185M302 396.941c0 .518.45 1.219 1 1.559s1-.084 1-.941-.45-1.559-1-1.559-1 .423-1 .941m-109.5 4.648c-7.7 1.867-15.125 3.672-16.5 4.013-2.064.511-.859 1.216 6.914 4.046l9.415 3.428 10.585-2.708c5.823-1.489 10.697-2.78 10.833-2.868s-.469-2.262-1.344-4.83c-1.924-5.647-1.22-5.609-19.903-1.081m-70.775-.837c-2.893 3.196-3.938 7.634-4.473 18.993l-.53 11.244 4.636 2.051c3.394 1.502 5.621 1.867 8.307 1.363l3.669-.688-3.917-1.995c-2.154-1.097-4.248-2.496-4.652-3.107s-.741-5.29-.75-10.395c-.016-9.707 1.575-15.74 4.44-16.839 2.691-1.033 1.672-2.379-1.8-2.379-1.917 0-4.022.748-4.93 1.752M238 404.842c0 1.308 1.23 2.194 4.25 3.061 7.26 2.084 26.153 7.91 54.073 16.676 14.752 4.631 27.603 8.421 28.558 8.421s2.544-.59 3.53-1.311c1.621-1.185 1.375-1.432-2.559-2.565-2.394-.689-13.802-4.212-25.352-7.827s-23.025-7.145-25.5-7.843-11.187-3.337-19.36-5.862S240.155 403 239.39 403c-.764 0-1.39.829-1.39 1.842m-108.435 2.418c-1.283 1.958-1.582 4.467-1.356 11.37l.291 8.856 9 3.611c9.952 3.993 15.908 6.317 77.5 30.236 23.375 9.078 43.156 16.654 43.958 16.836 1.111.252 1.646-1.283 2.249-6.448.435-3.728 1.451-8.361 2.259-10.294 1.34-3.208 1.319-3.57-.249-4.14-.944-.344-7.782-2.975-15.195-5.846l-13.478-5.221-1.757 2.89c-1.298 2.134-2.528 2.89-4.701 2.89-4.328 0-6.409-2.556-5.797-7.12.49-3.654.386-3.804-3.642-5.233-5.634-1.999-56.552-21.371-69.962-26.618-5.949-2.327-10.639-4.409-10.422-4.625.555-.556 13.382 3.935 41.737 14.613 13.475 5.075 25.625 9.578 27 10.008s5.491 1.929 9.146 3.331c6.541 2.508 6.654 2.517 7.172.535.29-1.107-.001-2.174-.646-2.369-6.333-1.924-52.917-18.077-72.172-25.028-5.5-1.985-12.09-3.866-14.644-4.178-4.17-.511-4.812-.313-6.291 1.944m106.576 11.776c-1.551 13.644-1.478 15.62.609 16.424.963.37 10.348 3.802 20.856 7.627l19.107 6.954 20.088-7.02c11.048-3.862 20.563-7.021 21.143-7.021s1.056-.346 1.056-.768-9.113-3.648-20.25-7.167C279.052 421.839 237.763 409 237.442 409c-.088 0-.673 4.516-1.301 10.036m-30.391-6.259c-3.713.838-6.75 1.824-6.75 2.191 0 .693 9.801 4.032 11.838 4.032.639 0 1.162-.614 1.162-1.365s.933-2.551 2.073-4c2.492-3.168 2.097-3.209-8.323-.858m89.812.804c-2.071 2.071-.962 3.736 1.994 2.994 1.428-.358 2.651-.068 3.141.745.442.732 1.591 1.62 2.553 1.974 2.489.915 2.317-2.727-.25-5.294-2.406-2.406-5.289-2.568-7.438-.419m-79.107 1.874c-2.813 2.812-3.124 6.351-.929 10.595 1.164 2.252 2.221 2.95 4.464 2.95 3.638 0 5.01-2.294 5.01-8.378 0-3.525-.485-4.848-2.223-6.065-2.938-2.058-3.438-1.987-6.322.898m1.881 4.112c-.834 2.172 1.282 4.215 2.797 2.7 1.28-1.28.487-4.267-1.133-4.267-.585 0-1.333.705-1.664 1.567M353 421.325c0 1.251.523 2.798 1.163 3.438.884.884.584 1.38-1.25 2.069-1.327.498-16.813 5.975-34.413 12.17s-34.366 12.137-37.258 13.206l-5.258 1.942 4.585 2.438 4.585 2.438 9.173-3.415c5.045-1.878 18.398-6.641 29.673-10.583s22.879-8.037 25.788-9.099c5.737-2.093 10.069-2.662 7.112-.933-.88.514-16.989 6.522-35.798 13.351-18.809 6.828-34.407 12.625-34.663 12.881s.183 2.016.975 3.912 1.811 7.084 2.263 11.529l.823 8.082 23-8.383c12.65-4.61 31.726-11.602 42.39-15.538l19.39-7.154-.613-9.336c-.835-12.718-3.088-16.565-12.451-21.265-8.2-4.116-9.216-4.309-9.216-1.75m23.231 5.511c-1.014.643-.963 1.671.25 5.11 2.113 5.988 2.13 23.882.025 24.69-2.323.892-.874 2.126 3.331 2.836 2.567.434 5.196.098 7.991-1.02l4.166-1.667-.584-7.142c-.915-11.177-2.87-16.961-6.942-20.537-3.555-3.121-5.884-3.763-8.237-2.27M223 430.5c0 .275.225.5.5.5s.5-.225.5-.5-.225-.5-.5-.5-.5.225-.5.5m11.17 10.095c.307 2.674 1.117 3.167 11.83 7.202 23.104 8.702 21.355 8.268 24.624 6.112 1.582-1.043 2.609-1.899 2.283-1.902-.524-.006-32.545-11.653-37.237-13.545-1.555-.626-1.78-.306-1.5 2.133M227 446c0 .55.477 1 1.059 1s.781-.45.441-1-.816-1-1.059-1-.441.45-.441 1m42.289 13.8c-2.214 1.407-4.08 7.605-4.728 15.7-.352 4.4-.87 9.473-1.15 11.273-.488 3.129-.277 3.382 4.789 5.74 6.09 2.835 9.446 3.079 14.324 1.041l3.46-1.445-.593-7.805c-.962-12.681-4.177-22.049-8.329-24.271-2.265-1.212-6.053-1.326-7.773-.233"/></svg>
