<svg xmlns="http://www.w3.org/2000/svg" width="512" height="512" viewBox="0 0 512 512"><path fill="#fff" fill-rule="evenodd" d="M216.994 9.934c-15.379 4.678-22.429 16.367-19.887 32.972 1.022 6.676.961 8.062-.478 10.845-2.632 5.09-5.425 7.036-14.045 9.785-4.446 1.418-10.334 4.103-13.084 5.965s-7.176 3.873-9.836 4.466c-13.528 3.021-21.489 11.915-22.366 24.988-.291 4.338-1.339 8.394-3.106 12.029-2.109 4.336-2.67 6.954-2.68 12.5-.024 13.945 1.308 30.255 2.647 32.411.738 1.188 3.366 3.117 5.841 4.287 10.599 5.008 10.672 7.945.607 24.318-5.252 8.543-6.931 15.098-6.411 25.017.329 6.261 1.066 9.498 3.117 13.691 3.142 6.422 3.202 6.792 1.088 6.792-.879 0-2.904 1.398-4.5 3.106-2.4 2.569-2.901 3.969-2.901 8.1 0 4.346.441 5.435 3.4 8.394 1.87 1.87 4.345 3.4 5.5 3.4 1.85 0 2.1.588 2.1 4.943 0 5.724 2.229 8.057 7.698 8.057 3.054 0 3.217.176 2.673 2.896-.85 4.247 2.358 7.104 7.974 7.104 5.015 0 7.655-2.182 7.655-6.329 0-1.469.338-2.67.75-2.668s2.16 8.664 3.883 19.25c2.615 16.061 2.904 19.379 1.75 20.047-1.423.823-1.807 5.518-.768 9.393.382 1.423 1.507 2.302 3.201 2.5 2.079.244 2.77 1.023 3.38 3.807.898 4.093-.871 13.029-2.869 14.5-1.458 1.073-10.327 26.413-10.327 29.506 0 2.324-1.327 2.701-12.5 3.554-12.951.988-15.93 3.029-15.71 10.762.23 8.097 9.715 11.626 18.734 6.97 1.087-.561 6.363-1.315 11.726-1.676l9.75-.656v3.338c0 1.837.701 5.699 1.558 8.584l1.557 5.245-4.698 8.015c-2.585 4.408-5.648 8.365-6.808 8.793s-5.259 1.087-9.109 1.464-18.25 2.48-32 4.673c-22.945 3.66-25.185 4.196-27.25 6.514q-2.25 2.525-2.25 6.348c0 3.391.613 4.347 5.419 8.453 4.026 3.439 6.539 4.783 9.779 5.227 5.786.793 11.493-1.535 12.375-5.048.354-1.411.823-2.566 1.041-2.566.219 0 9.378-1.584 20.355-3.519l19.957-3.519 33.287 9.619a67887 67887 0 0 0 55.287 15.952c12.1 3.483 21.775 6.364 21.5 6.404-2.466.351-26.907 5.251-28.261 5.665-.968.297-2.431 1.835-3.25 3.419-3.288 6.359-.899 12.804 5.723 15.435 2.358.937 5.307 2.652 6.552 3.811 1.613 1.502 3.91 2.213 8 2.475 7.356.472 12.585-1.929 13.052-5.992.175-1.513 1.099-3.169 2.055-3.681 1.925-1.03 43.732-9.273 71.426-14.083l17.798-3.09 1.804 2.227c1.412 1.744 3.131 2.324 7.916 2.67 8.09.585 11-.252 12.41-3.571.636-1.497 2.046-3.731 3.133-4.964 2.665-3.025 2.699-10.432.061-13.347-4.721-5.217-9.708-5.897-24.919-3.397-4.95.813-9.614 1.48-10.365 1.482s1.348-2.896 4.664-6.44c10.517-11.243 17.737-23.776 22.525-39.1 11.796-37.754 6.265-78.842-15.063-111.911-4.421-6.855-17.567-20.82-24.115-25.618l-3.354-2.458 1.604-30.059c.882-16.533 1.604-34.582 1.604-40.109 0-15.467-2.602-20.917-14.566-30.504-3.531-2.83-6.297-5.267-6.148-5.417s3.716-.482 7.925-.739c9.422-.575 12.772-2.083 15.07-6.783 1.461-2.988 1.623-4.65.9-9.255-.984-6.277-3.004-9.142-6.991-9.916-1.48-.287-4.49-.999-6.69-1.581-4.923-1.303-16.482-1.403-18.446-.16-1.857 1.174-4.353-.134-9.878-5.177-4.855-4.432-10.607-7.235-16.948-8.261-3.451-.558-4.584-1.298-5.898-3.85-2.63-5.107-6.131-9.248-10.205-12.072-3.141-2.176-4.107-3.7-5.484-8.652C269.807 85.74 259.946 77.113 251 77c-1.925-.025-4.529-.837-5.787-1.805l-2.287-1.76 4.037-8.615c2.22-4.738 4.036-9.898 4.034-11.467s.745-5.934 1.659-9.699c3.774-15.554-3.483-28.788-18.218-33.223-5.057-1.522-13.302-1.757-17.444-.497m-3.494 4.419c-6.067 2.831-11.991 9.151-13.428 14.326-1.363 4.908-1.41 12.648-.072 11.821.55-.34 1-2.859 1-5.599 0-8.402 5.274-16.013 13.5-19.482 5.665-2.388 15.877-2.241 21.523.31 11.54 5.215 14.889 13.09 12.465 29.307-1.607 10.751-2.881 14.838-7.44 23.868-1.748 3.464-3.037 6.384-2.863 6.489a878 878 0 0 1 4.544 2.899c2.325 1.489 5.602 2.708 7.282 2.708 9.106 0 17.526 8.658 19.448 20 .463 2.727 1.499 4.052 4.691 6 4.653 2.838 10.212 9.593 12.027 14.612 1.154 3.193 1.494 3.388 5.902 3.388 5.836 0 10.227 1.803 16.538 6.791 5.618 4.442 8.675 6.226 10.567 6.17.724-.022-.044-.632-1.707-1.357-1.663-.724-5.185-3.188-7.828-5.475-6.369-5.512-9.818-7.188-16.137-7.84-4.816-.497-5.404-.839-6.929-4.037-2.67-5.6-6.446-9.982-11.175-12.97-2.891-1.826-4.405-3.494-4.406-4.854-.004-4.188-3.158-11.146-6.71-14.804-4.58-4.715-7.975-6.483-14.025-7.305-2.622-.355-6.168-1.561-7.88-2.678l-3.112-2.031 4.335-9.055c4.289-8.958 6.114-16.205 7.104-28.222.911-11.052-5.01-20.056-15.658-23.813-6.52-2.301-15.593-1.95-21.556.833m3 3.869c-5.076 1.799-8.649 4.895-10.595 9.179-2.269 4.997-2.521 10.599-.476 10.599 1.573 0 4.941 2.964 4.204 3.7-.254.254-1.429-.056-2.611-.688-2.651-1.419-5.024.171-5.018 3.36.006 3.299 3.607 8.435 6.171 8.8 1.798.257 2.431 1.151 2.91 4.115.819 5.07 4.877 9.088 13.463 13.333 9.409 4.652 10.983 4.061 15.392-5.779 3.769-8.41 7.266-25.7 6.371-31.497-1.175-7.613-5.017-12.27-12.215-14.81-4.938-1.742-13.152-1.888-17.596-.312M200 52.965c0 1.378-1.701 3.979-4.25 6.498-3.417 3.377-5.932 4.719-12.828 6.847-5.095 1.573-10.375 4.013-13 6.01-2.631 2.001-6.18 3.64-8.764 4.048-8.538 1.347-16.487 7.368-19.607 14.85-.853 2.045-1.551 6.475-1.551 9.846 0 4.333-.541 6.904-1.847 8.782-3.742 5.377-4.225 8.876-3.537 25.615.739 17.996 1.571 20.786 6.705 22.48 1.846.609 4.874 2.227 6.729 3.596 5.292 3.904 4.367 9.145-3.865 21.914-6.957 10.791-9.276 21.706-6.739 31.708 1.634 6.438 7.411 16.188 10.234 17.272.852.327.151-.999-1.559-2.946-5.576-6.35-7.44-11.187-7.896-20.485-.763-15.567 4.375-23.932 15.153-24.668l5.122-.35-4 1.511c-6.309 2.383-8.372 3.663-10.064 6.246-1.513 2.308-1.495 2.363.427 1.334 4.142-2.216 4.494-.922.637 2.34l-4 3.384v9.268c0 6.526.37 9.392 1.25 9.685.688.229 1.25 1.204 1.25 2.167 0 3.873 1.478 2.844 2.956-2.06.862-2.859 2.128-5.385 2.813-5.613.95-.317 1.007.216.239 2.235-.554 1.458-1.008 5.072-1.008 8.03 0 4.141.518 5.978 2.25 7.981l2.25 2.601.082-5.577c.045-3.068.608-6.104 1.25-6.746.891-.891 1.168.193 1.168 4.564 0 6.066 1.636 11.118 4.973 15.361L163 243.27l.011-8.385c.023-18.046 8.66-32.638 22.339-37.741l5.136-1.916-3.993-1.108c-5.542-1.539-13.465-1.394-18.367.336-2.269.8-4.126 1.037-4.126.525 0-1.494 5.628-3.981 9.009-3.981 4.601 0 2.671-1.78-2.782-2.567-7.237-1.044-8.61-2.367-2.494-2.403 7.998-.046 39.31 11.463 48.629 17.875 2.474 1.702 5.71 3.095 7.191 3.095 2.316 0 2.513.216 1.408 1.547-1.089 1.312-.612 2.262 3.127 6.232 2.427 2.576 4.518 4.873 4.648 5.105s1.223-.833 2.429-2.367c2.948-3.747 10.625-8.51 13.781-8.549 2.505-.031 2.516-.062.554-1.607-3.85-3.033-15.971-8.361-18.972-8.339-1.665.012-4.976.906-7.357 1.986-5.951 2.701-4.891.239 1.261-2.927 4.537-2.335 4.659-2.504 2.423-3.345-2.304-.866-7.944-.407-11.432.932-3.094 1.187-.556-1.552 3.245-3.502l3.539-1.816-3.258-1.578c-3.063-1.483-3.504-1.451-7.326.542-4.486 2.338-14.655 3.406-18.514 1.943-1.963-.743-.956-1.108 5.624-2.039 10.445-1.477 16.267-3.783 16.267-6.443 0-1.626-.429-1.873-2.25-1.3-12.791 4.026-20.1 4.47-33.869 2.055-4.61-.808-12.341-2.812-17.18-4.453-7.466-2.532-8.887-2.756-9.376-1.482-.322.839.251 2.127 1.3 2.921 1.777 1.346 1.742 1.422-.684 1.452-1.407.018-3.432.693-4.5 1.5-3.44 2.603-3.421 1.66.103-4.982 2.034-3.835 3.456-7.949 3.456-10 0-1.917.113-3.48.25-3.473s3.103.907 6.589 2c5.327 1.67 8.839 1.96 22 1.815l15.661-.171-17.5-.655c-19.15-.717-21.505-1.304-30.145-7.51-2.673-1.921-5.248-3.492-5.722-3.492s-2.049-.933-3.498-2.073c-2.411-1.896-2.634-2.683-2.628-9.25.003-3.947-.518-10.62-1.158-14.828-1.328-8.725-.255-14.498 3.81-20.487 1.886-2.78 2.224-4.241 1.716-7.417-1.874-11.724 7.415-22.939 21.132-25.512 2.121-.398 5.74-2.161 8.042-3.918 2.345-1.791 8.045-4.424 12.966-5.991 9.849-3.136 15.914-7.646 17.013-12.651.364-1.659.394-3.284.067-3.611s-.595.439-.595 1.703m3.677 4.185c-.348 1.386-.896 5.857-1.218 9.935s-.813 8.517-1.091 9.863c-.917 4.444-2.336.049-2.353-7.287L199 62.822l-2.899 2.44c-1.595 1.342-6.851 3.671-11.68 5.177-7.743 2.414-9.439 3.393-14.351 8.28-3.063 3.049-4.073 4.359-2.243 2.912 4.406-3.485 7.65-4.186 12.889-2.784 4.695 1.255 9.648-.067 13.614-3.635 1.807-1.626 1.884-1.614 1.529.253-.205 1.08-1.835 2.95-3.623 4.155l-3.25 2.19 11.385 3.586c10.26 3.231 16.969 6.627 15.629 7.911-.275.263-6.575-1.496-14-3.909-7.425-2.414-13.76-4.39-14.077-4.393s-.401 1.232-.186 2.745c.214 1.513-.3 3.65-1.142 4.75-1.442 1.883-1.533 1.722-1.563-2.75-.07-10.406-9.034-11.837-18.429-2.94-2.608 2.469-3.628 3.028-3.084 1.69.781-1.919.912-7.402.194-8.12-.721-.721-7.147 1.658-10.378 3.843-4.073 2.753-8.347 10.848-8.302 15.723.018 1.955.848 5.916 1.846 8.804 2 5.79 1.799 6.235-1.445 3.188l-2.195-2.062-2.12 4.378c-1.438 2.971-2.114 6.284-2.104 10.312.021 8.018 1.136 9.486 3.366 4.433 1.872-4.245 4.218-5.572 3.09-1.749-.365 1.238-1.745 4.667-3.067 7.621S140 141.597 140 143.253c0 4.086 3.324 9.17 7.234 11.064 3.444 1.668 4.889 1.406 2.949-.534-2.363-2.363-1.076-2.55 4.067-.593 2.887 1.098 8.596 2.638 12.685 3.422s7.652 1.642 7.917 1.907c1.189 1.189-14.042.325-17.829-1.011-2.803-.989-4.785-1.178-5.876-.56-1.313.743-.227 1.58 5.353 4.127 6.594 3.01 7.813 3.219 21 3.601l14 .405-5.204-2.328c-6.947-3.107-7.237-3.606-1.567-2.693 5.695.917 9.829 2.416 10.743 3.895.927 1.5 2.528.302 2.528-1.892 0-1 .696-2.396 1.547-3.102 1.236-1.026 1.287-1.45.25-2.107-.713-.453-2.13-.83-3.149-.839-1.018-.008-7.168-2.512-13.666-5.564s-13.427-5.811-15.398-6.131c-3.639-.591-5.036-2.34-1.834-2.296 2.04.028 7.869 1.4 10.75 2.53l2 .785-2-2.278c-3.745-4.265-11.402-7.353-18.5-7.462-3.575-.054-7.566.286-8.868.756-3.639 1.314-2.221-1.302 1.906-3.515 2.468-1.324 5.56-1.84 11.022-1.84 6.599 0 7.859-.294 9.641-2.25 3.402-3.735 4.3-6.341 4.284-12.434-.022-8.392-1.426-9.717-8.41-7.936-4.9 1.25-1.314-1.913 4.568-4.029 2.768-.995 6.793-3.316 8.945-5.158 4.339-3.714 5.387-2.338 1.745 2.293l-2.168 2.755 2.41-.765c1.984-.63 2.21-.519 1.276.63-.865 1.065-.606 2.573 1.1 6.394 3.015 6.753 6.885 11.113 12.426 13.999l4.623 2.408-4.316.046c-2.373.026-5.298-.433-6.5-1.02-1.853-.906-1.805-.761.316.953 5.235 4.231 15.278 4.958 20.736 1.502 4.598-2.911 5.684-6.077 6.281-18.307.529-10.832.655-11.387 1.941-8.581.92 2.007 1.341 6.536 1.271 13.679-.116 11.924.398 13.021 6.1 13.021 2.866 0 9.671-2.524 9.671-3.587 0-.185-1.192-.108-2.649.171-1.828.349-2.429.151-1.941-.639.39-.63 1.275-1.145 1.969-1.145 4.564 0 15.792-16.04 12.606-18.009-.831-.514-.537-1.191.978-2.253l2.167-1.517-2.565-2.565c-3.79-3.79-3.114-5.047 1.185-2.204 2.063 1.364 5.281 3.013 7.151 3.665l3.402 1.184-3.543 1.818c-2.182 1.119-3.945 2.972-4.591 4.826-.924 2.65-.669 3.573 2.141 7.743 1.755 2.604 5.569 6.664 8.477 9.023s4.799 4.289 4.201 4.289c-1.433 0-6.967-2.824-9.488-4.842-1.1-.881-.043.474 2.35 3.01 2.418 2.563 7.159 5.981 10.675 7.695 6.206 3.026 8.814 5.137 6.347 5.137-2.059 0 4.363 6.051 8.128 7.658 1.925.822 6.781 1.752 10.791 2.066 7.018.549 7.404.463 10.284-2.296 2.576-2.468 3.945-2.92 9.846-3.254l6.854-.387 1.207 3.66c.665 2.012.932 4.76.594 6.106-.811 3.231 1.635 3.3 3.728.105 1.977-3.017 1.186-14.533-1.057-15.393-.803-.308-3.449.406-5.88 1.587-4.983 2.421-6.48 2.667-6.117 1.004.138-.63-1.202-1.54-2.977-2.023s-3.704-1.77-4.288-2.86c-1.481-2.769-12.211-7.973-16.437-7.973-2.937 0-3.615.42-4.156 2.574-.368 1.465-.066 3.726.699 5.25.74 1.472 1.51 3.017 1.713 3.434.202.417-.825.304-2.283-.25S283.549 138 281.935 138c-3.225 0-3.745-1.083-1.44-2.996.823-.683 2.015-2.973 2.649-5.09.955-3.187.861-4.613-.548-8.302-2.043-5.349-8.887-11.95-15.19-14.652-2.512-1.077-4.252-2.401-3.901-2.968.348-.564 1.021-.785 1.495-.492 1.566.968 1.898-1.063.85-5.194-1.095-4.313-5.666-10.602-9.004-12.388-1.801-.964-1.891-.87-.913.958.965 1.802.464 1.7-4.517-.92-3.963-2.085-6.38-2.767-8.259-2.332-2.892.67-5.407 3.162-4.566 4.523.29.469-.097.853-.86.853-.762 0-4.155 1.125-7.539 2.5-6.799 2.763-8.192 3.008-8.192 1.445 0-.58 2.588-2.208 5.75-3.617 5.038-2.245 5.484-2.663 3.602-3.375-1.181-.447-2.461-1.32-2.844-1.94-.448-.726-1.924.138-4.15 2.43-4.413 4.544-6.164 4.572-3.457.057l4.169-6.95 2.069-3.451-5.92-2.989c-8.286-4.182-12.174-7.753-14.716-13.513-2.035-4.61-2.239-4.786-2.826-2.447m6.329 20.433c.008 4.227 1.792 10.004 3.535 11.451 2.514 2.086 2.481.709-.157-6.556-2.969-8.181-3.386-8.784-3.378-4.895m20.398.808c-.724 1.885.957 4.271 3.598 5.11 1.001.317 3.295-.319 5.097-1.415l3.277-1.993-2.938-1.119c-5.649-2.152-8.365-2.328-9.034-.583m-51.415 30.49c.746 1.454 1.072 5.042.836 9.212-.325 5.748-.902 7.563-3.641 11.449-2.574 3.651-2.885 4.547-1.483 4.277.975-.188 2.878-2.345 4.229-4.795 3.242-5.878 3.65-17.905.703-20.733-1.808-1.735-1.828-1.716-.644.59m-22.902 2.584c-2.649 2.903-3.166 5.596-1.726 8.995l1.254 2.96 3.193-6.822c1.755-3.753 3.192-6.969 3.192-7.148 0-1.156-4.381.337-5.913 2.015m28.935 5.118c.029 1.205 2.96 4.638 5.478 6.417 1.1.777.425-.363-1.5-2.533s-3.613-4.137-3.75-4.373c-.137-.235-.24-.015-.228.489m59.083 5.498c-2.295 3.255-5.282 6.644-6.639 7.533-1.356.889-2.466 2.176-2.466 2.86s-1.344 3.895-2.987 7.135c-3.45 6.802-3.522 7.058-1.526 5.402.818-.679 2.422-3.772 3.564-6.873 2.223-6.031 13.909-19.757 14.729-17.298 1.175 3.526 7.471 10.118 13.243 13.866 3.562 2.314 8.952 6.644 11.977 9.624 7.714 7.596 10.828 8.972 21 9.275l8.5.254-7.743-.809c-10.001-1.044-17.409-4.59-21.91-10.487-1.841-2.411-5.267-5.323-7.614-6.469-6.047-2.954-12.73-9.443-15.546-15.095l-2.409-4.834zm-1.069 7.382c-2.375 2.42-5.295 6.883-6.592 10.072l-2.327 5.727 3.109 3.869c2.684 3.341 3.666 3.872 7.191 3.891 5.786.031 11.361 2.909 16.653 8.596 10.56 11.349 13.166 18.921 15.442 44.871l1.739 19.839 6.495 8.586c7.112 9.402 8.83 12.644 9.757 18.409.513 3.187.855 3.625 2.056 2.628 1.159-.962 1.441-4.793 1.441-19.573V218h-6.927c-7.546 0-9.213-1.094-12.032-7.901-1.213-2.928-1.012-3.26 10.857-17.933 6.651-8.222 12.807-15.223 13.679-15.557.873-.335 4.696-.609 8.497-.609h6.91l-7.242-6.298c-4.509-3.921-7.589-7.457-8.162-9.369-.902-3.011-1.067-3.081-8.565-3.595-10.258-.703-16.853-3.646-22.813-10.181-2.586-2.835-7.339-6.708-10.562-8.606s-7.768-5.562-10.1-8.142l-4.239-4.691zm-25.434-.576c-5.266 5.819-19.729 6.779-29.473 1.957-4.323-2.14-5.381-2.351-5.835-1.169-.307.803.698 2.751 2.263 4.385 3.171 3.309 2.849 3.554-2.008 1.525-1.862-.778-3.629-1.171-3.927-.874-.297.297 1.688 3.103 4.412 6.235 3.859 4.437 6.393 6.285 11.479 8.374 3.59 1.474 7.313 2.68 8.275 2.68 2.837 0 9.212-4.869 9.212-7.036 0-1.08-.338-1.963-.75-1.963-2.991.005-15.557 3.009-16.76 4.007-1.728 1.434-1.916.657-.487-2.013.67-1.252.67-2.079 0-2.493-.552-.341-1.003-1.248-1.003-2.015 0-1.135.529-1.09 2.853.243 2.657 1.525 3.384 1.513 10.584-.183 6.202-1.46 7.943-2.287 8.807-4.184 1.384-3.037 3.124-3.066 2.546-.043-.377 1.972.199 2.551 3.84 3.861 4.103 1.475 4.359 1.451 6.077-.57 1.867-2.198 4.293-6.208 4.293-7.097 0-.283-1.372-.514-3.05-.514-3.338 0-8.555-2.316-9.135-4.056-.211-.631-1.151-.23-2.213.943M284 135c0 .733.3 1.033.667.667a.95.95 0 0 0 0-1.334c-.367-.366-.667-.066-.667.667m41 .5c0 .275.225.5.5.5s.5-.225.5-.5-.225-.5-.5-.5-.5.225-.5.5m5.309.288c-.657.418.55.757 2.691.757s3.348-.339 2.691-.757c-.655-.417-1.866-.757-2.691-.757s-2.036.34-2.691.757m-7.976.879a.95.95 0 0 0 1.334 0c.366-.367.066-.667-.667-.667s-1.033.3-.667.667M339 136.5c0 .275.225.5.5.5s.5-.225.5-.5-.225-.5-.5-.5-.5.225-.5.5m3 1.454c.825.559 2.14 1.022 2.921 1.031.782.008 2.244.76 3.25 1.67 1.031.933 1.829 1.166 1.829.535 0-1.342-2.412-2.671-6.5-3.582-2.192-.489-2.596-.395-1.5.346m-166 .546c0 .275.225.5.5.5s.5-.225.5-.5-.225-.5-.5-.5-.5.225-.5.5m154.471.547c-.356.577-.107 3.302.554 6.058s.937 6.334.614 7.952c-.673 3.363.306 3.766 2.706 1.114 1.986-2.195 2.318-13.108.455-14.971-1.479-1.479-3.466-1.549-4.329-.153m7.173 1.719c-.26.422-.074 2.901.413 5.51.538 2.881.514 5.721-.061 7.234-.737 1.939-.628 2.49.494 2.49 2.304 0 3.51-3.414 3.51-9.934 0-5.338-.233-6.066-1.941-6.066-1.068 0-2.154.345-2.415.766m6.685 7.233c.094 3.85.493 7 .886 7 2.536.002 3.842-10.542 1.585-12.799-2.221-2.221-2.642-1.231-2.471 5.799m-129.539-3.024c-.472 3.22-.948 3.121 6.96 1.441l2.75-.585-2.361-1.915c-3.674-2.982-6.822-2.528-7.349 1.059m-72.21-1.105c-1.036 1.677 2.987 3.923 8.298 4.634 5.912.79 6.587-.814.861-2.048-1.782-.383-4.451-1.316-5.932-2.073s-2.933-.987-3.227-.513m207.499.713c.048 1.165.285 1.402.604.605.289-.722.253-1.585-.079-1.917s-.568.258-.525 1.312m-41.166 3.699c-5.741 4.408-4.695 12.743 2.193 17.471 1.588 1.09 1.132.229-1.356-2.558-4.54-5.085-4.861-8.721-1.161-13.118 2.772-3.294 2.851-3.735.324-1.795M350.232 150c0 1.925.206 2.713.457 1.75.252-.963.252-2.537 0-3.5-.251-.963-.457-.175-.457 1.75M230 148.5c0 .275.225.5.5.5s.5-.225.5-.5-.225-.5-.5-.5-.5.225-.5.5m83 1.806c-3.205 1.094-3.5 1.525-3.5 5.132 0 3.718.548 4.429 9.82 12.75 8.628 7.742 10.267 8.809 13.5 8.787l3.68-.025-4.052-3.725c-2.229-2.049-7.067-6.342-10.75-9.54-6.944-6.027-8.472-9.408-4.698-10.395 2.157-.564 2.823-4.327.75-4.234-.687.031-2.825.594-4.75 1.25M140 151c0 .55.477 1 1.059 1s.781-.45.441-1-.816-1-1.059-1-.441.45-.441 1m70 .5c0 .275.225.5.5.5s.5-.225.5-.5-.225-.5-.5-.5-.5.225-.5.5m14 .873c0 .755.904 3.416 2.008 5.913 1.548 3.499 1.783 5.133 1.025 7.127-1.146 3.015-.054 3.373 2.312.758 2.097-2.317 2.09-4.486-.038-10.421-1.175-3.28-2.26-4.75-3.505-4.75-.991 0-1.802.618-1.802 1.373m6-.5c0 .48.913 2.937 2.029 5.46 1.374 3.106 1.805 5.488 1.334 7.377-.621 2.492-.521 2.647.932 1.45.895-.737 1.893-2.176 2.217-3.197.763-2.405-3.34-11.963-5.135-11.963-.757 0-1.377.393-1.377.873m6.943 2.837c1.132 2.316 2.093 5.466 2.136 7 .043 1.535.314 2.203.601 1.486.864-2.156-.591-7.533-2.758-10.196-2.028-2.491-2.027-2.484.021 1.71m-19.454-1.692c-.346.56.348 2.6 1.543 4.533 1.545 2.501 2.063 4.659 1.793 7.482-.427 4.48.343 4.993 2.618 1.744 2.035-2.904 1.964-4.661-.407-10.194-1.861-4.34-4.156-5.815-5.547-3.565m-7.294 1.332-2.305 1.279 2.501 1.14c3.234 1.473 5.38 7.922 3.688 11.084-1.483 2.771.212 2.856 2.921.147 2.525-2.525 2.507-3.951-.123-10.065-2.247-5.223-3.001-5.628-6.682-3.585m136.944 1.683c-1.298 1.082-1.93 1.967-1.405 1.967.526 0 1.771-.9 2.766-2 2.287-2.527 1.695-2.513-1.361.033m-96.08 1.937c4.267 2.256 9.278 7.154 12.563 12.28 1.322 2.063 2.633 3.75 2.914 3.75.683 0-2.274-4.605-6.007-9.354-2.816-3.582-10.029-8.703-12.117-8.602-.502.025.689.891 2.647 1.926M340 158c-.825.533-1.05.969-.5.969s1.675-.436 2.5-.969 1.05-.969.5-.969-1.675.436-2.5.969m-18 .5c0 .275.225.5.5.5s.5-.225.5-.5-.225-.5-.5-.5-.5.225-.5.5m12 0c0 .275.225.5.5.5s.5-.225.5-.5-.225-.5-.5-.5-.5.225-.5.5m-91 2.5c0 3.176.217 3.433 3.957 4.698 4.697 1.589 9.531 7.202 13.73 15.942 4.08 8.492 3.595 4.494 12.357 101.86 4.889 54.33 6.436 68.353 7.698 69.756.868.966 1.756 1.579 1.973 1.362.216-.216-.751-12.931-2.15-28.256a9129 9129 0 0 1-5.049-57.862c-2.521-30.206-3.534-42.114-5.611-66-.622-7.15-1.973-15.732-3.003-19.072C263.115 171.146 252.647 159 245.85 159c-2.183 0-2.85.468-2.85 2m-38 3.5c0 3.202.27 3.601 2.25 3.32 1.762-.251 2.25-.97 2.25-3.32s-.488-3.069-2.25-3.32c-1.98-.281-2.25.118-2.25 3.32m33 1c0 .275.225.5.5.5s.5-.225.5-.5-.225-.5-.5-.5-.5.225-.5.5m91 .878c0 .207.788.995 1.75 1.75 1.586 1.243 1.621 1.208.378-.378-1.307-1.666-2.128-2.195-2.128-1.372m-93.345 3.079c-.326.849-1.758 1.543-3.183 1.543s-2.338.408-2.03.906 1.445.675 2.526.392c2.173-.568 4.612-3.051 3.798-3.865-.285-.286-.785.175-1.111 1.024M155 171.382c0 2.112.936 2.671 8.25 4.923 13.987 4.308 18.872 5.158 29.75 5.177 10.939.019 20-2.204 20-4.906 0-2.606-22.623-6.032-34.49-5.223-6.276.428-11.134.165-16.01-.869-3.849-.816-7.112-1.484-7.25-1.484s-.25 1.072-.25 2.382m82.857.666c-2.534 2.847-2.954 2.96-10.2 2.744-4.157-.124-7.77-.012-8.031.248-.26.261-.153 2.04.239 3.954.91 4.449 7.292 9.417 19.597 15.255 4.928 2.338 11.636 6.214 14.906 8.614l5.944 4.363-.657-8.863c-.541-7.295-1.277-10.128-4.162-16.015-3.776-7.704-9.217-13.372-12.778-13.309-1.218.021-3.404 1.375-4.858 3.009M217 171.5c0 .275.225.5.5.5s.5-.225.5-.5-.225-.5-.5-.5-.5.225-.5.5m5.333.167a.95.95 0 0 0 1.334 0c.366-.367.066-.667-.667-.667s-1.033.3-.667.667m4.48.016c.721.289 1.584.253 1.916-.079s-.258-.568-1.312-.525c-1.165.048-1.402.285-.604.604m112.348 3.893c2.527 2.792 4.915 6.088 5.308 7.325s.931 2.033 1.196 1.767c.954-.954-2.584-6.246-6.799-10.168l-4.299-4zM216 175.5c0 .275.225.5.5.5s.5-.225.5-.5-.225-.5-.5-.5-.5.225-.5.5m51 0c0 .275.225.5.5.5s.5-.225.5-.5-.225-.5-.5-.5-.5.225-.5.5m1 2c0 .275.225.5.5.5s.5-.225.5-.5-.225-.5-.5-.5-.5.225-.5.5m71.345 4.2c1.946 3.763 2.073 5.482.521 7.034-.715.715-1.064 4.617-.945 10.545.105 5.176-.288 18.143-.872 28.816-1.969 35.977-2.169 38.185-3.35 37.004-.604-.604-1.796-1.085-2.649-1.069-2.743.054 2.007 2.253 5.457 2.527l3.134.249 1.796-37.246c1.658-34.37 1.673-37.671.19-42.771-.884-3.04-2.356-6.149-3.271-6.908-1.553-1.288-1.553-1.165-.011 1.819m-32.096 1.55c.301.908 4.47 1.326 15.228 1.528 13.192.247 14.675.11 13.546-1.25-1.693-2.04-29.449-2.308-28.774-.278M270 183.5c0 .275.225.5.5.5s.5-.225.5-.5-.225-.5-.5-.5-.5.225-.5.5m-50.5 1.5c.34.55.843 1 1.118 1s.222-.45-.118-1-.843-1-1.118-1-.222.45.118 1m79.327 5.75a517 517 0 0 1-9.588 11.809c-3.163 3.763-4.805 6.526-4.332 7.29.502.813 4.04-2.866 10.427-10.846 5.316-6.642 9.666-12.51 9.666-13.04 0-2.149-1.909-.669-6.173 4.787m-27.748-3.167c.048 1.165.285 1.402.604.605.289-.722.253-1.585-.079-1.917s-.568.258-.525 1.312m75 0c.048 1.165.285 1.402.604.605.289-.722.253-1.585-.079-1.917s-.568.258-.525 1.312M223 188.397c0 .257 1.463 1.492 3.25 2.746 2.306 1.617 2.838 1.766 1.832.513-1.431-1.782-5.082-4.124-5.082-3.259m77.431 10.853a5838 5838 0 0 0-10.259 12c-1.385 1.636-1.104 1.75 4.305 1.75h5.786l-.525-3.915c-.45-3.36-.121-4.302 2.322-6.642 3.013-2.888 10.27-4.33 15.358-3.053 2.19.55 2.447 1.033 1.93 3.622-.329 1.643-.204 2.96.277 2.925.912-.065 12.151-12.785 13.628-15.424.736-1.315-.783-1.513-11.599-1.513h-12.446zM347.3 195c0 3.025.187 4.262.416 2.75s.229-3.988 0-5.5-.416-.275-.416 2.75m-192.079-1.423c-4.721 2.353-11.944 9.033-10.898 10.08.246.245 3.374-1.714 6.952-4.355s7.342-5.312 8.365-5.935c3.922-2.388.466-2.224-4.419.21m117.011.423c0 1.925.206 2.713.457 1.75.252-.963.252-2.537 0-3.5-.251-.963-.457-.175-.457 1.75m63.173-.845c-.443.715-.275.883.44.44.635-.392 1.155-.911 1.155-1.154 0-.834-.883-.439-1.595.714m-96.905 4.627c11.265 5.905 17.696 10.343 19.928 13.748.952 1.454 2.001 2.375 2.329 2.046.944-.943-4.76-6.463-10.506-10.166-5.664-3.651-18.712-10.43-19.976-10.378-.426.017 3.275 2.154 8.225 4.75M292 193.5c0 .275.225.5.5.5s.5-.225.5-.5-.225-.5-.5-.5-.5.225-.5.5m-136.585 5.906c-2.736 1.843-6.173 5.093-7.639 7.222-3.264 4.743-5.117 9.372-3.751 9.372a.966.966 0 0 0 .975-.952c0-.523 1.488-2.436 3.307-4.25 6.689-6.671 12.983-13.841 12.539-14.285-.251-.251-2.695 1.051-5.431 2.893m30.648 1.505c-6.986 2.833-11.327 7.178-15.624 15.643-3.744 7.373-3.939 8.217-3.939 17.025 0 7.851.321 9.7 2.1 12.094 1.156 1.555 3.153 2.982 4.439 3.171 2.178.321 2.125.165-.772-2.273-8.386-7.056-5.057-29.204 5.874-39.08 4.791-4.328 9.458-6.467 16.359-7.496l5-.745-4.5-.069c-2.475-.038-6.496.74-8.937 1.73m17.031.553c1.977.728 5.014 2.058 6.75 2.955S213 205.794 213 205.48c0-.852-10.263-5.47-12-5.4-.825.034.117.656 2.094 1.384m123.549 4.916L321 212.807l.033 20.347.033 20.346 4.417 3.776 4.417 3.776.524-3.276c.762-4.762 2.871-56.815 2.324-57.361-.254-.255-3.001 2.43-6.105 5.965m-135.879-3.384c-7.595 2.286-14.554 9.313-17.871 18.044-2.708 7.126-2.468 9.189 1.326 11.43l3.218 1.901-2.218-2.82c-3.703-4.707-2.533-4.752 4.172-.162 3.515 2.407 9.365 5.365 13 6.575 8.834 2.94 8.585 4.429-.641 3.824-7.285-.478-15.401-3.582-19.139-7.32-1.481-1.481-1.611-1.329-1.611 1.884 0 6.783 5.429 10.784 16.5 12.163l5 .623-2.5-2.127-2.5-2.126 3.5.656c5.096.957 9.357 3.689 10.406 6.672.807 2.294.289 3.36-4.314 8.868-8.372 10.019-10.46 14.965-10.098 23.919.166 4.125.312 15.15.324 24.5.019 14.438-.305 18.17-2.148 24.761-1.193 4.269-2.17 8.656-2.17 9.75 0 2.603 2.201 2.535 4.595-.141 1.048-1.171 3.716-2.911 5.929-3.867 3.943-1.703 4.048-1.881 5.254-8.915 1.73-10.09 4.508-17.822 11.167-31.088 5.752-11.461 7.824-16.789 10.403-26.751 1.142-4.409 1.143-5.071.006-4.128-2.612 2.168-1.315-.727 2.751-6.137 7.722-10.278 11.154-19.833 9.496-26.438-.359-1.428-2.327-4.451-4.375-6.717-3.239-3.586-3.419-4.025-1.389-3.381 2.179.692 2.253.589 1.113-1.541-4-7.474-16.866-17.61-26.608-20.961-6.174-2.125-6.562-2.159-10.578-.95m115.986.166-2.75 1.005-.001 24.666-.002 24.667 5.502-.343 5.501-.342V202l-2.75.079c-1.512.043-3.988.531-5.5 1.083M273.232 206c0 1.925.206 2.713.457 1.75.252-.963.252-2.537 0-3.5-.251-.963-.457-.175-.457 1.75m-58.732 1c.34.55.843 1 1.118 1s.222-.45-.118-1-.843-1-1.118-1-.222.45.118 1m4.5 3.5c1.292 1.375 2.574 2.5 2.849 2.5s-.557-1.125-1.849-2.5-2.574-2.5-2.849-2.5.557 1.125 1.849 2.5m127.336 5.5c0 4.125.177 5.813.392 3.75s.216-5.437 0-7.5c-.215-2.062-.392-.375-.392 3.75m-27.916 14.5c-.001 11 .145 15.636.325 10.303.179-5.333.18-14.333.001-20-.178-5.667-.325-1.303-.326 9.697m-69.672-17.073c-4.493 1.603-10.305 5.876-11.804 8.679-.835 1.56-.609 3.429.986 8.153 2.43 7.196 2.612 12.621.643 19.164l-1.426 4.74 3.394 1.419c3.95 1.65 6.846 1.853 5.959.418-.915-1.481-.432-1.321 7.62 2.525l7.38 3.525-5.5-.51c-3.025-.281-7.974-1.155-10.999-1.943-3.024-.788-5.66-1.272-5.857-1.074s2.277 1.064 5.499 1.925c15.69 4.197 16.669 5.155 11.402 11.153-5.103 5.813-8.005 11.083-9.661 17.545-1.316 5.139-1.371 7.121-.347 12.548.669 3.545.932 8.516.585 11.047-.347 2.53-.291 4.261.124 3.845s.754-7.355.754-15.421c0-14.216.086-14.818 2.807-19.665 3.691-6.575 9.102-12.864 10.629-12.355.797.266.023 2.143-2.233 5.423-7.762 11.285-8.182 12.659-8.225 26.932-.043 14.095-1.252 19.166-7.539 31.62-1.616 3.203-2.939 6.759-2.939 7.902 0 2.023.09 2.011 3.262-.409 2.602-1.984 3.621-3.868 5.031-9.3 2.278-8.777 9.457-23.808 15.249-31.924l4.545-6.369-1.02-10.26c-.561-5.643-1.947-21.06-3.079-34.26l-2.059-24-4.473-4c-5.534-4.949-5.693-6.172-.456-3.5 5.044 2.573 5.226.905.268-2.464-4.298-2.92-3.673-2.839-8.52-1.109m-21.881 4.939c1.802 2.127 3.982 5.502 4.843 7.5.862 1.999 2 4.588 2.529 5.755s1.358 3.641 1.844 5.5c.871 3.334.876 3.326.426-.596-.621-5.41-5.686-15.391-9.658-19.035l-3.261-2.99zM300.42 237.5c-.001 11 .145 15.636.325 10.303.179-5.333.18-14.333.001-20-.178-5.667-.325-1.303-.326 9.697m-81.632-9.032c1.492 2.458 3.05 4.483 3.462 4.5 1.703.072.577-4.232-1.705-6.513-3.863-3.863-4.724-2.876-1.757 2.013m126.54 6.032c.005 3.85.185 5.302.402 3.228.216-2.075.213-5.225-.008-7s-.398-.078-.394 3.772m-67.328-3c0 .275.225.5.5.5s.5-.225.5-.5-.225-.5-.5-.5-.5.225-.5.5m-141.328 2.543c-5.437 4.277-3.997 13.602 2.447 15.849 1.749.609 5.925 1.042 9.28.961l6.101-.146-7.129-.659c-3.92-.362-8.252-1.396-9.627-2.296-5.15-3.375-4.263-11.258 1.593-14.146 1.74-.858 2.436-1.571 1.548-1.583s-2.784.896-4.213 2.02M283.348 239c2.618 3.575 5.393 7.85 6.167 9.5s1.424 2.367 1.446 1.594c.044-1.572-8.561-14.541-10.881-16.4-.821-.656.65 1.731 3.268 5.306M139 237c-3.915 3.915-1.819 8.56 4.527 10.031 2.185.507 6.59.932 9.789.945s6.798.493 8 1.066c1.944.927 1.922.845-.201-.75-1.311-.986-5.175-4.38-8.585-7.542-6.8-6.306-10.068-7.212-13.53-3.75m14 .5c1.292 1.375 2.574 2.5 2.849 2.5s-.557-1.125-1.849-2.5-2.574-2.5-2.849-2.5.557 1.125 1.849 2.5m126.025 1c-.009.55.651 8.2 1.467 17s1.5 16.9 1.52 18c.073 4.124 5.145-10.246 5.647-16 .507-5.806.376-6.226-4.046-13-2.514-3.85-4.578-6.55-4.588-6M276 241c0 .733.3 1.033.667.667a.95.95 0 0 0 0-1.334c-.367-.366-.667-.066-.667.667m-39.877 2.5c-.083 1.1-.382 3.125-.665 4.5l-.514 2.5 1.071-2.453c.589-1.349.888-3.374.664-4.5-.396-1.994-.411-1.995-.556-.047m-27.695 6.568c.805 7.116 1.448 9.126 2.677 8.367 1.382-.854.996-10.718-.497-12.685-2.316-3.051-2.886-1.923-2.18 4.318M333 251c0 .733.3 1.033.667.667a.95.95 0 0 0 0-1.334c-.367-.366-.667-.066-.667.667m-101.148 5.058c-1.442 2.705-2.217 4.668-1.723 4.362 1.074-.663 5.155-8.469 4.678-8.946-.183-.183-1.513 1.88-2.955 4.584M344 252c0 .733.3 1.033.667.667a.95.95 0 0 0 0-1.334c-.367-.366-.667-.066-.667.667m-147 .5c0 .275.225.5.5.5s.5-.225.5-.5-.225-.5-.5-.5-.5.225-.5.5m-41.75 2.243c-6.888.327-7.25.464-7.25 2.742 0 1.318.338 2.594.75 2.835.412.24 7.613.76 16 1.154 13.593.639 15.25.543 15.25-.879 0-.877-.113-1.665-.25-1.75s-7-.451-15.25-.813l-15-.659 14.61-.186c8.036-.103 16.811-.441 19.5-.752 3.825-.442 4.509-.322 3.14.55-1.725 1.098-2.504 6.015-.953 6.015.438 0 2.487-1.73 4.552-3.845l3.754-3.845-10.707-.655c-10.431-.638-13.076-.63-28.146.088m135.945 1.757c.02 1.65.244 2.204.498 1.231s.237-2.323-.037-3-.481.119-.461 1.769m41.805-2c0 .275.225.5.5.5s.5-.225.5-.5-.225-.5-.5-.5-.5.225-.5.5m-136.595 1.655c-.443.715-.275.883.44.44.635-.392 1.155-.911 1.155-1.154 0-.834-.883-.439-1.595.714m147.753.845c0 1.375.227 1.938.504 1.25.278-.687.278-1.812 0-2.5-.277-.687-.504-.125-.504 1.25m-40.021.369c-5.373 1.944-10.759 7.16-13.809 13.372L287.5 276.5l-.35 25c-.33 23.571 1.086 52.349 2.884 58.618.952 3.319-.572 10.714-2.69 13.054-1.937 2.141-.961 3.828 2.215 3.828H292l.108-17.25c.059-9.488.404-31.875.767-49.75l.659-32.5 2.98-5.922c5.849-11.627 19.337-17.024 26.309-10.528 2.684 2.5 3.533 2.484 2.183-.04-2.48-4.632-13.038-6.475-20.869-3.641M236 257.5c0 .275.225.5.5.5s.5-.225.5-.5-.225-.5-.5-.5-.5.225-.5.5m-44.677 4.75c-1.114 1.238-2.383 2.925-2.821 3.75-.844 1.591-.614 1.374 3.437-3.25 1.325-1.512 2.185-2.75 1.91-2.75s-1.412 1.012-2.526 2.25m40.613.84c-3.347 4.7-4.936 9.593-4.936 15.196 0 8.034-2.501 14.949-8.068 22.304-6.393 8.446-9.426 14.488-11.848 23.601-3.102 11.669-3.506 15.681-1.775 17.621.828.929 1.996 3.533 2.596 5.787 1.62 6.089 5.168 10.844 8.369 11.217 3.241.377 7.069-3.462 8.789-8.816 1.199-3.73 6.672-12.502 10.966-17.575 1.431-1.691 4.059-7.467 5.839-12.836 3.024-9.12 3.159-10.107 2.058-15.027-2.631-11.759.01-22.24 8.222-32.629 4.584-5.801 5.207-5.193-9.435-9.22l-8.787-2.417zM145 262.5c0 .275.225.5.5.5s.5-.225.5-.5-.225-.5-.5-.5-.5.225-.5.5m82.405.655c-.443.715-.275.883.44.44.635-.392 1.155-.911 1.155-1.154 0-.834-.883-.439-1.595.714m62.178.488c-.918 2.394-.202 2.578 1.213.312.672-1.075.815-1.955.319-1.955s-1.185.739-1.532 1.643M308 263c-.901.582-1.025.975-.309.985.655.008 1.469-.435 1.809-.985.767-1.242.421-1.242-1.5 0m19.333.667a.95.95 0 0 0 1.334 0c.366-.367.066-.667-.667-.667s-1.033.3-.667.667M160 264.5c0 .275.225.5.5.5s.5-.225.5-.5-.225-.5-.5-.5-.5.225-.5.5m118.079 1.083c.048 1.165.285 1.402.604.605.289-.722.253-1.585-.079-1.917s-.568.258-.525 1.312m-102.715 2.167c.288 1.512 1.075 6.033 1.748 10.045s1.542 7.491 1.93 7.731c1.237.764 1.571-17.725.356-19.691-.284-.459-1.425-.835-2.536-.835-1.665 0-1.929.485-1.498 2.75M184 265.5c0 .275.225.5.5.5s.5-.225.5-.5-.225-.5-.5-.5-.5.225-.5.5m42 0c0 .275.225.5.5.5s.5-.225.5-.5-.225-.5-.5-.5-.5.225-.5.5m80.5 1.205-3 1.752 7.5.648c12.992 1.123 20.844 4.125 32.618 12.471 17.948 12.722 33.038 40.075 37.474 67.924 2.997 18.815.674 42.131-6.035 60.573-9.656 26.547-29.41 45.636-50.631 48.929-7.166 1.112-17.042.235-23.039-2.045-3.285-1.249-4.544-.276-2.025 1.566 3.112 2.276 11.616 3.797 22.138 3.96 5.5.085 10.225.574 10.5 1.086.542 1.008-1.846 1.554-30.5 6.967-10.45 1.974-20.039 3.842-21.309 4.15l-2.308.56 2.058 2.192c1.133 1.205 2.059 2.949 2.059 3.876 0 .928.74 1.686 1.645 1.686s13.314-2.252 27.576-5.005c23.496-4.535 53.844-9.847 65.962-11.545 5.39-.756 6.625-2.568 4.235-6.216-1.888-2.88-2.731-2.849-26.726.988-12.015 1.922-13.928 2.018-14.731.743-1.059-1.68-.807-1.894 8.216-6.965 14.295-8.035 27.093-25.155 34.014-45.5 12.705-37.348 7.28-79.883-14.228-111.554-8.991-13.24-24.263-25.632-36.963-29.993-8.773-3.013-20.46-3.608-24.5-1.248m-148.833.962c-1.615 1.615-.498 3.333 2.166 3.333 3.328 0 4.23-.671 3.491-2.598-.549-1.432-4.453-1.939-5.657-.735M183 267.5c0 .275.225.5.5.5s.5-.225.5-.5-.225-.5-.5-.5-.5.225-.5.5m42 .5c0 .733.3 1.033.667.667a.95.95 0 0 0 0-1.334c-.367-.366-.667-.066-.667.667m-39 2c-.589 1.1-.845 2-.57 2s.981-.9 1.57-2 .845-2 .57-2-.981.9-1.57 2m154-1.5c0 .275.225.5.5.5s.5-.225.5-.5-.225-.5-.5-.5-.5.225-.5.5m2.5 1.5c.34.55.816 1 1.059 1s.441-.45.441-1-.477-1-1.059-1-.781.45-.441 1M224 271c0 .733.3 1.033.667.667a.95.95 0 0 0 0-1.334c-.367-.366-.667-.066-.667.667m121 .5c0 .275.225.5.5.5s.5-.225.5-.5-.225-.5-.5-.5-.5.225-.5.5m2.5 1.5c.34.55.843 1 1.118 1s.222-.45-.118-1-.843-1-1.118-1-.222.45.118 1m-45.75 1.08c-3.251 1.893-1.779 2.638 3.25 1.644 2.75-.544 5-1.379 5-1.857 0-1.194-6.104-1.037-8.25.213m12.681.032c-.616.997-.119 1.201 6.942 2.844 6.556 1.526 13.074 4.945 20.979 11.004 7.477 5.731 9.381 6.465 5.085 1.96-4.032-4.227-15.307-11.609-20.583-13.475-6.754-2.389-11.803-3.337-12.423-2.333M223.31 279.5c.005 3.3.192 4.529.415 2.732s.218-4.497-.01-6c-.229-1.503-.411-.032-.405 3.268m61.69-4c0 .275.225.5.5.5s.5-.225.5-.5-.225-.5-.5-.5-.5.225-.5.5m66-.122c0 .207.788.995 1.75 1.75 1.586 1.243 1.621 1.208.378-.378-1.307-1.666-2.128-2.195-2.128-1.372M279 277c0 .733.3 1.033.667.667a.95.95 0 0 0 0-1.334c-.367-.366-.667-.066-.667.667m-96 .5c0 .275.225.5.5.5s.5-.225.5-.5-.225-.5-.5-.5-.5.225-.5.5m12.748 3.705c-6.3 10.848-6.909 12.662-6.185 18.452.377 3.021 1.007 5.122 1.399 4.668 1.079-1.249 8.325-26.371 7.767-26.929-.267-.268-1.609 1.446-2.981 3.809m106.834-3.337c-1.604.348-3.127 1.263-3.383 2.034-.364 1.092.252 1.258 2.792.75 1.792-.359 4.328-.652 5.634-.652 1.444 0 2.375-.588 2.375-1.5 0-1.575-2.198-1.762-7.418-.632m11.418.594c0 .827 1.234 1.764 2.75 2.088 8.85 1.894 15.525 5.295 24.104 12.282 3.41 2.777 5.701 4.013 6.311 3.403 2.141-2.141-15.855-15.1-23.665-17.04-9.111-2.265-9.5-2.295-9.5-.733M282 279c0 .733.3 1.033.667.667a.95.95 0 0 0 0-1.334c-.367-.366-.667-.066-.667.667m2.252 3.5c.011 2.2.216 2.982.455 1.738s.23-3.044-.02-4-.446.062-.435 2.262m-5.252-2c0 .275.225.5.5.5s.5-.225.5-.5-.225-.5-.5-.5-.5.225-.5.5m79 .878c0 .207.788.995 1.75 1.75 1.586 1.243 1.621 1.208.378-.378-1.307-1.666-2.128-2.195-2.128-1.372m-175.91 2.823c-.098 2.937 1.89 13.153 2.45 12.592.19-.189-.264-3.708-1.007-7.819-.744-4.111-1.393-6.259-1.443-4.773m118.984-1.324c-1.334.373-2.621 1.263-2.859 1.978-.335 1.005.67 1.152 4.426.648 6.244-.838 7.359-1.213 7.359-2.472 0-1.133-5.106-1.221-8.926-.154m13.108.829c.204 1.06 1.75 2.002 4.077 2.486 5.19 1.078 13.178 5.27 19.927 10.456 3.942 3.03 5.911 4.004 6.422 3.177 1.682-2.72-13.746-13.358-23.54-16.232-6.797-1.994-7.29-1.986-6.886.113M280.272 287c0 2.475.195 3.488.434 2.25.238-1.238.238-3.262 0-4.5-.239-1.238-.434-.225-.434 2.25m-59.101 2.404c-.705 1.95-3.225 6.145-5.599 9.321-4.457 5.963-9.025 14.155-8.298 14.882.227.227 1.265-1.476 2.307-3.786 1.041-2.31 3.397-6 5.235-8.2 3.741-4.477 8.474-13.251 7.967-14.771-.181-.545-.907.604-1.612 2.554M179.158 289c0 1.375.227 1.938.504 1.25.278-.687.278-1.812 0-2.5-.277-.687-.504-.125-.504 1.25M218 287.5c0 .275.225.5.5.5s.5-.225.5-.5-.225-.5-.5-.5-.5.225-.5.5m82.25.206c-1.238.238-2.25 1.133-2.25 1.989 0 1.208.697 1.416 3.125.93 1.719-.344 4.194-.625 5.5-.625 1.444 0 2.375-.588 2.375-1.5 0-1.5-3.457-1.814-8.75-.794m13.43.687c-.432 1.124.842 1.904 5.123 3.14 6.621 1.91 10.846 4.255 17.447 9.681 4.595 3.778 7.274 4.314 6.086 1.218-.79-2.058-11.967-9.916-17.443-12.263-6.927-2.97-10.536-3.541-11.213-1.776m50.32-.015c0 .207.788.995 1.75 1.75 1.586 1.243 1.621 1.208.378-.378-1.307-1.666-2.128-2.195-2.128-1.372m-63.75 4.328c-1.238.238-2.25 1.133-2.25 1.989 0 1.208.697 1.416 3.125.93 1.719-.344 4.194-.625 5.5-.625 1.444 0 2.375-.588 2.375-1.5 0-1.5-3.457-1.814-8.75-.794m12.75.676c0 .966 1.583 1.967 4.244 2.684 5.817 1.566 10.466 4.056 16.546 8.862 5.715 4.518 6.21 4.725 6.21 2.595 0-.812-2.363-3.355-5.25-5.651-8.469-6.734-21.75-11.918-21.75-8.49M180.648 297.5c.334 2.75.776 5.188.98 5.417.783.877.187-6.516-.679-8.417-.613-1.346-.711-.366-.301 3M368.5 294c.34.55.843 1 1.118 1s.222-.45-.118-1-.843-1-1.118-1-.222.45.118 1m3.011 4.377c.946 1.443 1.908 2.623 2.139 2.623.724 0-1.605-3.854-2.759-4.567-.604-.374-.325.501.62 1.944m-71.761-.688c-.962.252-1.75 1.152-1.75 2.001 0 1.112.628 1.375 2.25.94 1.238-.331 3.712-.609 5.5-.616 2.216-.01 3.25-.491 3.25-1.514 0-1.49-4.981-1.926-9.25-.811m13.25.763c0 .886.563 1.772 1.25 1.969 6.255 1.794 11.695 4.437 16.672 8.101 4.407 3.244 6.05 3.994 6.452 2.946 1.066-2.778-13.265-12.225-21.124-13.924-2.612-.565-3.25-.387-3.25.908m42.959 3.738c2.16 2.855 6.041 9.392 8.624 14.527s4.902 9.131 5.154 8.879C371.26 324.073 355.42 297 353.006 297c-.537 0 .792 2.336 2.953 5.19M177 299c0 .733.3 1.033.667.667a.95.95 0 0 0 0-1.334c-.367-.366-.667-.066-.667.667m88.698 2.25c-2.713 3.669-4.543 6.829-3.04 5.25 1.856-1.949 6.436-8.5 5.944-8.5-.275 0-1.582 1.462-2.904 3.25m84.782-1.218c-.373.604 1.109 3.656 3.293 6.783 4.571 6.541 10.227 17.413 10.227 19.656 0 .841.675 1.529 1.5 1.529s1.5-.147 1.5-.328c0-1.595-5.753-13.82-8.66-18.403-5.433-8.566-7.079-10.5-7.86-9.237M185.158 303c0 1.375.227 1.938.504 1.25.278-.687.278-1.812 0-2.5-.277-.687-.504-.125-.504 1.25M346 301.5c0 .275.225.5.5.5s.5-.225.5-.5-.225-.5-.5-.5-.5.225-.5.5m-46.25 1.189c-.962.252-1.75 1.156-1.75 2.009 0 1.205.699 1.412 3.125.927 1.719-.344 3.969-.625 5-.625s1.875-.675 1.875-1.5c0-1.489-4.109-1.893-8.25-.811m12.89.808c-.39 1.014.288 1.689 2.145 2.136 4.327 1.041 11.839 5.098 15.672 8.463 3.064 2.691 3.616 2.876 4.181 1.405.806-2.101-2.965-5.425-10.638-9.379-7.305-3.764-10.629-4.532-11.36-2.625M375.5 305c.853 1.65 1.776 3 2.051 3s-.198-1.35-1.051-3-1.776-3-2.051-3 .198 1.35 1.051 3m-109.169 1.257c-7.411 11.08-13.284 27.865-14.914 42.624-.567 5.131-.441 6.294.642 5.933.832-.278 2.001-4.152 3.054-10.121 2.197-12.45 5.078-21.299 10.058-30.89 4.254-8.192 5.048-13.358 1.16-7.546m82.119.243c.462 3.123.354 3.612-.491 2.229-1.515-2.48-3.253-1.038-2.477 2.055.563 2.242.447 2.402-.919 1.268-1.612-1.338-2.065-.592-1.638 2.698.09.688-.532 1.25-1.381 1.25-.877 0-1.544.864-1.544 2 0 1.1-.562 1.887-1.25 1.75s-1.252.613-1.254 1.668-.565 2.105-1.25 2.333-1.246.858-1.246 1.399-1.125 2.458-2.5 4.261-2.5 3.798-2.5 4.433c0 .636-.402 1.156-.893 1.156-2.703 0-1.578 5.047 2.66 11.933.146.239.707-.007 1.246-.546.639-.639.286-2.339-1.017-4.895-2.294-4.499-2.292-4.492-1.101-4.492.493 0 1.826 1.88 2.963 4.179 1.506 3.042 2.233 3.748 2.675 2.596.333-.869-.334-3.425-1.484-5.678-2.916-5.717-.965-5.152 2.222.644 2.036 3.703 2.751 4.365 3.265 3.025.388-1.011-.237-3.164-1.521-5.242-1.199-1.94-1.981-4.089-1.737-4.776s1.496.889 2.782 3.502 2.924 4.75 3.639 4.75c1.82 0 1.654-.854-1.223-6.258-1.389-2.608-2.058-4.742-1.487-4.742s2.021 2.025 3.223 4.5c1.203 2.475 2.547 4.5 2.987 4.5 1.454 0 .834-3.21-1.282-6.634-1.145-1.853-1.899-3.921-1.674-4.594.224-.673 1.691 1.015 3.26 3.752 3.503 6.109 3.368 5.938 4.087 5.219.325-.325-.641-3.334-2.146-6.687s-2.444-6.389-2.088-6.746c.357-.356 1.846 2.128 3.31 5.521s3.293 6.169 4.065 6.169c1.75 0 1.084-2.355-2.927-10.351-1.614-3.218-2.714-6.073-2.443-6.343.615-.615 6.458 9.397 7.262 12.444.596 2.259 1.841 2.926 2.742 1.468.266-.429-1.293-4.56-3.464-9.179s-3.779-8.88-3.573-9.469c.207-.588 2.345 3.093 4.752 8.18 4.206 8.891 5.92 11.097 5.92 7.621 0-2.392-8.626-18.304-12.127-22.371l-3.013-3.5zm-48.7 1.189c-.962.252-1.75 1.247-1.75 2.211 0 1.574.512 1.649 5 .729 5.709-1.169 6.969-3.699 1.75-3.513-1.788.064-4.038.322-5 .573m12.403.865c.205 1.065 1.672 2.162 3.54 2.646 1.755.455 6.116 2.789 9.691 5.186 4.616 3.096 6.646 3.977 7.005 3.043 1.013-2.641-10.071-10.141-17.738-12.004-2.405-.584-2.794-.408-2.498 1.129m-53.999 5.196c-3.126 6.252-6.613 16.124-5.935 16.803.233.232 1.234-2.159 2.224-5.315s3.102-8.325 4.693-11.488 2.668-5.75 2.393-5.75-1.794 2.587-3.375 5.75m-79.032-3.846c-1.614 1.021-.651 3.096 1.437 3.096.793 0 1.441-.9 1.441-2 0-2.171-.738-2.452-2.878-1.096M341 309.5c0 .275.225.5.5.5s.5-.225.5-.5-.225-.5-.5-.5-.5.225-.5.5m37 0c0 .275.225.5.5.5s.5-.225.5-.5-.225-.5-.5-.5-.5.225-.5.5m-111.712 6C260.915 326.174 256 343.164 256 351.065c0 4.924 1.77 3.269 2.476-2.315 1.017-8.051 4.266-19.383 8.166-28.492 4.206-9.82 3.947-13.302-.354-4.758m112.712-4c0 .275.225.5.5.5s.5-.225.5-.5-.225-.5-.5-.5-.5.225-.5.5m-78.75 1.531c-1.238.498-2.25 1.642-2.25 2.544 0 1.01.548 1.429 1.429 1.091.786-.302 3.036-.85 5-1.219 4.285-.803 4.934-3.478.821-3.384-1.512.035-3.762.471-5 .968m11.75.891c0 1.186 1.295 2.149 3.96 2.948 2.179.653 5.963 2.715 8.41 4.582 4.324 3.301 5.63 3.528 5.63.979 0-1.704-9.675-7.974-14.25-9.236-3.305-.911-3.75-.825-3.75.727m68-.422c0 .275.225.5.5.5s.5-.225.5-.5-.225-.5-.5-.5-.5.225-.5.5m-42 1c0 .275.225.5.5.5s.5-.225.5-.5-.225-.5-.5-.5-.5.225-.5.5M206 316c0 .733.3 1.033.667.667a.95.95 0 0 0 0-1.334c-.367-.366-.667-.066-.667.667m175-.5c0 .275.225.5.5.5s.5-.225.5-.5-.225-.5-.5-.5-.5.225-.5.5m-113.332 6.744c-2.938 6.399-6.052 17.524-7.14 25.506-1.187 8.707 1.042 6.043 2.928-3.5.951-4.812 3.071-12.238 4.71-16.501 3.688-9.592 3.308-13.796-.498-5.505m33.082-4.082c-1.512.553-2.75 1.651-2.75 2.44 0 1.048.743 1.271 2.75.824 5.491-1.222 6.25-1.585 6.25-2.993 0-1.634-2.251-1.731-6.25-.271M336 317.5c0 .275.225.5.5.5s.5-.225.5-.5-.225-.5-.5-.5-.5.225-.5.5m46 .5c0 .733.3 1.033.667.667a.95.95 0 0 0 0-1.334c-.367-.366-.667-.066-.667.667m-177 1c0 .733.3 1.033.667.667a.95.95 0 0 0 0-1.334c-.367-.366-.667-.066-.667.667m107 .391c0 .766 1.726 2.082 3.835 2.926s5.287 2.756 7.061 4.249c2.34 1.969 3.526 2.412 4.322 1.616 1.533-1.533-.462-3.707-6.669-7.267-5.501-3.156-8.549-3.699-8.549-1.524m71 1.109c0 .275.225.5.5.5s.5-.225.5-.5-.225-.5-.5-.5-.5.225-.5.5M204 322c0 .733.3 1.033.667.667a.95.95 0 0 0 0-1.334c-.367-.366-.667-.066-.667.667m40-.5c0 .275.225.5.5.5s.5-.225.5-.5-.225-.5-.5-.5-.5.225-.5.5m60.5.991c-.55.184-2.238.607-3.75.941-1.599.352-2.75 1.275-2.75 2.204 0 1.168.604 1.435 2.25.994 1.238-.331 3.262-.609 4.5-.616 1.579-.01 2.25-.611 2.25-2.014 0-1.944-.425-2.201-2.5-1.509m6.5 2.06c0 .853 1.462 2.162 3.25 2.909s4.52 2.357 6.071 3.578c1.956 1.539 3.141 1.9 3.863 1.178 1.465-1.465.272-2.971-4.999-6.314-5.059-3.208-8.185-3.724-8.185-1.351m73-1.051c0 .275.225.5.5.5s.5-.225.5-.5-.225-.5-.5-.5-.5.225-.5.5m-141 1c0 .275.225.5.5.5s.5-.225.5-.5-.225-.5-.5-.5-.5.225-.5.5m-40 1c0 .275.225.5.5.5s.5-.225.5-.5-.225-.5-.5-.5-.5.225-.5.5m127.405.655c-.443.715-.275.883.44.44.635-.392 1.155-.911 1.155-1.154 0-.834-.883-.439-1.595.714M385 326c0 .733.3 1.033.667.667a.95.95 0 0 0 0-1.334c-.367-.366-.667-.066-.667.667m-143 1c0 .733.3 1.033.667.667a.95.95 0 0 0 0-1.334c-.367-.366-.667-.066-.667.667m25.696 7.75c-3.216 10.742-4.372 18.25-2.81 18.25.613 0 1.114-.244 1.114-.542 0-2.115 3.338-16.022 4.53-18.876 1.625-3.889 1.931-7.582.628-7.582-.464 0-2.021 3.938-3.462 8.75m-65.617-5.167c.048 1.165.285 1.402.604.605.289-.722.253-1.585-.079-1.917s-.568.258-.525 1.312m97.671-.894c-.962.252-1.75 1.373-1.75 2.491 0 1.528.435 1.866 1.75 1.357.962-.372 2.988-.927 4.5-1.232s2.75-1.174 2.75-1.93c0-1.355-3.443-1.681-7.25-.686M386 329c0 .733.3 1.033.667.667a.95.95 0 0 0 0-1.334c-.367-.366-.667-.066-.667.667m-145.541 1.067c-.363.586-.445 1.281-.183 1.543s.743-.218 1.069-1.067c.676-1.762.1-2.072-.886-.476m70.541.413c0 .813 1.769 2.382 3.932 3.485 2.163 1.104 4.219 2.47 4.569 3.037.82 1.326 2.499.302 2.499-1.525 0-1.716-6.787-6.477-9.232-6.477-.972 0-1.768.666-1.768 1.48m17-.48c0 .733.3 1.033.667.667a.95.95 0 0 0 0-1.334c-.367-.366-.667-.066-.667.667m38-.5c0 .275.225.5.5.5s.5-.225.5-.5-.225-.5-.5-.5-.5.225-.5.5m6.608 9.095c1.262 4.727 2.76 13.57 3.327 19.651 1.138 12.185 2.065 15.126 2.065 6.552 0-9.376-5.096-34.798-6.975-34.798-.392 0 .321 3.868 1.583 8.595m-10.275-6.928a.95.95 0 0 0 1.334 0c.366-.367.066-.667-.667-.667s-1.033.3-.667.667m5.02 2.583c.337 1.788 1.29 6.175 2.117 9.75s1.802 10.663 2.168 15.75c.485 6.768 1.026 9.25 2.013 9.25.812 0 1.337-1.094 1.318-2.75-.109-9.763-5.379-35.25-7.287-35.25-.524 0-.67 1.446-.329 3.25m19.726-1.667c.048 1.165.285 1.402.604.605.289-.722.253-1.585-.079-1.917s-.568.258-.525 1.312M251 333c0 .733.3 1.033.667.667a.95.95 0 0 0 0-1.334c-.367-.366-.667-.066-.667.667m-49.805 2.5c.02 1.65.244 2.204.498 1.231s.237-2.323-.037-3-.481.119-.461 1.769m98.805-1c-2.433 1.391-2.373 1.43 2.25 1.465 3.571.026 4.75-.337 4.75-1.465 0-1.905-3.668-1.905-7 0m25.667-.833c-.367.366-.667 1.131-.667 1.7 0 .626.466.567 1.183-.15.651-.651.951-1.416.667-1.7s-.817-.217-1.183.15M359 333.5c0 .275.225.5.5.5s.5-.225.5-.5-.225-.5-.5-.5-.5.225-.5.5m4.799.036c-.321.53.488 5.689 1.798 11.464 1.309 5.775 2.391 11.85 2.403 13.5.037 5.005 1.203 10.5 2.229 10.5 1.09 0 .441-7.715-1.79-21.262-1.525-9.262-3.665-15.812-4.64-14.202M238 334.5c0 .275.225.5.5.5s.5-.225.5-.5-.225-.5-.5-.5-.5.225-.5.5m73 .901c0 1.694 6.755 5.868 8.125 5.022 1.293-.799-.723-3.164-4.253-4.989-3.444-1.781-3.872-1.785-3.872-.033m44 .658c0 .582.45.781 1 .441s1-.816 1-1.059-.45-.441-1-.441-1 .477-1 1.059m4.556-.15c-.32.518-.138 1.987.403 3.266 1.7 4.012 4.041 17.501 4.041 23.283 0 4.26.347 5.542 1.5 5.542.895 0 1.492-.908 1.48-2.25-.035-3.96-1.915-16.037-3.583-23.009-1.599-6.683-2.71-8.661-3.841-6.832M388 336c0 .733.3 1.033.667.667a.95.95 0 0 0 0-1.334c-.367-.366-.667-.066-.667.667m-207 .5c0 .275.225.5.5.5s.5-.225.5-.5-.225-.5-.5-.5-.5.225-.5.5m51.19 5.827c-2.304 3.48-4.179 6.968-4.167 7.75.013.783 1.332-.827 2.931-3.577s3.625-6.238 4.502-7.75c2.839-4.893 1.036-2.919-3.266 3.577M250 337c0 .733.3 1.033.667.667a.95.95 0 0 0 0-1.334c-.367-.366-.667-.066-.667.667m19.651 5.697c-1.884 8.213-1.979 9.303-.811 9.303 1.038 0 3.607-13.177 2.944-15.102-.265-.769-1.224 1.841-2.133 5.799m52.913-3.99c-.542 1.425-.428 1.54.56.56.684-.679.991-1.486.683-1.793-.308-.308-.867.247-1.243 1.233m33.977-.581c-.363.895.013 4.27.836 7.5 1.164 4.568 3.623 19.466 3.623 21.946 0 .236.486.428 1.08.428 1.818 0-1.117-21.735-3.916-29-.786-2.039-1.085-2.2-1.623-.874m-178.034.863c-.35.566.051.734.941.393 1.732-.665 2.049-1.382.611-1.382-.518 0-1.216.445-1.552.989M351 338.5c0 .275.225.5.5.5s.5-.225.5-.5-.225-.5-.5-.5-.5.225-.5.5m-52.463 1.441c-.344.555.816.714 2.832.386 5.239-.85 10.133 1.305 14.746 6.493 2.289 2.574 3.686 3.78 3.105 2.68-1.628-3.083-7.404-8.258-10.535-9.439-3.486-1.314-9.367-1.384-10.148-.12m26.058.672c-.807 2.104 3.315 8.877 4.613 7.579.605-.605.186-2.459-1.147-5.073-2.355-4.615-2.591-4.786-3.466-2.506M348 340c0 .733.3 1.033.667.667a.95.95 0 0 0 0-1.334c-.367-.366-.667-.066-.667.667m4 .513c0 .373.692 3.058 1.537 5.966s1.858 8.791 2.25 13.073c.468 5.111 1.174 7.939 2.055 8.231 1.081.358 1.199-.882.61-6.386-1.036-9.677-3.74-20.66-5.207-21.149-.685-.228-1.245-.109-1.245.265m37-.013c0 .275.225.5.5.5s.5-.225.5-.5-.225-.5-.5-.5-.5.225-.5.5m-139.921 2.083c.048 1.165.285 1.402.604.605.289-.722.253-1.585-.079-1.917s-.568.258-.525 1.312m95.326-.428c-.443.715-.275.883.44.44 1.153-.712 1.548-1.595.714-1.595-.243 0-.762.52-1.154 1.155M191.5 343.842c-1.65 1.008-3.618 2.582-4.372 3.496-1.798 2.177-5.758 2.127-7.048-.088-.941-1.615-1.022-1.619-1.05-.05-.043 2.455 2.871 3.788 5.826 2.665 1.353-.515 4.025-2.309 5.937-3.988 3.02-2.652 4.101-3.008 8.247-2.714 2.625.185 4.563 0 4.307-.413-.902-1.455-8.885-.719-11.847 1.092M245 342.5c0 .275.225.5.5.5s.5-.225.5-.5-.225-.5-.5-.5-.5.225-.5.5m54.75.145c-1.425.409-1.75 1.655-1.75 6.721v6.219l4.556 1.219c3.709.992 4.814 1.837 5.947 4.549 2.526 6.045-.313 11.273-6.672 12.29l-3.831.613v12.65l3.5.966c7.24 1.999 15.12-3.24 17.44-11.595 1.329-4.786 1.352-14.687.044-19.395-1.233-4.439-4.64-9.574-8.007-12.066-2.634-1.95-8.224-3.031-11.227-2.171M320 342.5c0 .275.225.5.5.5s.5-.225.5-.5-.225-.5-.5-.5-.5.225-.5.5m28.458 1.25c1.346 3.501 3.542 15.479 3.542 19.315 0 2.956.402 3.935 1.615 3.935 1.379 0 1.515-.841.931-5.75-1.194-10.026-3.742-19.25-5.317-19.25q-1.445-.002-.771 1.75M236 344c0 .55.477 1 1.059 1s.781-.45.441-1-.816-1-1.059-1-.441.45-.441 1m86.022 1.25c.029 1.64 3.927 6.613 3.956 5.047.034-1.835-2.19-6.297-3.139-6.297-.461 0-.829.563-.817 1.25M340 344.5c0 .275.225.5.5.5s.5-.225.5-.5-.225-.5-.5-.5-.5.225-.5.5m5 .451c0 .523.675 3.543 1.5 6.71.825 3.168 1.5 7.663 1.5 9.99 0 3.912 1.333 6.349 2.716 4.966.629-.629-1.167-12.755-2.795-18.867-.887-3.333-2.921-5.282-2.921-2.799m-151.75 1.08c-1.238.498-2.261 1.482-2.275 2.187-.028 1.495-6.186 4.782-8.957 4.782-1.045 0-2.178-.45-2.518-1-1.194-1.933-2.416-.966-3.05 2.413-.91 4.855.126 7.169 4.352 9.719 2.034 1.227 5.435 3.768 7.558 5.647 2.124 1.878 5.372 4.047 7.218 4.818 4.461 1.864 13.955 1.708 18.922-.31 2.2-.895 5.874-1.652 8.164-1.683 3.551-.048 4.034-.299 3.282-1.705-1.182-2.209-9.82-6.264-12.946-6.077-1.375.082-4.662.656-7.304 1.276s-5.046.885-5.343.588c-.786-.785 5.193-3.686 7.597-3.686 1.128 0 2.05-.45 2.05-1 0-1.556-4.302-1.177-6.842.602-2.51 1.758-3.726 1.321-2.829-1.018.318-.826 2.061-1.913 3.874-2.416 2.738-.758 2.988-1.042 1.475-1.675-1.202-.503-2.741-.083-4.52 1.232-2.388 1.765-2.857 1.822-4.097.495-1.207-1.292-1.143-1.687.461-2.859 1.023-.749 2.899-1.361 4.169-1.361s2.309-.509 2.309-1.131c0-1.157-4.659-.765-8.386.705-1.379.544-1.765.365-1.433-.665.25-.775 2.351-1.836 4.668-2.357 2.949-.665 4.053-1.364 3.682-2.332-.292-.761-.531-2.022-.531-2.802 0-1.622-5.114-1.848-8.75-.387M204 345.5c0 .275.225.5.5.5s.5-.225.5-.5-.225-.5-.5-.5-.5.225-.5.5m38.157 1.31c-1.857 1.234-2.94 1.333-5.212.475-2.107-.795-3.109-.777-3.776.066-1.611 2.038-3.383 8.723-2.851 10.756.422 1.617.146 1.858-1.52 1.329-1.299-.412-.56.688 2.04 3.036 2.242 2.026 4.351 4.549 4.687 5.606.466 1.47 1.542 1.922 4.574 1.922 2.347 0 4.169-.535 4.467-1.311.277-.721.375-6.29.219-12.375l-.285-11.063zm30.001 1.19c0 1.375.227 1.938.504 1.25.278-.687.278-1.812 0-2.5-.277-.687-.504-.125-.504 1.25m69.255.116c.395 1.311 1.217 5.872 1.829 10.134.789 5.497 1.524 7.75 2.529 7.75 1.131 0 1.274-1.04.708-5.15-1.151-8.373-2.882-14.164-4.381-14.657-1.059-.348-1.226.121-.685 1.923m-93.334.467c.048 1.165.285 1.402.604.605.289-.722.253-1.585-.079-1.917s-.568.258-.525 1.312M175 348.5c0 .275.225.5.5.5s.5-.225.5-.5-.225-.5-.5-.5-.5.225-.5.5m158 0c0 .275.225.5.5.5s.5-.225.5-.5-.225-.5-.5-.5-.5.225-.5.5m4.393 1.75c.344 1.238 1.163 5.288 1.82 9 1.318 7.448 2.787 8.939 2.787 2.826 0-6.153-2.132-14.076-3.788-14.076-1.018 0-1.26.666-.819 2.25m-8.393.25c0 .275.225.5.5.5s.5-.225.5-.5-.225-.5-.5-.5-.5.225-.5.5m4.758.075c-.316.317-.166 2.001.333 3.744.5 1.742.909 4.607.909 6.365 0 3.06 1.472 5.177 2.728 3.922.798-.799-1.709-14.606-2.652-14.606-.409 0-1.002.259-1.318.575m57.321 1.008c.048 1.165.285 1.402.604.605.289-.722.253-1.585-.079-1.917s-.568.258-.525 1.312M206 352.642c0 .537.7 1.849 1.555 2.917 1.467 1.83 1.487 1.798.365-.559-1.458-3.061-1.92-3.628-1.92-2.358m21.079.294c-.043.789-1.079 2.589-2.301 4l-2.222 2.564 2.842-2.642c1.562-1.453 2.597-3.253 2.3-4-.436-1.096-.555-1.081-.619.078M320 352.5c0 .275.225.5.5.5s.5-.225.5-.5-.225-.5-.5-.5-.5.225-.5.5m6 0c0 .275.225.5.5.5s.5-.225.5-.5-.225-.5-.5-.5-.5.225-.5.5m4.553 5.25c.762 6.286 1.095 7.25 2.506 7.25 1.218 0 1.187-1.755-.142-7.951-1.511-7.045-3.241-6.532-2.364.701m-158.069-2c-.304 1.512-.988 4.132-1.519 5.821-1.194 3.8-1.241 7.141-.109 7.84.47.291.636-.615.369-2.013s-.013-3.522.565-4.72c1.108-2.298 2.379-9.678 1.666-9.678-.23 0-.667 1.238-.972 2.75M268.5 355l-3 .763 3.25.119c1.788.065 3.25-.332 3.25-.882s-.113-.947-.25-.882-1.6.462-3.25.882m5.5-.155c0 .465.9 1.66 2 2.655 2.175 1.968 2.628 6.459.965 9.566-.81 1.512-.708 1.934.465 1.934 3.475 0 4.85-8.728 2.013-12.777-1.493-2.132-5.443-3.132-5.443-1.378m47 .155c0 .733.3 1.033.667.667a.95.95 0 0 0 0-1.334c-.367-.366-.667-.066-.667.667m5.823-.489c-.3.299-.177 2.444.273 4.766.449 2.323.836 4.56.86 4.973s.522.75 1.105.75c.695 0 .827-1.641.383-4.75-.678-4.749-1.598-6.763-2.621-5.739m-79.744 2.072c.048 1.165.285 1.402.604.605.289-.722.253-1.585-.079-1.917s-.568.258-.525 1.312m13.19.11c.973.254 2.323.237 3-.037s-.119-.481-1.769-.461-2.204.244-1.231.498M268 358.65c-1.375.207-4.311.608-6.524.891-4.017.513-4.023.521-3.645 4.486l.379 3.973h6.461c8.274 0 10.329-1.08 10.329-5.428 0-3.041-1.598-4.891-3.832-4.436-.367.075-1.793.306-3.168.514m54.079.933c.048 1.165.285 1.402.604.605.289-.722.253-1.585-.079-1.917s-.568.258-.525 1.312M284 363.066c0 4.278-1.627 6.866-5.329 8.476l-3.171 1.38 2.75.039c4.196.06 6.75-3.141 6.75-8.461 0-2.475-.225-4.5-.5-4.5s-.5 1.38-.5 3.066m-73-1.566c0 .275.225.5.5.5s.5-.225.5-.5-.225-.5-.5-.5-.5.225-.5.5m40.184 2.173c.46 3.893 2.816 4.236 2.816.41 0-2.132-.483-3.083-1.566-3.083-1.111 0-1.475.779-1.25 2.673M305 361.5c0 .275.225.5.5.5s.5-.225.5-.5-.225-.5-.5-.5-.5.225-.5.5m-82.817 2.989c2.575 1.364 5.377 3.473 6.227 4.686 1.878 2.682 3.192 1.818 1.641-1.079-1.244-2.325-5.049-4.497-9.551-5.452-2.419-.513-2.093-.156 1.683 1.845M298 365.5c0 3.373.197 3.61 2.75 3.316 2.319-.266 2.75-.787 2.75-3.316s-.431-3.05-2.75-3.316c-2.553-.294-2.75-.057-2.75 3.316m-123.762-1.287c.226.679 2.628 2.534 5.337 4.122s6.811 4.623 9.116 6.743 5.379 4.152 6.83 4.517c4.858 1.219 15.764-.228 21.979-2.917 3.3-1.428 5.495-2.614 4.877-2.637-.617-.023-3.128.846-5.579 1.93-9.81 4.34-20.137 3.603-27.396-1.953-7.909-6.055-15.564-11.005-15.164-9.805m62.031.48c.973.254 2.323.237 3-.037s-.119-.481-1.769-.461-2.204.244-1.231.498m92.064 1.974a.95.95 0 0 0 1.334 0c.366-.367.066-.667-.667-.667s-1.033.3-.667.667m8 1a.95.95 0 0 0 1.334 0c.366-.367.066-.667-.667-.667s-1.033.3-.667.667m-9.537 7.14c-1.637 6.944-.814 10.91 1.046 5.035 1.744-5.511 2.395-10.577 1.435-11.171-.496-.307-1.613 2.454-2.481 6.136m18.537-6.14a.95.95 0 0 0 1.334 0c.366-.367.066-.667-.667-.667s-1.033.3-.667.667M349 368.5c0 .275.225.5.5.5s.5-.225.5-.5-.225-.5-.5-.5-.5.225-.5.5m-18.044 4.25c-.024 2.063-.674 5.52-1.445 7.684-1.357 3.808-1.234 5.566.39 5.566.971 0 2.741-5.947 3.645-12.25.571-3.986.421-4.75-.932-4.75-1.191 0-1.626.984-1.658 3.75m4.541-.028c-.333 2.078-1.405 6.373-2.384 9.544-1.392 4.515-1.512 5.988-.552 6.785 1.507 1.25 4.169-5.904 5.08-13.649.722-6.149-1.204-8.557-2.144-2.68M353 369.5c0 .275.225.5.5.5s.5-.225.5-.5-.225-.5-.5-.5-.5.225-.5.5m4 0c0 .275.225.5.5.5s.5-.225.5-.5-.225-.5-.5-.5-.5.225-.5.5m-109 1c0 .275.225.5.5.5s.5-.225.5-.5-.225-.5-.5-.5-.5.225-.5.5m91.521 4.208c-.388 2.589-1.55 7.419-2.581 10.732-2.024 6.505-1.125 9.777 1.353 4.925 2.882-5.641 4.921-20.365 2.821-20.365-.488 0-1.205 2.119-1.593 4.708m5.162-3.974c-.25.421-.783 3.241-1.185 6.266s-1.779 8.301-3.06 11.725c-1.658 4.431-2.002 6.427-1.193 6.927.625.386 1.314.172 1.529-.475.773-2.319 2.251-1.125 1.637 1.323-.387 1.54-.202 2.5.481 2.5.609 0 1.122-.562 1.14-1.25.017-.689.712-.352 1.548.75.834 1.1 1.311 2.787 1.062 3.749-.635 2.447 1.004 3.158 2.357 1.022.958-1.511 1.06-1.363.696 1.003-.515 3.345.754 4.443 2.307 1.997.951-1.499 1.037-1.358.557.918-.311 1.479-.115 2.968.437 3.309s1.004-.082 1.004-.939.439-1.559.975-1.559c.55 0 .713 1.308.375 3-.992 4.962 1.189 3.419 3.99-2.823 3.327-7.413 6.583-21.068 6.908-28.971.276-6.72-1.585-9.23-2.007-2.706-.654 10.108-5.488 30.586-6.889 29.185-.244-.243.466-3.914 1.578-8.158 2.23-8.515 4.58-24.35 3.739-25.191-1.296-1.297-2.669 1.099-2.669 4.658 0 4.281-2.266 15.945-3.967 20.418-1.811 4.765-2.325 2.108-.693-3.588 1.175-4.099 3.66-18.629 3.66-21.396 0-.236-.675-.428-1.5-.428-1.095 0-1.505 1.147-1.517 4.25-.022 5.182-2.46 17.083-3.995 19.493-1.209 1.898-.994-.413.907-9.743 1.412-6.934 1.71-13.47.628-13.783-.537-.155-1.517 3.445-2.176 8-1.221 8.435-2.979 14.485-3.931 13.532-.29-.29.127-3.165.927-6.388.8-3.224 1.741-8.224 2.09-11.111.524-4.329.367-5.25-.899-5.25-1.146 0-1.534 1.111-1.534 4.395 0 4.545-3.718 18.22-4.689 17.249-.302-.302.153-3.608 1.013-7.347 2.382-10.364 2.83-14.084 1.776-14.735-.529-.327-1.166-.25-1.417.172M365 370.5c0 .275.225.5.5.5s.5-.225.5-.5-.225-.5-.5-.5-.5.225-.5.5m4 0c0 .275.225.5.5.5s.5-.225.5-.5-.225-.5-.5-.5-.5.225-.5.5m-205.187 1.183c.721.289 1.584.253 1.916-.079s-.258-.568-1.312-.525c-1.165.048-1.402.285-.604.604M172 371.5c0 .275.225.5.5.5s.5-.225.5-.5-.225-.5-.5-.5-.5.225-.5.5m150.158 1.5c0 1.375.227 1.938.504 1.25.278-.687.278-1.812 0-2.5-.277-.687-.504-.125-.504 1.25M373 371.5c0 .275.225.5.5.5s.5-.225.5-.5-.225-.5-.5-.5-.5.225-.5.5m4 0c0 .275.225.5.5.5s.5-.225.5-.5-.225-.5-.5-.5-.5.225-.5.5m-231.685 1.507c-7.352 2.962-4.214 14.161 3.89 13.878 3.277-.114 3.274-.119-.623-.87-4.276-.824-6.582-3.148-6.582-6.635 0-4.172 3.072-5.961 11.5-6.695 3.54-.309 3.425-.361-1-.454-2.75-.057-5.983.292-7.185.776m28.685-.458c0 .733 6.122 3.577 7.022 3.262.487-.171-.894-1.065-3.068-1.987-2.175-.921-3.954-1.495-3.954-1.275m78.5 1.036c-1.1.172-6.302.597-11.561.943-9.417.621-9.577.674-10.661 3.547-.606 1.604-2.488 3.706-4.183 4.671-2.808 1.598-3.083 2.207-3.089 6.845-.015 12.679-6.802 23.264-16.281 25.398l-3.225.725 2.815 1.143c3.918 1.591 12.234 1.428 15.586-.306C229.355 412.697 234 403 234 391.294c0-5.95-.165-6.406-2.663-7.356-1.51-.574-2.268-1.37-1.75-1.838.502-.453 10.138-1.815 21.413-3.024 23.903-2.565 24.559-2.698 22.93-4.66-.873-1.052-3.519-1.381-10.302-1.28-5.021.075-10.028.277-11.128.449m116.107.997c-.334.87-.607 3.512-.607 5.872 0 5.551-4.052 21.408-7.39 28.92-2.798 6.299-3.102 7.626-1.747 7.626 1.347 0 5.977-11.056 8.09-19.316 1.614-6.311 4.047-20.593 4.047-23.756 0-1.525-1.739-1.05-2.393.654m4.032-.888c-.351.352-.639 2.406-.639 4.566 0 6.961-4.019 24.009-7.672 32.544-1.954 4.567-3.27 8.587-2.924 8.933 2.798 2.798 11.394-24.494 12.915-41.003.414-4.498-.245-6.475-1.68-5.04m-213.392 1.03c-2.964.367-3.196.642-2.609 3.09.354 1.477.693 2.754.753 2.838.06.083 5.584-.339 12.275-.937l12.166-1.089-5.666-2.308c-5.343-2.177-9.252-2.545-16.919-1.594m216.437 7.22c-.774 10.036-3.707 21.58-8.171 32.166-4.21 9.981-3.804 11.955.489 2.385 6.27-13.973 12.408-42.495 9.146-42.495-.468 0-1.127 3.575-1.464 7.944m-229.97-5.325c-1.445 1.445-.66 5.339 1.286 6.381 3.058 1.637 6.201-.428 5.81-3.817-.251-2.172-.888-2.74-3.346-2.98-1.67-.164-3.357.024-3.75.416M321 377c0 .733.3 1.033.667.667a.95.95 0 0 0 0-1.334c-.367-.366-.667-.066-.667.667m-97 3.121c-1.925 1.032-2.762 1.877-1.861 1.877.902.001 2.702-.883 4-1.965 2.861-2.383 2.438-2.365-2.139.088m59-1.621c0 .275.225.5.5.5s.5-.225.5-.5-.225-.5-.5-.5-.5.225-.5.5m37 1.299c0 1.911-6.288 8.416-9.481 9.807-1.661.724-2.413 1.333-1.673 1.355 3.688.107 13.688-9.76 11.803-11.646-.357-.356-.649-.139-.649.484m-47.5 1.906c-4.272.577-26.47 4.23-29.75 4.896-1.852.376-2.75 1.185-2.75 2.478 0 2.333-1.031 2.338 18.44-.091 8.766-1.093 16.529-1.988 17.25-1.988.789 0 1.31-1.193 1.31-3 0-1.65-.337-2.933-.75-2.85s-2.1.332-3.75.555m13.5 41.902c0 38.441.155 42.548 1.582 42 .87-.334 2.22-.607 3-.607 1.202 0 1.418-6.41 1.418-42v-42h-6zm-115.25-40.901c1.238.238 3.262.238 4.5 0 1.238-.239.225-.434-2.25-.434s-3.488.195-2.25.434m47.063-.023c.721.289 1.584.253 1.916-.079s-.258-.568-1.312-.525c-1.165.048-1.402.285-.604.604m-63.254 1.849c-1.068.807-1.495 1.468-.95 1.468s1.419-.42 1.941-.933 2.75-1.113 4.95-1.332l4-.399-4-.136c-2.2-.075-4.874.524-5.941 1.332M185 386.341c0 4.777 2.446 12.253 5.409 16.527 9.669 13.954 25.591 5.72 25.591-13.234 0-3.901-.303-4.634-1.918-4.634-3.66 0-5.082 1.163-5.082 4.157 0 4.12-2.632 8.752-5.617 9.888-6.016 2.287-12.383-3.12-12.383-10.515 0-3.013-.477-4.499-1.582-4.923-3.377-1.296-4.418-.652-4.418 2.734m9.333-2.674a.95.95 0 0 0 1.334 0c.366-.367.066-.667-.667-.667s-1.033.3-.667.667m3.917 1.022c.963.252 2.537.252 3.5 0 .963-.251.175-.457-1.75-.457s-2.713.206-1.75.457m6.75-.189c0 .275.225.5.5.5s.5-.225.5-.5-.225-.5-.5-.5-.5.225-.5.5m119 0c0 .275.225.5.5.5s.5-.225.5-.5-.225-.5-.5-.5-.5.225-.5.5m-128.366 3.01c-.836 2.181 2.16 6.49 4.513 6.49 2.198 0 3.81-3.451 3.02-6.463-.446-1.698-.676-1.497-1.38 1.213-1.017 3.915-3.382 4.34-3.326.598.044-3.001-1.896-4.262-2.827-1.838m123.105 2.378c-2.069 2.066-3.457 4.061-3.084 4.434 1.072 1.072 1.813.822 4.223-1.423 1.24-1.155 2.562-1.786 2.938-1.402s-.778 1.924-2.566 3.423-3.25 3.255-3.25 3.903c0 1.64.76 1.488 4.685-.937 4.922-3.042 5.284-1.556.407 1.672-3.924 2.596-5.084 4.711-3.217 5.865.481.297 2.727-.801 4.991-2.441S328.238 400 328.55 400c1.356 0-1.115 2.402-5.011 4.873-3.184 2.019-4.067 3.121-3.592 4.477.567 1.614 1.175 1.433 5.943-1.776 2.921-1.966 5.569-3.574 5.885-3.574 1.289 0-4.122 4.872-7.328 6.599-3.329 1.792-4.366 3.715-2.593 4.811 1.155.713 9.699-4.79 10.975-7.069.561-1.003 1.359-1.486 1.773-1.072 1.07 1.07-4.419 6.563-8.819 8.826-2.519 1.296-3.532 2.395-3.143 3.409 1.017 2.649 4.052 1.501 11.11-4.203 2.337-1.889 4.25-2.954 4.25-2.366 0 1.047-10.836 9.51-13.174 10.29-.685.228-.901 1.137-.512 2.152.626 1.631.97 1.591 4.783-.551 2.259-1.27 5.862-3.811 8.005-5.646 2.211-1.892 3.892-2.761 3.883-2.008-.012 1.099-4.677 4.753-14.46 11.328-.98.659-1.186 1.478-.603 2.402.726 1.152 1.708.919 5.502-1.305 2.54-1.488 6.214-4.302 8.164-6.252s3.822-3.268 4.16-2.93c1.097 1.096-5.918 7.429-11.403 10.295-4.988 2.606-6.229 4.073-4.721 5.58 1.135 1.136 8.646-3.432 14.053-8.545 3.421-3.237 5.323-4.467 5.323-3.445 0 1.845-9.609 9.95-15.146 12.774-2.576 1.315-3.605 2.412-3.214 3.43.316.823.888 1.496 1.271 1.496 1.538 0 10.501-6.305 15.164-10.667 2.726-2.55 5.177-4.414 5.448-4.144.981.981-11.259 11.644-16.295 14.196-3.645 1.847-4.995 3.058-4.589 4.116.814 2.123 1.348 1.962 7.956-2.393 8.198-5.403 14.775-12.055 17.907-18.112 1.697-3.282 1.111-5.843-.627-2.738-1.517 2.711-2.974 2.054-1.691-.762.627-1.378.781-2.84.342-3.25-.44-.41-1.001-.183-1.246.504s-.875 1.25-1.399 1.25c-.585 0-.566-.72.049-1.869 1.253-2.341.228-3.507-1.685-1.919-1.195.992-1.381.778-1.092-1.259.26-1.839-.091-2.418-1.403-2.314-1.252.099-1.75-.598-1.75-2.45 0-2.014-.267-2.322-1.2-1.389-1.838 1.838-2.991 1.426-1.87-.669 1.266-2.366.221-3.501-1.732-1.88-1.269 1.052-1.375.882-.727-1.16.621-1.956.464-2.28-.856-1.774-1.167.448-1.615.045-1.615-1.455 0-1.374-.476-1.893-1.408-1.536-.908.349-1.634-.356-2.042-1.983-.444-1.768-1.104-2.344-2.203-1.923-1.139.437-1.401.163-.955-.999.898-2.342-.297-3.744-1.993-2.337-1.169.97-1.376.756-1.161-1.202.217-1.975-.145-2.337-2.12-2.12-1.902.209-2.156-.011-1.259-1.092 1.038-1.251.589-2.758-.776-2.604-.321.036-2.276 1.756-4.344 3.822m8.261-3.006c0 .55.45 1.278 1 1.618s1 .168 1-.382-.45-1.278-1-1.618-1-.168-1 .382m-28.232 3.286c.582.582 1.647.86 2.369.62.749-.25.295-.703-1.057-1.057-1.663-.435-2.054-.305-1.312.437M330.5 391c.34.55.843 1 1.118 1s.222-.45-.118-1-.843-1-1.118-1-.222.45.118 1m-148.5.5c0 .275.225.5.5.5s.5-.225.5-.5-.225-.5-.5-.5-.5.225-.5.5m121.75.162c.688.278 1.813.278 2.5 0 .688-.277.125-.504-1.25-.504s-1.937.227-1.25.504M390 391.5c0 .275.225.5.5.5s.5-.225.5-.5-.225-.5-.5-.5-.5.225-.5.5m-117.454 3.75c1.122 3.708 6.668 13.75 7.593 13.75 1.473 0 .98-1.606-2.736-8.92-3.433-6.758-6.304-9.613-4.857-4.83m5.098 1.5c2 4.864 3.356 6.277 3.356 3.497 0-3.057-2.087-7.247-3.609-7.247-1.007 0-.951.821.253 3.75M333 393.378c0 .207.788.995 1.75 1.75 1.586 1.243 1.621 1.208.378-.378-1.307-1.666-2.128-2.195-2.128-1.372m-96 1.122c0 .275.225.5.5.5s.5-.225.5-.5-.225-.5-.5-.5-.5.225-.5.5m28.001 1.191c.001 3.752 10.959 23.93 14.023 25.824 1.623 1.003 1.093-3.173-.579-4.561-2.192-1.819-9.008-13.724-10.414-18.19-1.302-4.135-3.031-5.889-3.03-3.073m5.095 3.559c2.419 6.143 8.677 16.75 9.883 16.75 1.333 0-.111-4.236-2.557-7.5-1.237-1.65-3.388-5.587-4.78-8.75-3.183-7.228-5.364-7.657-2.546-.5m31.951-3.448c3.463 1.412 11.767 1.261 10.953-.2-.275-.493-3.57-.943-7.323-1-6.529-.098-6.686-.046-3.63 1.2M183 396c0 .733.3 1.033.667.667a.95.95 0 0 0 0-1.334c-.367-.366-.667-.066-.667.667m74.473 1.75c2.465 9.834 21.439 40.183 22.358 35.761.182-.876-1.982-4.387-4.809-7.802-4.728-5.71-16.022-26.458-16.022-29.433 0-.702-.499-1.276-1.108-1.276-.71 0-.861.989-.419 2.75m3.527-1.685c0 3.658 9.038 20.54 15.158 28.316 5.407 6.868 5.036 2.874-.399-4.29-4.312-5.685-12.759-21.439-12.759-23.796 0-.712-.45-1.295-1-1.295s-1 .479-1 1.065m-18.68.632c-1.712.333-2.419 1.536-3.29 5.6-.611 2.848-1.778 6.195-2.593 7.44-1.918 2.926-1.088 2.861 2.969-.233 4.713-3.595 9.26-5.026 11.104-3.496 1.714 1.423 1.047 3.143-.926 2.386-.743-.285-3.611.872-6.374 2.572l-5.022 3.09 6.9 14.722 6.9 14.722 12.256 3.689c15.705 4.727 15.756 4.727 15.756.197 0-2.881-.984-4.758-4.85-9.25-9.678-11.246-19.079-27.281-22.211-37.886-1.188-4.022-1.448-4.243-4.847-4.114-1.976.075-4.573.327-5.772.561m55.68.971c0 2.173 6.588 4.472 11.84 4.133 3.313-.214 4.66-.729 4.66-1.781 0-1.112-1.009-1.408-4.055-1.188-2.23.161-5.942-.358-8.25-1.153-3.638-1.253-4.195-1.255-4.195-.011m91-.668c0 .733.3 1.033.667.667a.95.95 0 0 0 0-1.334c-.367-.366-.667-.066-.667.667m-171 .5c0 .275.225.5.5.5s.5-.225.5-.5-.225-.5-.5-.5-.5.225-.5.5m18 .5c0 .733.3 1.033.667.667a.95.95 0 0 0 0-1.334c-.367-.366-.667-.066-.667.667m101.5 0c.34.55.843 1 1.118 1s.222-.45-.118-1-.843-1-1.118-1-.222.45.118 1m-82.5.5c0 .275.225.5.5.5s.5-.225.5-.5-.225-.5-.5-.5-.5.225-.5.5m-38 1.5c0 .733.3 1.033.667.667a.95.95 0 0 0 0-1.334c-.367-.366-.667-.066-.667.667m171 0c0 .733.3 1.033.667.667a.95.95 0 0 0 0-1.334c-.367-.366-.667-.066-.667.667m-203 .941c0 .518.445 1.216.989 1.552.566.35.734-.051.393-.941-.665-1.732-1.382-2.049-1.382-.611M340 401c0 .55.477 1 1.059 1s.781-.45.441-1-.816-1-1.059-1-.441.45-.441 1m4.5 0c-.34.55-.141 1 .441 1s1.059-.45 1.059-1-.198-1-.441-1-.719.45-1.059 1m-46.5 1.668c0 2.141 6.222 4.332 12.301 4.332 5.718 0 6.846-.454 6.081-2.446-.325-.848-1.995-1.109-5.181-.81-2.717.255-6.495-.181-8.951-1.034-3.672-1.275-4.25-1.281-4.25-.042m-82-.168c0 .275.225.5.5.5s.5-.225.5-.5-.225-.5-.5-.5-.5.225-.5.5m-26.91 4.406c1.387 1.873 3.621 3.786 4.966 4.25 2.349.812 2.366.787.444-.644-1.1-.819-3.334-2.731-4.966-4.25l-2.965-2.762zm23.907.344c-1.472 2.011-1.714 2.71-.634 1.832 1.64-1.331 4.12-5.082 3.36-5.082-.191 0-1.418 1.462-2.726 3.25m-31.176 1.319a402 402 0 0 0-5.257 8.832l-2.825 4.901 2.38-.638c1.31-.35 2.901-.643 3.536-.65s2.556-2.499 4.27-5.535c2.868-5.082 3.005-5.734 1.723-8.182l-1.394-2.66zM234 406.5c0 .275.225.5.5.5s.5-.225.5-.5-.225-.5-.5-.5-.5.225-.5.5m64 1.523c0 1.472 1.308 2.301 5.597 3.548 6.748 1.962 14.93 1.245 13.982-1.226-.318-.83-.578-1.584-.577-1.677s-2.627-.019-5.839.163c-3.681.208-7.195-.235-9.502-1.199-3.475-1.452-3.661-1.432-3.661.391M345.5 407c.34.55.843 1 1.118 1s.222-.45-.118-1-.843-1-1.118-1-.222.45.118 1m40.5 1c0 .733.3 1.033.667.667a.95.95 0 0 0 0-1.334c-.367-.366-.667-.066-.667.667m-153 .5c0 .275.225.5.5.5s.5-.225.5-.5-.225-.5-.5-.5-.5.225-.5.5m115.5 1.5c.34.55.843 1 1.118 1s.222-.45-.118-1-.843-1-1.118-1-.222.45.118 1M208 411c-.901.582-1.025.975-.309.985.655.008 1.469-.435 1.809-.985.767-1.242.421-1.242-1.5 0m24-.5c0 .275.225.5.5.5s.5-.225.5-.5-.225-.5-.5-.5-.5.225-.5.5m21.5 1.5c.34.55.816 1 1.059 1s.441-.45.441-1-.477-1-1.059-1-.781.45-.441 1m-55.687.683c.721.289 1.584.253 1.916-.079s-.258-.568-1.312-.525c-1.165.048-1.402.285-.604.604m6 0c.721.289 1.584.253 1.916-.079s-.258-.568-1.312-.525c-1.165.048-1.402.285-.604.604m26.059 1.067c-1.243 1.586-1.208 1.621.378.378.963-.755 1.75-1.543 1.75-1.75 0-.823-.821-.294-2.128 1.372M261 412.5c0 .275.225.5.5.5s.5-.225.5-.5-.225-.5-.5-.5-.5.225-.5.5m37 .784c0 2.115 7.135 4.716 12.938 4.716 5.748 0 8.062-.72 8.062-2.507 0-.928-2.478-1.414-8.75-1.718-4.812-.233-9.538-.776-10.5-1.206-1.236-.553-1.75-.343-1.75.715m53-.784c0 .275.225.5.5.5s.5-.225.5-.5-.225-.5-.5-.5-.5.225-.5.5m-162.465 4.087c-2.167 3.308-1.614 3.771 3.477 2.911l4.146-.701-2.253-2.398c-2.829-3.011-3.284-2.995-5.37.188M354 416c0 .733.3 1.033.667.667a.95.95 0 0 0 0-1.334c-.367-.366-.667-.066-.667.667m-118.177 4c1.073 2.475 4.023 8.936 6.556 14.358s4.357 10.26 4.054 10.75.119.892.937.892c1.081 0-.301-3.898-5.052-14.25-6.034-13.145-10.969-22.074-6.495-11.75m-11.382-1.445c-1.864 1.494-1.852 1.512.309.465 1.238-.6 2.25-1.3 2.25-1.555 0-.765-.519-.544-2.559 1.09m73.72.049c.518 2.7 6.015 4.274 15.162 4.34 6.935.05 7.784-.143 7.471-1.694-.293-1.459-1.263-1.698-5.823-1.437-5.153.294-11.135-.621-15.322-2.343-1.468-.604-1.776-.369-1.488 1.134M382 418.5c0 .275.225.5.5.5s.5-.225.5-.5-.225-.5-.5-.5-.5.225-.5.5M227 421c-1.925 1.054-4.281 1.935-5.237 1.958-1.005.024-2.329 1.461-3.144 3.411-.774 1.853-2.37 4.043-3.545 4.867-2.015 1.411-1.462 1.68 9.644 4.681 6.48 1.751 13.02 3.587 14.532 4.081s2.75.675 2.75.402c0-1.428-9.984-21.394-10.68-21.358-.451.023-2.395.904-4.32 1.958m130-1.5c0 .275.225.5.5.5s.5-.225.5-.5-.225-.5-.5-.5-.5.225-.5.5m24 1c0 .275.225.5.5.5s.5-.225.5-.5-.225-.5-.5-.5-.5.225-.5.5m-183.818 4.12c.299 3.647.53 3.898 3.845 4.177 3.933.331 11.135-1.73 11.66-3.338.187-.572-2.253-1.627-5.423-2.343-3.17-.717-6.807-1.544-8.082-1.839-2.155-.498-2.296-.263-2 3.343M187 422.959c-5.671.652-5.411 1.169 1.5 2.981 5.428 1.423 5.5 1.405 5.5-1.44 0-1.375-.338-2.427-.75-2.337s-3.225.448-6.25.796m111.188.829c.426 2.284 8.899 5.112 15.48 5.168 6.277.053 8.332-.645 8.332-2.832 0-1.435-1.021-1.611-7.461-1.286-5.042.254-8.954-.132-12.066-1.192-4.298-1.465-4.584-1.456-4.285.142M360 422.5c0 .275.225.5.5.5s.5-.225.5-.5-.225-.5-.5-.5-.5.225-.5.5m-202.187 1.183c.721.289 1.584.253 1.916-.079s-.258-.568-1.312-.525c-1.165.048-1.402.285-.604.604M267 423.5c0 .275.225.5.5.5s.5-.225.5-.5-.225-.5-.5-.5-.5.225-.5.5m-116.667 1.167a.95.95 0 0 0 1.334 0c.366-.367.066-.667-.667-.667s-1.033.3-.667.667m203.263 5.959c-5.326 7.195-11.951 12.885-18.372 15.776-2.323 1.046-4.224 2.508-4.224 3.25 0 2.003 1.03 1.701 7.559-2.219 7.124-4.277 10.282-7.15 15.869-14.433 5.332-6.95 5.788-7.748 4.79-8.365-.448-.277-2.978 2.419-5.622 5.991M379 424.5c0 .275.225.5.5.5s.5-.225.5-.5-.225-.5-.5-.5-.5.225-.5.5m-234 1c0 .275.225.5.5.5s.5-.225.5-.5-.225-.5-.5-.5-.5.225-.5.5m32 0c0 .275.225.5.5.5s.5-.225.5-.5-.225-.5-.5-.5-.5.225-.5.5m91-.122c0 .207.788.995 1.75 1.75 1.586 1.243 1.621 1.208.378-.378-1.307-1.666-2.128-2.195-2.128-1.372m-114 1.661c-2.475.442-9.225 1.526-15 2.409-20.661 3.158-23.228 3.724-22.083 4.869.596.596 1.083 2.391 1.083 3.99 0 2.183.377 2.762 1.511 2.327 2.088-.801 29.289-6.199 38.739-7.688 7.578-1.193 7.75-1.284 7.75-4.083 0-2.663-.263-2.855-3.75-2.745-2.062.064-5.775.479-8.25.921m25.813-.356c.721.289 1.584.253 1.916-.079s-.258-.568-1.312-.525c-1.165.048-1.402.285-.604.604M294 427c0 .733.3 1.033.667.667a.95.95 0 0 0 0-1.334c-.367-.366-.667-.066-.667.667m84-.5c0 .275.225.5.5.5s.5-.225.5-.5-.225-.5-.5-.5-.5.225-.5.5m-245.667 1.167a.95.95 0 0 0 1.334 0c.366-.367.066-.667-.667-.667s-1.033.3-.667.667m36.855 1.083c.391 2.041 1.121 2.282 47.812 15.782 18.425 5.327 40.025 11.619 48 13.984 14.019 4.156 14.511 4.231 14.837 2.254.186-1.124-.199-2.376-.856-2.782-1.537-.95-107.049-31.009-108.804-30.997-.728.005-1.173.797-.989 1.759m14.145-1.083a.95.95 0 0 0 1.334 0c.366-.367.066-.667-.667-.667s-1.033.3-.667.667M298 428.862c0 1.266 1.527 2.254 5.338 3.455 7.993 2.52 21.29 2.067 20.37-.694-.234-.7-3.543-1.163-8.791-1.228-5.032-.063-10.126-.749-12.667-1.706-4.004-1.508-4.25-1.498-4.25.173m57.623 5.388c-6.054 7.675-10.962 11.858-19.74 16.825-2.961 1.675-4.258 2.736-2.883 2.358 5-1.376 11.652-5.983 18.602-12.883 5.818-5.776 11.61-13.55 10.094-13.55-.195 0-2.928 3.262-6.073 7.25m-229.81-5.567c.721.289 1.584.253 1.916-.079s-.258-.568-1.312-.525c-1.165.048-1.402.285-.604.604M187 428.5c0 .275.225.5.5.5s.5-.225.5-.5-.225-.5-.5-.5-.5.225-.5.5m-68 1c0 .275.225.5.5.5s.5-.225.5-.5-.225-.5-.5-.5-.5.225-.5.5m-5.667 1.167a.95.95 0 0 0 1.334 0c.366-.367.066-.667-.667-.667s-1.033.3-.667.667M273.5 432c.995 1.1 2.035 2 2.31 2s-.315-.9-1.31-2-2.035-2-2.31-2 .315.9 1.31 2m101.905-.845c-.443.715-.275.883.44.44 1.153-.712 1.548-1.595.714-1.595-.243 0-.762.52-1.154 1.155M104 433c-1.1 1.1-2 3.025-2 4.277 0 2.491 2.554 6.723 4.057 6.723.519 0 .043-.9-1.057-2-3.65-3.65-1.836-8.981 3.5-10.281 1.81-.441 1.786-.498-.25-.603-1.237-.064-3.15.784-4.25 1.884m97.333-.333a.95.95 0 0 0 1.334 0c.366-.367.066-.667-.667-.667s-1.033.3-.667.667M298 433.899c0 2.544 8.539 5.101 17.033 5.101 7.453 0 9.967-.6 9.967-2.379 0-.807-3.003-1.171-9.75-1.181-6.887-.011-10.851-.504-13.5-1.677-3.558-1.576-3.75-1.569-3.75.136m-93.667-.232a.95.95 0 0 0 1.334 0c.366-.367.066-.667-.667-.667s-1.033.3-.667.667M374 433.5c0 .275.225.5.5.5s.5-.225.5-.5-.225-.5-.5-.5-.5.225-.5.5m-267.333 1.167c-1.117 1.117-.744 5.025.583 6.113.688.564 2.375 1.181 3.75 1.372 2.124.296 2.551-.096 2.836-2.603.223-1.963-.259-3.385-1.441-4.25-1.919-1.402-4.656-1.705-5.728-.632m101.666 0a.95.95 0 0 0 1.334 0c.366-.367.066-.667-.667-.667s-1.033.3-.667.667M174 435.5c0 .275.225.5.5.5s.5-.225.5-.5-.225-.5-.5-.5-.5.225-.5.5m39 0c0 .275.225.5.5.5s.5-.225.5-.5-.225-.5-.5-.5-.5.225-.5.5m-58.667 1.167a.95.95 0 0 0 1.334 0c.366-.367.066-.667-.667-.667s-1.033.3-.667.667m61 0a.95.95 0 0 0 1.334 0c.366-.367.066-.667-.667-.667s-1.033.3-.667.667m156.072.488c-.443.715-.275.883.44.44 1.153-.712 1.548-1.595.714-1.595-.243 0-.762.52-1.154 1.155M149 437.5c0 .275.225.5.5.5s.5-.225.5-.5-.225-.5-.5-.5-.5.225-.5.5m31.333.167a.95.95 0 0 0 1.334 0c.366-.367.066-.667-.667-.667s-1.033.3-.667.667m38 0a.95.95 0 0 0 1.334 0c.366-.367.066-.667-.667-.667s-1.033.3-.667.667m79.852 1.105c.476 2.55 9.135 5.135 17.315 5.171 7.969.034 11.741-.721 11.231-2.25-.212-.636-4.476-1.098-10.791-1.167-7.396-.082-11.554-.606-14.259-1.799-3.603-1.588-3.801-1.585-3.496.045m-155.372-.089c.721.289 1.584.253 1.916-.079s-.258-.568-1.312-.525c-1.165.048-1.402.285-.604.604m41.52-.016a.95.95 0 0 0 1.334 0c.366-.367.066-.667-.667-.667s-1.033.3-.667.667M222 438.5c0 .275.225.5.5.5s.5-.225.5-.5-.225-.5-.5-.5-.5.225-.5.5m57 0c0 .275.225.5.5.5s.5-.225.5-.5-.225-.5-.5-.5-.5.225-.5.5m-141.187 1.183c.721.289 1.584.253 1.916-.079s-.258-.568-1.312-.525c-1.165.048-1.402.285-.604.604m49.52-.016a.95.95 0 0 0 1.334 0c.366-.367.066-.667-.667-.667s-1.033.3-.667.667m39 0a.95.95 0 0 0 1.334 0c.366-.367.066-.667-.667-.667s-1.033.3-.667.667m-35 1a.95.95 0 0 0 1.334 0c.366-.367.066-.667-.667-.667s-1.033.3-.667.667m38 0a.95.95 0 0 0 1.334 0c.366-.367.066-.667-.667-.667s-1.033.3-.667.667M294.272 444c0 2.475.195 3.488.434 2.25.238-1.238.238-3.262 0-4.5-.239-1.238-.434-.225-.434 2.25m73.6-2.25c-1.243 1.586-1.208 1.621.378.378 1.666-1.307 2.195-2.128 1.372-2.128-.207 0-.995.788-1.75 1.75m-173.539-.083a.95.95 0 0 0 1.334 0c.366-.367.066-.667-.667-.667s-1.033.3-.667.667m38 0a.95.95 0 0 0 1.334 0c.366-.367.066-.667-.667-.667s-1.033.3-.667.667M298 443.496c0 2.205 8.137 4.775 16.694 5.272 9.234.537 13.306-.143 13.306-2.222 0-1.154-1.621-1.318-8.75-.888-7.027.424-9.981.136-15-1.46-4.731-1.505-6.25-1.676-6.25-.702m-96.667.171a.95.95 0 0 0 1.334 0c.366-.367.066-.667-.667-.667s-1.033.3-.667.667M108 444.5c0 .275.225.5.5.5s.5-.225.5-.5-.225-.5-.5-.5-.5.225-.5.5m97.333.167a.95.95 0 0 0 1.334 0c.366-.367.066-.667-.667-.667s-1.033.3-.667.667M244 444.5c0 .275.225.5.5.5s.5-.225.5-.5-.225-.5-.5-.5-.5.225-.5.5m-127 1.823-4.5 1.11 3.388.357c4.093.432 8.112-.465 8.112-1.809 0-1.172-1.069-1.12-7 .342m91.333-.656a.95.95 0 0 0 1.334 0c.366-.367.066-.667-.667-.667s-1.033.3-.667.667M251.5 447c2.749 1.181 4.328 1.181 2.5 0-.825-.533-2.175-.945-3-.914-.989.036-.819.347.5.914m46.5 1.299c0 3.603 18.745 6.951 26.75 4.778 6.813-1.85 5.041-3.075-3.5-2.42-7.171.55-14.817-.584-21.5-3.189-1.196-.466-1.75-.203-1.75.831m-78.667.368a.95.95 0 0 0 1.334 0c.366-.367.066-.667-.667-.667s-1.033.3-.667.667m2.667.833c0 .275.225.5.5.5s.5-.225.5-.5-.225-.5-.5-.5-.5.225-.5.5m3.333 1.167a.95.95 0 0 0 1.334 0c.366-.367.066-.667-.667-.667s-1.033.3-.667.667m39 0a.95.95 0 0 0 1.334 0c.366-.367.066-.667-.667-.667s-1.033.3-.667.667m4 1a.95.95 0 0 0 1.334 0c.366-.367.066-.667-.667-.667s-1.033.3-.667.667M233 452.5c0 .275.225.5.5.5s.5-.225.5-.5-.225-.5-.5-.5-.5.225-.5.5m39.5.5c1.1.473 2.675.859 3.5.859.945 0 .761-.317-.5-.859-1.1-.473-2.675-.859-3.5-.859-.945 0-.761.317.5.859m30 .915c2.75 1.061 6.125 1.934 7.5 1.94 1.462.006.424-.575-2.5-1.399-8.402-2.367-10.249-2.567-5-.541m82.313-.232c.721.289 1.584.253 1.916-.079s-.258-.568-1.312-.525c-1.165.048-1.402.285-.604.604m-106.48.984a.95.95 0 0 0 1.334 0c.366-.367.066-.667-.667-.667s-1.033.3-.667.667M328 454.5c0 .275.225.5.5.5s.5-.225.5-.5-.225-.5-.5-.5-.5.225-.5.5m62 0c0 .275.225.5.5.5s.5-.225.5-.5-.225-.5-.5-.5-.5.225-.5.5m-67.731 1.193c.973.254 2.323.237 3-.037s-.119-.481-1.769-.461-2.204.244-1.231.498M371 455.5c0 .275.225.5.5.5s.5-.225.5-.5-.225-.5-.5-.5-.5.225-.5.5m-54.187 1.183c.721.289 1.584.253 1.916-.079s-.258-.568-1.312-.525c-1.165.048-1.402.285-.604.604m67.187.07c0 .551.714 1.595 1.587 2.319q1.587 1.317 1.19 4.709c-.385 3.298-.312 3.376 2.614 2.791 1.655-.331 3.359-1.158 3.786-1.837.902-1.433.121-4.69-1.548-6.463-1.524-1.618-7.629-2.835-7.629-1.519m10-.253c0 .275.225.5.5.5s.5-.225.5-.5-.225-.5-.5-.5-.5.225-.5.5m-35 1c0 .275.225.5.5.5s.5-.225.5-.5-.225-.5-.5-.5-.5.225-.5.5m-105 1c0 .275.225.5.5.5s.5-.225.5-.5-.225-.5-.5-.5-.5.225-.5.5m94 .487c-1.021.651-.224.761 2.5.343 4.943-.758 5.785-1.335 1.917-1.315-1.604.009-3.592.446-4.417.972m47.731 1.093c.354 1.352.807 1.806 1.057 1.057.24-.722-.038-1.787-.62-2.369-.742-.742-.872-.351-.437 1.312m-139.398-.413a.95.95 0 0 0 1.334 0c.366-.367.066-.667-.667-.667s-1.033.3-.667.667M294 462c0 .733.3 1.033.667.667a.95.95 0 0 0 0-1.334c-.367-.366-.667-.066-.667.667m-23.187 1.683c.721.289 1.584.253 1.916-.079s-.258-.568-1.312-.525c-1.165.048-1.402.285-.604.604m124.424 2.077c-1.168 2.491-1.14 2.572.366 1.066.896-.896 1.464-2.109 1.263-2.695s-.935.147-1.629 1.629m-120.904-1.093a.95.95 0 0 0 1.334 0c.366-.367.066-.667-.667-.667s-1.033.3-.667.667m24 0a.95.95 0 0 0 1.334 0c.366-.367.066-.667-.667-.667s-1.033.3-.667.667M278 465.5c0 .275.225.5.5.5s.5-.225.5-.5-.225-.5-.5-.5-.5.225-.5.5m16 .5c0 .733.3 1.033.667.667a.95.95 0 0 0 0-1.334c-.367-.366-.667-.066-.667.667m16.75-.338c.688.278 1.813.278 2.5 0 .688-.277.125-.504-1.25-.504s-1.937.227-1.25.504m-5 1c.688.278 1.813.278 2.5 0 .688-.277.125-.504-1.25-.504s-1.937.227-1.25.504m-3.417 1.005a.95.95 0 0 0 1.334 0c.366-.367.066-.667-.667-.667s-1.033.3-.667.667m-8 1a.95.95 0 0 0 1.334 0c.366-.367.066-.667-.667-.667s-1.033.3-.667.667M285 470.049c-1.686.573-.872.662 2.5.272 2.75-.317 5.188-.745 5.417-.949.787-.703-5.419-.172-7.917.677m-5.187 1.634c.721.289 1.584.253 1.916-.079s-.258-.568-1.312-.525c-1.165.048-1.402.285-.604.604M363 471.5c0 .275.225.5.5.5s.5-.225.5-.5-.225-.5-.5-.5-.5.225-.5.5m20.5.235c-2.2.219-4.371.762-4.825 1.207-1.237 1.212 5.396 2.153 8.76 1.243 3.273-.886 4.78-3.281 1.898-3.017-1.008.093-3.633.348-5.833.567m-108.75.927c.688.278 1.813.278 2.5 0 .688-.277.125-.504-1.25-.504s-1.937.227-1.25.504m75.583 1.005a.95.95 0 0 0 1.334 0c.366-.367.066-.667-.667-.667s-1.033.3-.667.667m-5 1a.95.95 0 0 0 1.334 0c.366-.367.066-.667-.667-.667s-1.033.3-.667.667M340 475.5c0 .275.225.5.5.5s.5-.225.5-.5-.225-.5-.5-.5-.5.225-.5.5m-83.667 1.167a.95.95 0 0 0 1.334 0c.366-.367.066-.667-.667-.667s-1.033.3-.667.667M334 476.5c0 .275.225.5.5.5s.5-.225.5-.5-.225-.5-.5-.5-.5.225-.5.5m-84.02 2.024c-.696.838-1.071 1.718-.835 1.955.237.236.98-.449 1.651-1.524 1.452-2.325.968-2.58-.816-.431m16.052-.774c.017.413.692 1.624 1.5 2.691.807 1.068 1.468 3.479 1.468 5.359 0 3.129.207 3.365 2.456 2.8 6.243-1.567 7.544-2.501 7.544-5.42 0-4.118-2.78-6.18-8.329-6.18-2.569 0-4.657.337-4.639.75m-12.436 2.556c-2.49 1.821-1.709 5.893 1.404 7.326 5.331 2.455 6.834 2.546 7.939.482 1.603-2.995-.249-6.678-4.017-7.991-3.882-1.354-3.192-1.377-5.326.183M313 480.5c0 .275.225.5.5.5s.5-.225.5-.5-.225-.5-.5-.5-.5.225-.5.5m-4 1c0 .275.225.5.5.5s.5-.225.5-.5-.225-.5-.5-.5-.5.225-.5.5m-60.921 2.083c.048 1.165.285 1.402.604.605.289-.722.253-1.585-.079-1.917s-.568.258-.525 1.312M293 484.5c0 .275.225.5.5.5s.5-.225.5-.5-.225-.5-.5-.5-.5.225-.5.5m-5 1c0 .275.225.5.5.5s.5-.225.5-.5-.225-.5-.5-.5-.5.225-.5.5m-39 1.211c0 .574.787 1.662 1.75 2.417 1.619 1.269 1.64 1.222.283-.628-.807-1.1-1.594-2.187-1.75-2.417s-.283.054-.283.628m31 1.789c0 .275.225.5.5.5s.5-.225.5-.5-.225-.5-.5-.5-.5.225-.5.5m-27 2c0 .275.225.5.5.5s.5-.225.5-.5-.225-.5-.5-.5-.5.225-.5.5m2.333 1.167a.95.95 0 0 0 1.334 0c.366-.367.066-.667-.667-.667s-1.033.3-.667.667m3.667.833c0 .275.225.5.5.5s.5-.225.5-.5-.225-.5-.5-.5-.5.225-.5.5m10.665 1.007c-6.774 1.862-6.876 2.493-.403 2.493 3.753 0 6.112-.517 7.167-1.571.864-.865 1.571-1.765 1.571-2 0-.733-3.295-.306-8.335 1.078"/></svg>
